G75*
G70*
%OFA0B0*%
%FSLAX24Y24*%
%IPPOS*%
%LPD*%
%AMOC8*
5,1,8,0,0,1.08239X$1,22.5*
%
%ADD10R,0.0395X0.0552*%
%ADD11OC8,0.0680*%
%ADD12C,0.1655*%
%ADD13C,0.0720*%
%ADD14C,0.0434*%
%ADD15R,0.0356X0.0631*%
%ADD16R,0.2049X0.1773*%
%ADD17R,0.0552X0.0395*%
%ADD18OC8,0.0710*%
%ADD19C,0.0710*%
%ADD20OC8,0.0720*%
%ADD21OC8,0.0930*%
%ADD22R,0.0671X0.0218*%
%ADD23R,0.0218X0.0671*%
%ADD24C,0.0197*%
%ADD25C,0.0040*%
%ADD26R,0.0552X0.0474*%
%ADD27R,0.0474X0.0474*%
%ADD28C,0.0640*%
%ADD29OC8,0.0694*%
%ADD30C,0.1346*%
%ADD31R,0.0277X0.1020*%
%ADD32R,0.0828X0.0671*%
%ADD33R,0.0720X0.0720*%
%ADD34C,0.0720*%
%ADD35C,0.1084*%
%ADD36R,0.0218X0.0395*%
%ADD37R,0.0907X0.1182*%
%ADD38R,0.0356X0.0198*%
%ADD39R,0.0474X0.0631*%
%ADD40R,0.0375X0.0237*%
%ADD41R,0.0820X0.0820*%
%ADD42C,0.0820*%
%ADD43R,0.4332X0.4178*%
%ADD44R,0.0500X0.0930*%
%ADD45R,0.1025X0.1025*%
%ADD46R,0.2206X0.1655*%
%ADD47C,0.1660*%
%ADD48OC8,0.1346*%
%ADD49C,0.1064*%
%ADD50C,0.0905*%
%ADD51C,0.1580*%
D10*
X014806Y011080D03*
X015514Y011080D03*
X019221Y011700D03*
X019929Y011700D03*
X023116Y013850D03*
X023824Y013850D03*
X023833Y014739D03*
X023125Y014739D03*
X024845Y014739D03*
X025553Y014739D03*
X025543Y013850D03*
X024835Y013850D03*
X024154Y010650D03*
X023446Y010650D03*
X028196Y009150D03*
X028904Y009150D03*
X029716Y010600D03*
X030424Y010600D03*
X031176Y010600D03*
X031884Y010600D03*
X034876Y010650D03*
X035584Y010650D03*
X039446Y010650D03*
X040154Y010650D03*
X044446Y012200D03*
X045154Y012200D03*
X049646Y011450D03*
X050354Y011450D03*
X050571Y005900D03*
X051279Y005900D03*
X051946Y005900D03*
X052654Y005900D03*
X046654Y005900D03*
X045946Y005900D03*
X045279Y005900D03*
X044571Y005900D03*
X040654Y005900D03*
X039946Y005900D03*
X039279Y005900D03*
X038571Y005900D03*
X036654Y005780D03*
X035946Y005780D03*
X035299Y005780D03*
X034591Y005780D03*
X031474Y005770D03*
X030766Y005770D03*
X029404Y006150D03*
X028696Y006150D03*
X024734Y005900D03*
X024026Y005900D03*
X023469Y005890D03*
X022761Y005890D03*
X020654Y005900D03*
X019946Y005900D03*
X019279Y005900D03*
X018571Y005900D03*
X017884Y016320D03*
X017176Y016320D03*
X015154Y022400D03*
X014446Y022400D03*
X013154Y024400D03*
X012446Y024400D03*
X011529Y024025D03*
X010821Y024025D03*
X008654Y025525D03*
X007946Y025525D03*
X007946Y027275D03*
X008654Y027275D03*
X006654Y029400D03*
X005946Y029400D03*
X002154Y023400D03*
X001446Y023400D03*
X001446Y020900D03*
X002154Y020900D03*
X008446Y022400D03*
X009154Y022400D03*
X014446Y024900D03*
X015154Y024900D03*
X015154Y025650D03*
X014446Y025650D03*
X014446Y027400D03*
X015154Y027400D03*
X021516Y033390D03*
X022224Y033390D03*
X030046Y033410D03*
X030754Y033410D03*
X034906Y029575D03*
X035614Y029575D03*
X038946Y033380D03*
X039654Y033380D03*
X043446Y029000D03*
X044154Y029000D03*
X042279Y025025D03*
X041571Y025025D03*
X049871Y025050D03*
X050579Y025050D03*
X048394Y033430D03*
X047686Y033430D03*
X056196Y033400D03*
X056904Y033400D03*
X029529Y020400D03*
X028821Y020400D03*
X027904Y019900D03*
X027196Y019900D03*
X025904Y019900D03*
X025196Y019900D03*
X026896Y026525D03*
X027604Y026525D03*
D11*
X052550Y026400D03*
X052550Y025400D03*
X052550Y024400D03*
X053550Y024400D03*
X053550Y025400D03*
X053550Y026400D03*
X053550Y027400D03*
X053550Y028400D03*
X053550Y029400D03*
X052550Y029400D03*
X052550Y028400D03*
X052550Y027400D03*
X052550Y023400D03*
X052550Y022400D03*
X052550Y021400D03*
X052550Y020400D03*
X052550Y019400D03*
X052550Y018400D03*
X052550Y017400D03*
X053550Y017400D03*
X053550Y018400D03*
X053550Y019400D03*
X053550Y020400D03*
X053550Y021400D03*
X053550Y022400D03*
X053550Y023400D03*
D12*
X056589Y029900D03*
X058914Y007316D03*
X022050Y023200D03*
X012570Y004041D03*
X004425Y045025D03*
D13*
X003810Y038300D02*
X003810Y037660D01*
X005590Y037660D02*
X005590Y038300D01*
X005590Y035740D02*
X005590Y035100D01*
X003810Y035100D02*
X003810Y035740D01*
X045550Y029570D02*
X045550Y028930D01*
X046550Y028930D02*
X046550Y029570D01*
X047550Y029570D02*
X047550Y028930D01*
X048550Y028930D02*
X048550Y029570D01*
X048050Y016970D02*
X048050Y016330D01*
X049050Y016330D02*
X049050Y016970D01*
X050050Y016970D02*
X050050Y016330D01*
X050050Y014720D02*
X050050Y014080D01*
X049050Y014080D02*
X049050Y014720D01*
X048050Y014720D02*
X048050Y014080D01*
X047050Y014080D02*
X047050Y014720D01*
X047050Y016330D02*
X047050Y016970D01*
X055300Y011720D02*
X055300Y011080D01*
X056300Y011080D02*
X056300Y011720D01*
X057300Y011720D02*
X057300Y011080D01*
X058300Y011080D02*
X058300Y011720D01*
D14*
X036910Y018130D03*
X036050Y018120D03*
X035130Y018130D03*
X034260Y018100D03*
X033450Y018130D03*
X032690Y018150D03*
X021920Y014760D03*
X021920Y013850D03*
X042850Y029000D03*
X045290Y032930D03*
X045290Y033430D03*
X045290Y033930D03*
X049040Y033430D03*
X053800Y033400D03*
X053800Y032900D03*
X053800Y033900D03*
X057550Y033400D03*
X057550Y032900D03*
X040300Y033380D03*
X036550Y033380D03*
X036550Y032880D03*
X036550Y033880D03*
X031400Y033410D03*
X027650Y033410D03*
X027650Y032910D03*
X027650Y033910D03*
X022870Y033390D03*
X019120Y033390D03*
X019120Y032890D03*
X019120Y033890D03*
D15*
X020075Y010663D03*
X020575Y010663D03*
X021075Y010663D03*
X021575Y010663D03*
X024300Y009693D03*
X024800Y009693D03*
X025300Y009693D03*
X025800Y009693D03*
X036140Y010523D03*
X036640Y010523D03*
X037140Y010523D03*
X037640Y010523D03*
X040300Y009693D03*
X040800Y009693D03*
X041300Y009693D03*
X041800Y009693D03*
X045300Y010943D03*
X045800Y010943D03*
X046300Y010943D03*
X046800Y010943D03*
X051300Y010693D03*
X051800Y010693D03*
X052300Y010693D03*
X052800Y010693D03*
D16*
X052050Y009256D03*
X046050Y009506D03*
X041050Y008256D03*
X036890Y009086D03*
X025050Y008256D03*
X020825Y009226D03*
D17*
X018580Y010556D03*
X018580Y011264D03*
X018300Y009504D03*
X018300Y008796D03*
X017805Y003114D03*
X017805Y002406D03*
X027300Y007546D03*
X027300Y008254D03*
X027050Y011046D03*
X027050Y011754D03*
X033060Y015046D03*
X033060Y015754D03*
X033860Y015764D03*
X033860Y015056D03*
X034710Y015056D03*
X034710Y015764D03*
X035580Y015774D03*
X035580Y016686D03*
X034720Y016686D03*
X033860Y016676D03*
X033860Y017384D03*
X034720Y017394D03*
X035580Y017394D03*
X036480Y017384D03*
X037350Y017374D03*
X037350Y016666D03*
X036480Y016676D03*
X036480Y015774D03*
X037350Y015774D03*
X037350Y015066D03*
X036480Y015066D03*
X035580Y015066D03*
X033060Y016676D03*
X033060Y017384D03*
X034300Y010784D03*
X034300Y010076D03*
X034300Y009504D03*
X034300Y008796D03*
X043800Y017296D03*
X043800Y018004D03*
X043800Y018546D03*
X044800Y018546D03*
X044800Y018004D03*
X044800Y017296D03*
X045800Y017296D03*
X045800Y018004D03*
X045800Y018546D03*
X045800Y019254D03*
X044800Y019254D03*
X043800Y019254D03*
X051300Y014754D03*
X051300Y014046D03*
X051300Y013504D03*
X051300Y012796D03*
X052300Y012796D03*
X052300Y013504D03*
X052300Y014046D03*
X052300Y014754D03*
X053550Y014754D03*
X053550Y014046D03*
X053550Y013504D03*
X053550Y012796D03*
X056300Y018546D03*
X056300Y019254D03*
X057300Y019254D03*
X057300Y018546D03*
X057550Y037046D03*
X057550Y037754D03*
X056550Y037754D03*
X056550Y037046D03*
X056050Y038796D03*
X056050Y039504D03*
X057050Y039504D03*
X057050Y038796D03*
X057050Y040296D03*
X057050Y041004D03*
X056050Y041004D03*
X056050Y040296D03*
X055050Y040296D03*
X055050Y041004D03*
X057800Y041046D03*
X057800Y041754D03*
X049290Y041784D03*
X049290Y041076D03*
X048540Y041034D03*
X048540Y040326D03*
X047540Y040326D03*
X047540Y041034D03*
X046540Y041034D03*
X046540Y040326D03*
X047540Y039534D03*
X047540Y038826D03*
X048540Y038826D03*
X048540Y039534D03*
X048040Y037784D03*
X049040Y037784D03*
X049040Y037076D03*
X048040Y037076D03*
X040300Y037026D03*
X040300Y037734D03*
X039300Y037734D03*
X039300Y037026D03*
X038800Y038776D03*
X038800Y039484D03*
X039800Y039484D03*
X039800Y038776D03*
X039800Y040276D03*
X039800Y040984D03*
X040550Y041026D03*
X040550Y041734D03*
X038800Y040984D03*
X038800Y040276D03*
X037800Y040276D03*
X037800Y040984D03*
X031650Y041056D03*
X030900Y041014D03*
X030900Y040306D03*
X030900Y039514D03*
X030900Y038806D03*
X029900Y038806D03*
X029900Y039514D03*
X029900Y040306D03*
X029900Y041014D03*
X028900Y041014D03*
X028900Y040306D03*
X031650Y041764D03*
X031400Y037764D03*
X031400Y037056D03*
X030400Y037056D03*
X030400Y037764D03*
X022870Y037744D03*
X022870Y037036D03*
X021870Y037036D03*
X021870Y037744D03*
X021370Y038786D03*
X021370Y039494D03*
X021370Y040286D03*
X021370Y040994D03*
X020370Y040994D03*
X020370Y040286D03*
X022370Y040286D03*
X022370Y040994D03*
X023120Y041036D03*
X023120Y041744D03*
X022370Y039494D03*
X022370Y038786D03*
X011290Y042151D03*
X011290Y042859D03*
X010290Y042859D03*
X010290Y042151D03*
X009290Y042151D03*
X009290Y042859D03*
X008290Y042859D03*
X008290Y042151D03*
X001800Y042546D03*
X001800Y043254D03*
X001800Y044006D03*
X001800Y044714D03*
X005300Y033254D03*
X005300Y032546D03*
X005300Y031254D03*
X005300Y030546D03*
X009800Y029754D03*
X009800Y029046D03*
X009925Y027504D03*
X009925Y026796D03*
X001800Y022754D03*
X001800Y022046D03*
X001800Y020254D03*
X001800Y019546D03*
X029050Y029046D03*
X029800Y029046D03*
X029800Y029754D03*
X029050Y029754D03*
D18*
X014240Y020300D03*
X020150Y014840D03*
X010660Y008380D03*
X015840Y003556D03*
D19*
X015840Y002156D03*
X010660Y009780D03*
X018750Y014840D03*
X014240Y018900D03*
D20*
X018300Y018900D03*
X018300Y019900D03*
X018300Y020900D03*
X019300Y020900D03*
X019300Y019900D03*
X019300Y018900D03*
X019300Y023900D03*
X019300Y024900D03*
X019300Y025900D03*
X018300Y025900D03*
X018300Y024900D03*
X018300Y023900D03*
X011800Y030400D03*
X011800Y031400D03*
X011800Y032400D03*
X010800Y032400D03*
X010800Y031400D03*
X010800Y030400D03*
X016930Y042690D03*
X042800Y022400D03*
X042800Y021400D03*
X042800Y020400D03*
X043800Y020400D03*
X044800Y020400D03*
X044800Y021400D03*
X043800Y021400D03*
X043800Y022400D03*
X044800Y022400D03*
X045800Y022400D03*
X045800Y021400D03*
X045800Y020400D03*
X046800Y020400D03*
X047800Y020400D03*
X047800Y021400D03*
X046800Y021400D03*
X046800Y022400D03*
X047800Y022400D03*
X048800Y022400D03*
X048800Y021400D03*
X048800Y020400D03*
X049800Y020400D03*
X049800Y021400D03*
X049800Y022400D03*
X054925Y007775D03*
D21*
X013980Y035650D03*
X013980Y038650D03*
D22*
X029400Y027512D03*
X029400Y027315D03*
X029400Y027119D03*
X029400Y026922D03*
X029400Y026725D03*
X029400Y026528D03*
X029400Y026331D03*
X029400Y026134D03*
X029400Y025937D03*
X029400Y025741D03*
X029400Y025544D03*
X029400Y025347D03*
X029400Y025150D03*
X029400Y024953D03*
X029400Y024756D03*
X029400Y024559D03*
X029400Y024363D03*
X029400Y024166D03*
X029400Y023969D03*
X029400Y023772D03*
X029400Y023575D03*
X029400Y023378D03*
X029400Y023181D03*
X029400Y022985D03*
X029400Y022788D03*
X035700Y022788D03*
X035700Y022985D03*
X035700Y023181D03*
X035700Y023378D03*
X035700Y023575D03*
X035700Y023772D03*
X035700Y023969D03*
X035700Y024166D03*
X035700Y024363D03*
X035700Y024559D03*
X035700Y024756D03*
X035700Y024953D03*
X035700Y025150D03*
X035700Y025347D03*
X035700Y025544D03*
X035700Y025741D03*
X035700Y025937D03*
X035700Y026134D03*
X035700Y026331D03*
X035700Y026528D03*
X035700Y026725D03*
X035700Y026922D03*
X035700Y027119D03*
X035700Y027315D03*
X035700Y027512D03*
D23*
X034912Y028300D03*
X034715Y028300D03*
X034519Y028300D03*
X034322Y028300D03*
X034125Y028300D03*
X033928Y028300D03*
X033731Y028300D03*
X033534Y028300D03*
X033337Y028300D03*
X033141Y028300D03*
X032944Y028300D03*
X032747Y028300D03*
X032550Y028300D03*
X032353Y028300D03*
X032156Y028300D03*
X031959Y028300D03*
X031763Y028300D03*
X031566Y028300D03*
X031369Y028300D03*
X031172Y028300D03*
X030975Y028300D03*
X030778Y028300D03*
X030581Y028300D03*
X030385Y028300D03*
X030188Y028300D03*
X030188Y022000D03*
X030385Y022000D03*
X030581Y022000D03*
X030778Y022000D03*
X030975Y022000D03*
X031172Y022000D03*
X031369Y022000D03*
X031566Y022000D03*
X031763Y022000D03*
X031959Y022000D03*
X032156Y022000D03*
X032353Y022000D03*
X032550Y022000D03*
X032747Y022000D03*
X032944Y022000D03*
X033141Y022000D03*
X033337Y022000D03*
X033534Y022000D03*
X033731Y022000D03*
X033928Y022000D03*
X034125Y022000D03*
X034322Y022000D03*
X034519Y022000D03*
X034715Y022000D03*
X034912Y022000D03*
D24*
X012322Y025878D02*
X011337Y025878D01*
X011278Y025937D01*
X011278Y026922D01*
X012322Y026922D01*
X012322Y025878D01*
X012322Y025920D02*
X011296Y025920D01*
X011278Y026116D02*
X012322Y026116D01*
X012322Y026311D02*
X011278Y026311D01*
X011278Y026506D02*
X012322Y026506D01*
X012322Y026702D02*
X011278Y026702D01*
X011278Y026897D02*
X012322Y026897D01*
D25*
X012607Y026900D02*
X012804Y026900D01*
X012804Y026931D02*
X012804Y026853D01*
X012607Y026853D01*
X012607Y026931D01*
X012804Y026931D01*
X012804Y026862D02*
X012607Y026862D01*
X012607Y026735D02*
X012804Y026735D01*
X012804Y026656D01*
X012607Y026656D01*
X012607Y026735D01*
X012607Y026708D02*
X012804Y026708D01*
X012804Y026669D02*
X012607Y026669D01*
X012607Y026538D02*
X012804Y026538D01*
X012804Y026459D01*
X012607Y026459D01*
X012607Y026538D01*
X012607Y026515D02*
X012804Y026515D01*
X012804Y026477D02*
X012607Y026477D01*
X012607Y026341D02*
X012804Y026341D01*
X012804Y026262D01*
X012607Y026262D01*
X012607Y026341D01*
X012607Y026323D02*
X012804Y026323D01*
X012804Y026284D02*
X012607Y026284D01*
X012607Y026144D02*
X012804Y026144D01*
X012804Y026065D01*
X012607Y026065D01*
X012607Y026144D01*
X012607Y026130D02*
X012804Y026130D01*
X012804Y026092D02*
X012607Y026092D01*
X012607Y025947D02*
X012804Y025947D01*
X012804Y025869D01*
X012607Y025869D01*
X012607Y025947D01*
X012607Y025938D02*
X012804Y025938D01*
X012804Y025899D02*
X012607Y025899D01*
X012607Y025750D02*
X012804Y025750D01*
X012804Y025672D01*
X012627Y025672D01*
X012607Y025691D01*
X012607Y025750D01*
X012607Y025745D02*
X012804Y025745D01*
X012804Y025707D02*
X012607Y025707D01*
X012509Y025593D02*
X012450Y025593D01*
X012450Y025396D01*
X012528Y025396D01*
X012528Y025573D01*
X012509Y025593D01*
X012510Y025591D02*
X012450Y025591D01*
X012450Y025553D02*
X012528Y025553D01*
X012528Y025514D02*
X012450Y025514D01*
X012450Y025476D02*
X012528Y025476D01*
X012528Y025437D02*
X012450Y025437D01*
X012450Y025399D02*
X012528Y025399D01*
X012331Y025399D02*
X012253Y025399D01*
X012253Y025396D02*
X012331Y025396D01*
X012331Y025593D01*
X012253Y025593D01*
X012253Y025396D01*
X012253Y025437D02*
X012331Y025437D01*
X012331Y025476D02*
X012253Y025476D01*
X012253Y025514D02*
X012331Y025514D01*
X012331Y025553D02*
X012253Y025553D01*
X012253Y025591D02*
X012331Y025591D01*
X012135Y025591D02*
X012056Y025591D01*
X012056Y025593D02*
X012135Y025593D01*
X012135Y025396D01*
X012056Y025396D01*
X012056Y025593D01*
X012056Y025553D02*
X012135Y025553D01*
X012135Y025514D02*
X012056Y025514D01*
X012056Y025476D02*
X012135Y025476D01*
X012135Y025437D02*
X012056Y025437D01*
X012056Y025399D02*
X012135Y025399D01*
X011938Y025399D02*
X011859Y025399D01*
X011859Y025396D02*
X011938Y025396D01*
X011938Y025593D01*
X011859Y025593D01*
X011859Y025396D01*
X011859Y025437D02*
X011938Y025437D01*
X011938Y025476D02*
X011859Y025476D01*
X011859Y025514D02*
X011938Y025514D01*
X011938Y025553D02*
X011859Y025553D01*
X011859Y025591D02*
X011938Y025591D01*
X011741Y025591D02*
X011662Y025591D01*
X011662Y025593D02*
X011741Y025593D01*
X011741Y025396D01*
X011662Y025396D01*
X011662Y025593D01*
X011662Y025553D02*
X011741Y025553D01*
X011741Y025514D02*
X011662Y025514D01*
X011662Y025476D02*
X011741Y025476D01*
X011741Y025437D02*
X011662Y025437D01*
X011662Y025399D02*
X011741Y025399D01*
X011544Y025399D02*
X011465Y025399D01*
X011465Y025396D02*
X011544Y025396D01*
X011544Y025593D01*
X011465Y025593D01*
X011465Y025396D01*
X011465Y025437D02*
X011544Y025437D01*
X011544Y025476D02*
X011465Y025476D01*
X011465Y025514D02*
X011544Y025514D01*
X011544Y025553D02*
X011465Y025553D01*
X011465Y025591D02*
X011544Y025591D01*
X011347Y025591D02*
X011269Y025591D01*
X011269Y025593D02*
X011347Y025593D01*
X011347Y025396D01*
X011269Y025396D01*
X011269Y025593D01*
X011269Y025553D02*
X011347Y025553D01*
X011347Y025514D02*
X011269Y025514D01*
X011269Y025476D02*
X011347Y025476D01*
X011347Y025437D02*
X011269Y025437D01*
X011269Y025399D02*
X011347Y025399D01*
X011150Y025399D02*
X011072Y025399D01*
X011072Y025396D02*
X011150Y025396D01*
X011150Y025593D01*
X011091Y025593D01*
X011072Y025573D01*
X011072Y025396D01*
X011072Y025437D02*
X011150Y025437D01*
X011150Y025476D02*
X011072Y025476D01*
X011072Y025514D02*
X011150Y025514D01*
X011150Y025553D02*
X011072Y025553D01*
X011090Y025591D02*
X011150Y025591D01*
X010993Y025691D02*
X010993Y025750D01*
X010796Y025750D01*
X010796Y025672D01*
X010973Y025672D01*
X010993Y025691D01*
X010993Y025707D02*
X010796Y025707D01*
X010796Y025745D02*
X010993Y025745D01*
X010993Y025869D02*
X010796Y025869D01*
X010796Y025947D01*
X010993Y025947D01*
X010993Y025869D01*
X010993Y025899D02*
X010796Y025899D01*
X010796Y025938D02*
X010993Y025938D01*
X010993Y026065D02*
X010796Y026065D01*
X010796Y026144D01*
X010993Y026144D01*
X010993Y026065D01*
X010993Y026092D02*
X010796Y026092D01*
X010796Y026130D02*
X010993Y026130D01*
X010993Y026262D02*
X010796Y026262D01*
X010796Y026341D01*
X010993Y026341D01*
X010993Y026262D01*
X010993Y026284D02*
X010796Y026284D01*
X010796Y026323D02*
X010993Y026323D01*
X010993Y026459D02*
X010796Y026459D01*
X010796Y026538D01*
X010993Y026538D01*
X010993Y026459D01*
X010993Y026477D02*
X010796Y026477D01*
X010796Y026515D02*
X010993Y026515D01*
X010993Y026656D02*
X010796Y026656D01*
X010796Y026735D01*
X010993Y026735D01*
X010993Y026656D01*
X010993Y026669D02*
X010796Y026669D01*
X010796Y026708D02*
X010993Y026708D01*
X010993Y026853D02*
X010796Y026853D01*
X010796Y026931D01*
X010993Y026931D01*
X010993Y026853D01*
X010993Y026862D02*
X010796Y026862D01*
X010796Y026900D02*
X010993Y026900D01*
X010993Y027050D02*
X010796Y027050D01*
X010796Y027128D01*
X010973Y027128D01*
X010993Y027109D01*
X010993Y027050D01*
X010993Y027054D02*
X010796Y027054D01*
X010796Y027093D02*
X010993Y027093D01*
X011091Y027207D02*
X011150Y027207D01*
X011150Y027404D01*
X011072Y027404D01*
X011072Y027227D01*
X011091Y027207D01*
X011090Y027208D02*
X011150Y027208D01*
X011150Y027247D02*
X011072Y027247D01*
X011072Y027285D02*
X011150Y027285D01*
X011150Y027324D02*
X011072Y027324D01*
X011072Y027362D02*
X011150Y027362D01*
X011150Y027401D02*
X011072Y027401D01*
X011269Y027401D02*
X011347Y027401D01*
X011347Y027404D02*
X011269Y027404D01*
X011269Y027207D01*
X011347Y027207D01*
X011347Y027404D01*
X011347Y027362D02*
X011269Y027362D01*
X011269Y027324D02*
X011347Y027324D01*
X011347Y027285D02*
X011269Y027285D01*
X011269Y027247D02*
X011347Y027247D01*
X011347Y027208D02*
X011269Y027208D01*
X011465Y027208D02*
X011544Y027208D01*
X011544Y027207D02*
X011465Y027207D01*
X011465Y027404D01*
X011544Y027404D01*
X011544Y027207D01*
X011544Y027247D02*
X011465Y027247D01*
X011465Y027285D02*
X011544Y027285D01*
X011544Y027324D02*
X011465Y027324D01*
X011465Y027362D02*
X011544Y027362D01*
X011544Y027401D02*
X011465Y027401D01*
X011662Y027401D02*
X011741Y027401D01*
X011741Y027404D02*
X011662Y027404D01*
X011662Y027207D01*
X011741Y027207D01*
X011741Y027404D01*
X011741Y027362D02*
X011662Y027362D01*
X011662Y027324D02*
X011741Y027324D01*
X011741Y027285D02*
X011662Y027285D01*
X011662Y027247D02*
X011741Y027247D01*
X011741Y027208D02*
X011662Y027208D01*
X011859Y027208D02*
X011938Y027208D01*
X011938Y027207D02*
X011859Y027207D01*
X011859Y027404D01*
X011938Y027404D01*
X011938Y027207D01*
X011938Y027247D02*
X011859Y027247D01*
X011859Y027285D02*
X011938Y027285D01*
X011938Y027324D02*
X011859Y027324D01*
X011859Y027362D02*
X011938Y027362D01*
X011938Y027401D02*
X011859Y027401D01*
X012056Y027401D02*
X012135Y027401D01*
X012135Y027404D02*
X012056Y027404D01*
X012056Y027207D01*
X012135Y027207D01*
X012135Y027404D01*
X012135Y027362D02*
X012056Y027362D01*
X012056Y027324D02*
X012135Y027324D01*
X012135Y027285D02*
X012056Y027285D01*
X012056Y027247D02*
X012135Y027247D01*
X012135Y027208D02*
X012056Y027208D01*
X012253Y027208D02*
X012331Y027208D01*
X012331Y027207D02*
X012253Y027207D01*
X012253Y027404D01*
X012331Y027404D01*
X012331Y027207D01*
X012331Y027247D02*
X012253Y027247D01*
X012253Y027285D02*
X012331Y027285D01*
X012331Y027324D02*
X012253Y027324D01*
X012253Y027362D02*
X012331Y027362D01*
X012331Y027401D02*
X012253Y027401D01*
X012450Y027401D02*
X012528Y027401D01*
X012528Y027404D02*
X012450Y027404D01*
X012450Y027207D01*
X012509Y027207D01*
X012528Y027227D01*
X012528Y027404D01*
X012528Y027362D02*
X012450Y027362D01*
X012450Y027324D02*
X012528Y027324D01*
X012528Y027285D02*
X012450Y027285D01*
X012450Y027247D02*
X012528Y027247D01*
X012510Y027208D02*
X012450Y027208D01*
X012607Y027109D02*
X012607Y027050D01*
X012804Y027050D01*
X012804Y027128D01*
X012627Y027128D01*
X012607Y027109D01*
X012607Y027093D02*
X012804Y027093D01*
X012804Y027054D02*
X012607Y027054D01*
D26*
X008733Y029400D03*
X007867Y029400D03*
D27*
X007906Y028400D03*
X008694Y028400D03*
X008694Y024400D03*
X007906Y024400D03*
D28*
X010850Y022400D03*
X012750Y022400D03*
X025600Y021275D03*
X027500Y021275D03*
D29*
X006654Y025908D03*
X005867Y025908D03*
X005867Y026892D03*
X006654Y026892D03*
D30*
X004800Y028762D03*
X004800Y024038D03*
D31*
X056300Y017690D03*
X056800Y017690D03*
X057300Y017690D03*
X057800Y017690D03*
X057800Y015860D03*
X057300Y015860D03*
X056800Y015860D03*
X056300Y015860D03*
D32*
X033434Y008900D03*
X033434Y007900D03*
X033434Y006900D03*
X030166Y006900D03*
X030166Y007900D03*
X030166Y008900D03*
X017434Y008900D03*
X017434Y007900D03*
X017434Y006900D03*
X014166Y006900D03*
X014166Y007900D03*
X014166Y008900D03*
D33*
X024120Y041890D03*
X032650Y041910D03*
X041550Y041880D03*
X050290Y041930D03*
X058800Y041900D03*
D34*
X058800Y040900D03*
X058800Y039900D03*
X058800Y038900D03*
X058800Y037900D03*
X058800Y036900D03*
X058800Y035900D03*
X058800Y034900D03*
X053800Y034900D03*
X053800Y035900D03*
X053800Y036900D03*
X053800Y037900D03*
X053800Y038900D03*
X053800Y039900D03*
X053800Y040900D03*
X053800Y041900D03*
X050290Y040930D03*
X050290Y039930D03*
X050290Y038930D03*
X050290Y037930D03*
X050290Y036930D03*
X050290Y035930D03*
X050290Y034930D03*
X045290Y034930D03*
X045290Y035930D03*
X045290Y036930D03*
X045290Y037930D03*
X045290Y038930D03*
X045290Y039930D03*
X045290Y040930D03*
X045290Y041930D03*
X041550Y040880D03*
X041550Y039880D03*
X041550Y038880D03*
X041550Y037880D03*
X041550Y036880D03*
X041550Y035880D03*
X041550Y034880D03*
X036550Y034880D03*
X036550Y035880D03*
X036550Y036880D03*
X036550Y037880D03*
X036550Y038880D03*
X036550Y039880D03*
X036550Y040880D03*
X036550Y041880D03*
X032650Y040910D03*
X032650Y039910D03*
X032650Y038910D03*
X032650Y037910D03*
X032650Y036910D03*
X032650Y035910D03*
X032650Y034910D03*
X027650Y034910D03*
X027650Y035910D03*
X027650Y036910D03*
X027650Y037910D03*
X027650Y038910D03*
X027650Y039910D03*
X027650Y040910D03*
X027650Y041910D03*
X024120Y040890D03*
X024120Y039890D03*
X024120Y038890D03*
X024120Y037890D03*
X024120Y036890D03*
X024120Y035890D03*
X024120Y034890D03*
X019120Y034890D03*
X019120Y035890D03*
X019120Y036890D03*
X019120Y037890D03*
X019120Y038890D03*
X019120Y039890D03*
X019120Y040890D03*
X019120Y041890D03*
D35*
X019281Y044388D02*
X019281Y045392D01*
X020840Y045392D02*
X020840Y044388D01*
X022400Y044388D02*
X022400Y045392D01*
X023959Y045392D02*
X023959Y044388D01*
X027811Y044408D02*
X027811Y045412D01*
X029370Y045412D02*
X029370Y044408D01*
X030930Y044408D02*
X030930Y045412D01*
X032489Y045412D02*
X032489Y044408D01*
X036711Y044378D02*
X036711Y045382D01*
X038270Y045382D02*
X038270Y044378D01*
X039830Y044378D02*
X039830Y045382D01*
X041389Y045382D02*
X041389Y044378D01*
X045451Y044428D02*
X045451Y045432D01*
X047010Y045432D02*
X047010Y044428D01*
X048570Y044428D02*
X048570Y045432D01*
X050129Y045432D02*
X050129Y044428D01*
X053961Y044398D02*
X053961Y045402D01*
X055520Y045402D02*
X055520Y044398D01*
X057080Y044398D02*
X057080Y045402D01*
X058639Y045402D02*
X058639Y044398D01*
D36*
X055556Y037833D03*
X055300Y037833D03*
X055044Y037833D03*
X055044Y036967D03*
X055300Y036967D03*
X055556Y036967D03*
X047046Y036997D03*
X046790Y036997D03*
X046534Y036997D03*
X046534Y037863D03*
X046790Y037863D03*
X047046Y037863D03*
X038306Y037813D03*
X038050Y037813D03*
X037794Y037813D03*
X037794Y036947D03*
X038050Y036947D03*
X038306Y036947D03*
X029406Y036977D03*
X029150Y036977D03*
X028894Y036977D03*
X028894Y037843D03*
X029150Y037843D03*
X029406Y037843D03*
X020876Y037823D03*
X020620Y037823D03*
X020364Y037823D03*
X020364Y036957D03*
X020620Y036957D03*
X020876Y036957D03*
D37*
X020360Y035390D03*
X022880Y035390D03*
X028890Y035410D03*
X031410Y035410D03*
X037790Y035380D03*
X040310Y035380D03*
X046530Y035430D03*
X049050Y035430D03*
X055040Y035400D03*
X057560Y035400D03*
D38*
X029081Y008195D03*
X029081Y007998D03*
X029081Y007802D03*
X029081Y007605D03*
X028019Y007605D03*
X028019Y007802D03*
X028019Y007998D03*
X028019Y008195D03*
D39*
X054676Y013958D03*
X055424Y013958D03*
X056176Y013958D03*
X056924Y013958D03*
X057676Y013958D03*
X058424Y013958D03*
X058050Y013092D03*
X056550Y013092D03*
X055050Y013092D03*
D40*
X052841Y011945D03*
X052841Y011748D03*
X052841Y011552D03*
X052841Y011355D03*
X051759Y011355D03*
X051759Y011552D03*
X051759Y011748D03*
X051759Y011945D03*
D41*
X041400Y012550D03*
X040400Y015450D03*
X038050Y012550D03*
X034770Y012550D03*
X031550Y012550D03*
X030550Y015450D03*
D42*
X031550Y015450D03*
X030550Y012550D03*
X033770Y012550D03*
X037050Y012550D03*
X040400Y012550D03*
X041400Y015450D03*
D43*
X009740Y018600D03*
D44*
X009740Y015320D03*
X009070Y015320D03*
X008400Y015320D03*
X010410Y015320D03*
X011080Y015320D03*
D45*
X011106Y012390D03*
X009374Y012390D03*
D46*
X014230Y012691D03*
X014230Y016549D03*
D47*
X006184Y016040D03*
X005003Y014190D03*
X003821Y016040D03*
D48*
X007287Y008816D03*
X007287Y006179D03*
X007287Y003580D03*
D49*
X003197Y003741D03*
X003197Y008659D03*
D50*
X020000Y004083D02*
X020000Y003258D01*
X022000Y003258D02*
X022000Y004083D01*
X024000Y004083D02*
X024000Y003258D01*
X026000Y003258D02*
X026000Y004083D01*
X029500Y004083D02*
X029500Y003258D01*
X031500Y003258D02*
X031500Y004083D01*
X035260Y004083D02*
X035260Y003258D01*
X037260Y003258D02*
X037260Y004083D01*
X039260Y004083D02*
X039260Y003258D01*
X041260Y003258D02*
X041260Y004083D01*
X044860Y004083D02*
X044860Y003258D01*
X046860Y003258D02*
X046860Y004083D01*
X050830Y004083D02*
X050830Y003258D01*
X052830Y003258D02*
X052830Y004083D01*
X057240Y004083D02*
X057240Y003258D01*
X059240Y003258D02*
X059240Y004083D01*
X014110Y044518D02*
X014110Y045343D01*
X012110Y045343D02*
X012110Y044518D01*
X010110Y044518D02*
X010110Y045343D01*
X008110Y045343D02*
X008110Y044518D01*
D51*
X056425Y007775D03*
M02*
