G75*
G70*
%OFA0B0*%
%FSLAX24Y24*%
%IPPOS*%
%LPD*%
%AMOC8*
5,1,8,0,0,1.08239X$1,22.5*
%
%ADD10OC8,0.0680*%
%ADD11C,0.1655*%
%ADD12C,0.0720*%
%ADD13OC8,0.0710*%
%ADD14C,0.0710*%
%ADD15OC8,0.0720*%
%ADD16OC8,0.0930*%
%ADD17C,0.0640*%
%ADD18OC8,0.0694*%
%ADD19C,0.1346*%
%ADD20R,0.0720X0.0720*%
%ADD21C,0.0720*%
%ADD22C,0.1084*%
%ADD23C,0.0434*%
%ADD24R,0.0820X0.0820*%
%ADD25C,0.0820*%
%ADD26C,0.1660*%
%ADD27OC8,0.1346*%
%ADD28C,0.1064*%
%ADD29C,0.0905*%
%ADD30C,0.1580*%
D10*
X052550Y017400D03*
X052550Y018400D03*
X052550Y019400D03*
X052550Y020400D03*
X052550Y021400D03*
X052550Y022400D03*
X052550Y023400D03*
X053550Y023400D03*
X053550Y022400D03*
X053550Y021400D03*
X053550Y020400D03*
X053550Y019400D03*
X053550Y018400D03*
X053550Y017400D03*
X053550Y024400D03*
X053550Y025400D03*
X053550Y026400D03*
X053550Y027400D03*
X053550Y028400D03*
X053550Y029400D03*
X052550Y029400D03*
X052550Y028400D03*
X052550Y027400D03*
X052550Y026400D03*
X052550Y025400D03*
X052550Y024400D03*
D11*
X056589Y029900D03*
X058914Y007316D03*
X022050Y023200D03*
X012570Y004041D03*
X004425Y045025D03*
D12*
X003810Y038300D02*
X003810Y037660D01*
X005590Y037660D02*
X005590Y038300D01*
X005590Y035740D02*
X005590Y035100D01*
X003810Y035100D02*
X003810Y035740D01*
X045550Y029570D02*
X045550Y028930D01*
X046550Y028930D02*
X046550Y029570D01*
X047550Y029570D02*
X047550Y028930D01*
X048550Y028930D02*
X048550Y029570D01*
X048050Y016970D02*
X048050Y016330D01*
X049050Y016330D02*
X049050Y016970D01*
X050050Y016970D02*
X050050Y016330D01*
X050050Y014720D02*
X050050Y014080D01*
X049050Y014080D02*
X049050Y014720D01*
X048050Y014720D02*
X048050Y014080D01*
X047050Y014080D02*
X047050Y014720D01*
X047050Y016330D02*
X047050Y016970D01*
X055300Y011720D02*
X055300Y011080D01*
X056300Y011080D02*
X056300Y011720D01*
X057300Y011720D02*
X057300Y011080D01*
X058300Y011080D02*
X058300Y011720D01*
D13*
X020150Y014840D03*
X014240Y020300D03*
X010660Y008380D03*
X015840Y003556D03*
D14*
X015840Y002156D03*
X010660Y009780D03*
X018750Y014840D03*
X014240Y018900D03*
D15*
X018300Y018900D03*
X018300Y019900D03*
X018300Y020900D03*
X019300Y020900D03*
X019300Y019900D03*
X019300Y018900D03*
X019300Y023900D03*
X019300Y024900D03*
X019300Y025900D03*
X018300Y025900D03*
X018300Y024900D03*
X018300Y023900D03*
X011800Y030400D03*
X011800Y031400D03*
X011800Y032400D03*
X010800Y032400D03*
X010800Y031400D03*
X010800Y030400D03*
X016930Y042690D03*
X042800Y022400D03*
X042800Y021400D03*
X042800Y020400D03*
X043800Y020400D03*
X044800Y020400D03*
X044800Y021400D03*
X043800Y021400D03*
X043800Y022400D03*
X044800Y022400D03*
X045800Y022400D03*
X045800Y021400D03*
X045800Y020400D03*
X046800Y020400D03*
X047800Y020400D03*
X047800Y021400D03*
X046800Y021400D03*
X046800Y022400D03*
X047800Y022400D03*
X048800Y022400D03*
X048800Y021400D03*
X048800Y020400D03*
X049800Y020400D03*
X049800Y021400D03*
X049800Y022400D03*
X054925Y007775D03*
D16*
X013980Y035650D03*
X013980Y038650D03*
D17*
X012750Y022400D03*
X010850Y022400D03*
X025600Y021275D03*
X027500Y021275D03*
D18*
X006654Y025908D03*
X005867Y025908D03*
X005867Y026892D03*
X006654Y026892D03*
D19*
X004800Y028762D03*
X004800Y024038D03*
D20*
X024120Y041890D03*
X032650Y041910D03*
X041550Y041880D03*
X050290Y041930D03*
X058800Y041900D03*
D21*
X058800Y040900D03*
X058800Y039900D03*
X058800Y038900D03*
X058800Y037900D03*
X058800Y036900D03*
X058800Y035900D03*
X058800Y034900D03*
X053800Y034900D03*
X053800Y035900D03*
X053800Y036900D03*
X053800Y037900D03*
X053800Y038900D03*
X053800Y039900D03*
X053800Y040900D03*
X053800Y041900D03*
X050290Y040930D03*
X050290Y039930D03*
X050290Y038930D03*
X050290Y037930D03*
X050290Y036930D03*
X050290Y035930D03*
X050290Y034930D03*
X045290Y034930D03*
X045290Y035930D03*
X045290Y036930D03*
X045290Y037930D03*
X045290Y038930D03*
X045290Y039930D03*
X045290Y040930D03*
X045290Y041930D03*
X041550Y040880D03*
X041550Y039880D03*
X041550Y038880D03*
X041550Y037880D03*
X041550Y036880D03*
X041550Y035880D03*
X041550Y034880D03*
X036550Y034880D03*
X036550Y035880D03*
X036550Y036880D03*
X036550Y037880D03*
X036550Y038880D03*
X036550Y039880D03*
X036550Y040880D03*
X036550Y041880D03*
X032650Y040910D03*
X032650Y039910D03*
X032650Y038910D03*
X032650Y037910D03*
X032650Y036910D03*
X032650Y035910D03*
X032650Y034910D03*
X027650Y034910D03*
X027650Y035910D03*
X027650Y036910D03*
X027650Y037910D03*
X027650Y038910D03*
X027650Y039910D03*
X027650Y040910D03*
X027650Y041910D03*
X024120Y040890D03*
X024120Y039890D03*
X024120Y038890D03*
X024120Y037890D03*
X024120Y036890D03*
X024120Y035890D03*
X024120Y034890D03*
X019120Y034890D03*
X019120Y035890D03*
X019120Y036890D03*
X019120Y037890D03*
X019120Y038890D03*
X019120Y039890D03*
X019120Y040890D03*
X019120Y041890D03*
D22*
X019281Y044388D02*
X019281Y045392D01*
X020840Y045392D02*
X020840Y044388D01*
X022400Y044388D02*
X022400Y045392D01*
X023959Y045392D02*
X023959Y044388D01*
X027811Y044408D02*
X027811Y045412D01*
X029370Y045412D02*
X029370Y044408D01*
X030930Y044408D02*
X030930Y045412D01*
X032489Y045412D02*
X032489Y044408D01*
X036711Y044378D02*
X036711Y045382D01*
X038270Y045382D02*
X038270Y044378D01*
X039830Y044378D02*
X039830Y045382D01*
X041389Y045382D02*
X041389Y044378D01*
X045451Y044428D02*
X045451Y045432D01*
X047010Y045432D02*
X047010Y044428D01*
X048570Y044428D02*
X048570Y045432D01*
X050129Y045432D02*
X050129Y044428D01*
X053961Y044398D02*
X053961Y045402D01*
X055520Y045402D02*
X055520Y044398D01*
X057080Y044398D02*
X057080Y045402D01*
X058639Y045402D02*
X058639Y044398D01*
D23*
X003800Y026900D03*
X003800Y025900D03*
X002800Y025900D03*
X002800Y026900D03*
D24*
X030550Y015450D03*
X031550Y012550D03*
X034770Y012550D03*
X038050Y012550D03*
X041400Y012550D03*
X040400Y015450D03*
D25*
X041400Y015450D03*
X040400Y012550D03*
X037050Y012550D03*
X033770Y012550D03*
X030550Y012550D03*
X031550Y015450D03*
D26*
X006184Y016040D03*
X005003Y014190D03*
X003821Y016040D03*
D27*
X007287Y008816D03*
X007287Y006179D03*
X007287Y003580D03*
D28*
X003197Y003741D03*
X003197Y008659D03*
D29*
X020000Y004083D02*
X020000Y003258D01*
X022000Y003258D02*
X022000Y004083D01*
X024000Y004083D02*
X024000Y003258D01*
X026000Y003258D02*
X026000Y004083D01*
X029500Y004083D02*
X029500Y003258D01*
X031500Y003258D02*
X031500Y004083D01*
X035260Y004083D02*
X035260Y003258D01*
X037260Y003258D02*
X037260Y004083D01*
X039260Y004083D02*
X039260Y003258D01*
X041260Y003258D02*
X041260Y004083D01*
X044860Y004083D02*
X044860Y003258D01*
X046860Y003258D02*
X046860Y004083D01*
X050830Y004083D02*
X050830Y003258D01*
X052830Y003258D02*
X052830Y004083D01*
X057240Y004083D02*
X057240Y003258D01*
X059240Y003258D02*
X059240Y004083D01*
X014110Y044518D02*
X014110Y045343D01*
X012110Y045343D02*
X012110Y044518D01*
X010110Y044518D02*
X010110Y045343D01*
X008110Y045343D02*
X008110Y044518D01*
D30*
X056425Y007775D03*
M02*
