%
M48
M72
T01C0.0200
T02C0.0236
T03C0.0320
T04C0.0360
T05C0.0374
T06C0.0400
T07C0.0500
T08C0.0550
T09C0.0669
T10C0.0866
T11C0.0984
T12C0.1180
T13C0.1575
%
T01
X11695Y6845
X15300Y9040
X16630Y10160
X18020Y10570
X19410Y11010
X20540Y11270
X21290Y11310
X22050Y11410
X22300Y10900
X21120Y12190
X24155Y13165
X26060Y12265
X27050Y12580
X29200Y14300
X27040Y14410
X27040Y14410
X26995Y17060
X26120Y17160
X25300Y17150
X24550Y17150
X24550Y18150
X25300Y18150
X26185Y18805
X27150Y18850
X26550Y19900
X26175Y20650
X26925Y20650
X26550Y22400
X28050Y22150
X29800Y21400
X30050Y20900
X30550Y20650
X32060Y19250
X29050Y18400
X27790Y16960
X25050Y19150
X22630Y18290
X21490Y18140
X22230Y16910
X21110Y16630
X16050Y19850
X17075Y22370
X15275Y23440
X16050Y24400
X13800Y24400
X13550Y23650
X13675Y25775
X13675Y26275
X13300Y26900
X13800Y27400
X12550Y27900
X12050Y29150
X11300Y29150
X11300Y28400
X10425Y28150
X9950Y28500
X9175Y27900
X9175Y26400
X9925Y25400
X9550Y24525
X7300Y24400
X7800Y22400
X8550Y21650
X9425Y21650
X12705Y18195
X19420Y22485
X21500Y27800
X26250Y26500
X26050Y25900
X26050Y25150
X26950Y24600
X27800Y25400
X27050Y25900
X30300Y26650
X31050Y26150
X30550Y25800
X31300Y25400
X30925Y25025
X31300Y24650
X30925Y24275
X31300Y23900
X31425Y23400
X33050Y22900
X33800Y24900
X33530Y25910
X33930Y26430
X34519Y27150
X34900Y26220
X32150Y26150
X32050Y27400
X31050Y27400
X33725Y28885
X33990Y29330
X33930Y29850
X33350Y29850
X35550Y28400
X36550Y28400
X36550Y29900
X37850Y31000
X42100Y29000
X44550Y28400
X44300Y25150
X46300Y25150
X48300Y25150
X54300Y19900
X54300Y18900
X54300Y17900
X56175Y16775
X54800Y14900
X53800Y15275
X52300Y15400
X51300Y15400
X51050Y17400
X46550Y18150
X44300Y14150
X42150Y14150
X39480Y16360
X38970Y16050
X39800Y17420
X36300Y19900
X35300Y20150
X35500Y18970
X35530Y18430
X39050Y20900
X40050Y21400
X37050Y22400
X36300Y22400
X41050Y25150
X39100Y34730
X38800Y35380
X38050Y36380
X35800Y35380
X34600Y36360
X34600Y38190
X35800Y38380
X37300Y39380
X37800Y38880
X43600Y38110
X44540Y38430
X46040Y39430
X46540Y38930
X46790Y36430
X47540Y35430
X47840Y34780
X44540Y35430
X43600Y36080
X52200Y36130
X53050Y35400
X55300Y36400
X56050Y35400
X56350Y34750
X52200Y37970
X53050Y38400
X54550Y39400
X55050Y38900
X30200Y34760
X29900Y35410
X29150Y36410
X26900Y35410
X26040Y36160
X26040Y38360
X26900Y38410
X28400Y39410
X28900Y38910
X21670Y34740
X21370Y35390
X20620Y36390
X20370Y38890
X19870Y39390
X12550Y30150
X14550Y28900
X9175Y29900
X7300Y29525
X6550Y27900
X5550Y27650
X4300Y27650
X4800Y28775
X4175Y30525
X4175Y32650
X7420Y31470
X7560Y34920
X5010Y42540
X4050Y42530
X3020Y42530
X3300Y25900
X3800Y24900
X2800Y22025
X2675Y19525
X24800Y10900
X25300Y10400
X25890Y10400
X26800Y10150
X27800Y10400
X28550Y10400
X29300Y9900
X27300Y9150
X28520Y7230
X32740Y10240
X35870Y11140
X38640Y10900
X39450Y9560
X40800Y10650
X41550Y10650
X42300Y10650
X42700Y10130
X43550Y9900
X43550Y9400
X43550Y8900
X43550Y8400
X43550Y7900
X43550Y7400
X43550Y6900
X44050Y6900
X44050Y7400
X44050Y7900
X44050Y8400
X44050Y8900
X44050Y9400
X44050Y9900
X44550Y9900
X45050Y9900
X45550Y8400
X46050Y8400
X46550Y8400
X48050Y8400
X48050Y7900
X48050Y7400
X48050Y6900
X48550Y6900
X48550Y7400
X48550Y7900
X48550Y8400
X48550Y8900
X48550Y9400
X48550Y9900
X48050Y9900
X48050Y9400
X48050Y8900
X47550Y9900
X47050Y9900
X47425Y10900
X48175Y10900
X48925Y10900
X48675Y11650
X47925Y11650
X47175Y11650
X46425Y11650
X45675Y11650
X50550Y9650
X50550Y9150
X50550Y8650
X50550Y8150
X50550Y7650
X51050Y7650
X51550Y7650
X51550Y8150
X51050Y8150
X51050Y8650
X51050Y9150
X51050Y9650
X52050Y8150
X52050Y7650
X52550Y7650
X52550Y8150
X53050Y8150
X53050Y7650
X53550Y7650
X53550Y8150
X53550Y8650
X53550Y9150
X53550Y9650
X53050Y9650
X53050Y9150
X53050Y8650
X54300Y10400
X53550Y10650
X54175Y11150
X53550Y12150
X55800Y12900
X57300Y12900
X58425Y15025
X51175Y11775
X51050Y7150
X51550Y7150
X52050Y7150
X52550Y7150
X53050Y7150
X53550Y7150
X50550Y7150
X39200Y8490
X37350Y14320
X36480Y14320
X35580Y14310
X34710Y14300
X33860Y14300
X33060Y14300
X27300Y29150
T02
X11285Y20510
X11285Y20010
X11285Y19510
X11285Y19010
X11285Y18510
X11285Y18010
X10785Y18010
X10785Y18510
X10785Y19010
X10785Y19510
X10785Y20010
X10785Y20510
X10285Y20510
X10285Y20010
X10285Y19510
X9785Y19510
X9285Y19510
X9285Y20010
X9785Y20010
X9785Y20510
X9285Y20510
X8785Y20510
X8785Y20010
X8785Y20010
X8785Y19510
X8785Y19010
X8785Y18510
X8785Y18010
X8285Y18010
X8285Y18510
X8285Y19010
X8285Y19510
X8285Y20010
X8285Y20510
X19325Y9650
X19325Y9150
X19325Y8650
X19325Y8150
X19325Y7650
X19825Y7650
X19825Y8150
X19825Y8650
X19825Y9150
X19825Y9650
X20325Y8150
X20825Y8150
X20825Y7650
X20325Y7650
X21325Y7650
X21325Y8150
X21825Y8150
X21825Y7650
X21825Y7650
X22325Y7650
X22325Y8150
X22325Y8650
X22325Y9150
X22325Y9650
X21825Y9650
X21825Y9150
X21825Y8650
X21825Y7150
X21325Y7150
X20825Y7150
X20325Y7150
X19825Y7150
X19325Y7150
X22325Y7150
X24050Y7150
X24550Y7150
X25050Y7150
X25550Y7150
X26050Y7150
X26050Y7650
X26050Y8150
X26050Y8650
X24050Y8650
X24050Y8150
X24050Y7650
X35390Y7480
X35390Y6980
X35890Y6980
X35890Y7480
X35890Y7980
X35890Y8480
X35890Y8980
X35890Y9480
X35390Y9480
X35390Y8980
X35390Y8480
X35390Y7980
X36390Y7980
X36390Y7480
X36390Y6980
X36890Y6980
X37390Y6980
X37390Y7480
X36890Y7480
X36890Y7980
X37390Y7980
X37890Y7980
X37890Y7480
X37890Y6980
X38390Y6980
X38390Y7480
X38390Y7980
X38390Y8480
X38390Y8980
X38390Y9480
X37890Y9480
X37890Y8980
X37890Y8480
X40050Y8650
X40050Y8150
X40050Y7650
X40050Y7150
X40550Y7150
X41050Y7150
X41550Y7150
X42050Y7150
X42050Y7650
X42050Y8150
X42050Y8650
X44550Y8400
X44550Y7900
X44550Y7400
X44550Y6900
X45050Y6900
X45050Y7400
X45050Y7900
X45050Y8400
X45050Y8900
X45050Y9400
X44550Y9400
X44550Y8900
X45550Y7900
X46050Y7900
X46050Y7400
X45550Y7400
X45550Y6900
X46050Y6900
X46550Y6900
X46550Y7400
X46550Y7900
X47050Y7900
X47050Y7400
X47050Y6900
X47550Y6900
X47550Y7400
X47550Y7900
X47550Y8400
X47550Y8900
X47550Y9400
X47050Y9400
X47050Y8900
X47050Y8400
T03
X27500Y21275
X25600Y21275
X20150Y14840
X18750Y14840
X14240Y18900
X14240Y20300
X12750Y22400
X10850Y22400
X10660Y9780
X10660Y8380
X15840Y3556
X15840Y2156
T04
X52550Y17400
X52550Y18400
X52550Y19400
X52550Y20400
X52550Y21400
X52550Y22400
X52550Y23400
X53550Y23400
X53550Y22400
X53550Y21400
X53550Y20400
X53550Y19400
X53550Y18400
X53550Y17400
X53550Y24400
X53550Y25400
X53550Y26400
X53550Y27400
X53550Y28400
X53550Y29400
X52550Y29400
X52550Y28400
X52550Y27400
X52550Y26400
X52550Y25400
X52550Y24400
X13980Y35650
X13980Y38650
T05
X6654Y26892
X5867Y26892
X5867Y25908
X6654Y25908
T06
X10800Y30400
X10800Y31400
X10800Y32400
X11800Y32400
X11800Y31400
X11800Y30400
X18300Y25900
X18300Y24900
X18300Y23900
X19300Y23900
X19300Y24900
X19300Y25900
X19300Y20900
X19300Y19900
X19300Y18900
X18300Y18900
X18300Y19900
X18300Y20900
X30550Y15450
X31550Y15450
X31550Y12550
X30550Y12550
X33770Y12550
X34770Y12550
X37050Y12550
X38050Y12550
X40400Y12550
X41400Y12550
X41400Y15450
X40400Y15450
X42800Y20400
X42800Y21400
X42800Y22400
X43800Y22400
X44800Y22400
X44800Y21400
X43800Y21400
X43800Y20400
X44800Y20400
X45800Y20400
X45800Y21400
X45800Y22400
X46800Y22400
X47800Y22400
X47800Y21400
X46800Y21400
X46800Y20400
X47800Y20400
X48800Y20400
X48800Y21400
X48800Y22400
X49800Y22400
X49800Y21400
X49800Y20400
X50050Y16650
X49050Y16650
X48050Y16650
X47050Y16650
X47050Y14400
X48050Y14400
X49050Y14400
X50050Y14400
X55300Y11400
X56300Y11400
X57300Y11400
X58300Y11400
X54925Y7775
X48550Y29250
X47550Y29250
X46550Y29250
X45550Y29250
X41550Y34880
X41550Y35880
X41550Y36880
X41550Y37880
X41550Y38880
X41550Y39880
X41550Y40880
X41550Y41880
X45290Y41930
X45290Y40930
X45290Y39930
X45290Y38930
X45290Y37930
X45290Y36930
X45290Y35930
X45290Y34930
X50290Y34930
X50290Y35930
X50290Y36930
X50290Y37930
X50290Y38930
X50290Y39930
X50290Y40930
X50290Y41930
X53800Y41900
X53800Y40900
X53800Y39900
X53800Y38900
X53800Y37900
X53800Y36900
X53800Y35900
X53800Y34900
X58800Y34900
X58800Y35900
X58800Y36900
X58800Y37900
X58800Y38900
X58800Y39900
X58800Y40900
X58800Y41900
X36550Y41880
X36550Y40880
X36550Y39880
X36550Y38880
X36550Y37880
X36550Y36880
X36550Y35880
X36550Y34880
X32650Y34910
X32650Y35910
X32650Y36910
X32650Y37910
X32650Y38910
X32650Y39910
X32650Y40910
X32650Y41910
X27650Y41910
X27650Y40910
X27650Y39910
X27650Y38910
X27650Y37910
X27650Y36910
X27650Y35910
X27650Y34910
X24120Y34890
X24120Y35890
X24120Y36890
X24120Y37890
X24120Y38890
X24120Y39890
X24120Y40890
X24120Y41890
X19120Y41890
X19120Y40890
X19120Y39890
X19120Y38890
X19120Y37890
X19120Y36890
X19120Y35890
X19120Y34890
X16930Y42690
X5590Y37980
X3810Y37980
X3810Y35420
X5590Y35420
T07
X56425Y7775
T08
X57240Y3670
X59240Y3670
X52830Y3670
X50830Y3670
X46860Y3670
X44860Y3670
X41260Y3670
X39260Y3670
X37260Y3670
X35260Y3670
X31500Y3670
X29500Y3670
X26000Y3670
X24000Y3670
X22000Y3670
X20000Y3670
X14110Y44930
X12110Y44930
X10110Y44930
X8110Y44930
T09
X19281Y44890
X20840Y44890
X22400Y44890
X23959Y44890
X27811Y44910
X29370Y44910
X30930Y44910
X32489Y44910
X36711Y44880
X38270Y44880
X39830Y44880
X41389Y44880
X45451Y44930
X47010Y44930
X48570Y44930
X50129Y44930
X53961Y44900
X55520Y44900
X57080Y44900
X58639Y44900
T10
X7287Y8816
X7287Y6179
X7287Y3580
X4800Y24038
X4800Y28762
T11
X3197Y3741
X3197Y8659
T12
X5003Y14190
X6184Y16040
X3821Y16040
T13
X12570Y4041
X22050Y23200
X4425Y45025
X56589Y29900
X58914Y7316
M30
