G75*
G70*
%OFA0B0*%
%FSLAX24Y24*%
%IPPOS*%
%LPD*%
%AMOC8*
5,1,8,0,0,1.08239X$1,22.5*
%
%ADD10OC8,0.0680*%
%ADD11C,0.1655*%
%ADD12C,0.0720*%
%ADD13OC8,0.0710*%
%ADD14C,0.0710*%
%ADD15OC8,0.0720*%
%ADD16OC8,0.0930*%
%ADD17C,0.0640*%
%ADD18OC8,0.0694*%
%ADD19C,0.1346*%
%ADD20C,0.0905*%
%ADD21R,0.0720X0.0720*%
%ADD22C,0.0720*%
%ADD23C,0.1084*%
%ADD24C,0.0434*%
%ADD25R,0.1084X0.1084*%
%ADD26C,0.1084*%
%ADD27C,0.1580*%
D10*
X057816Y032760D03*
X058816Y032760D03*
X058816Y033760D03*
X057816Y033760D03*
X057816Y034760D03*
X058816Y034760D03*
X058816Y035760D03*
X057816Y035760D03*
X057816Y036760D03*
X058816Y036760D03*
X058816Y037760D03*
X057816Y037760D03*
X057816Y038760D03*
X058816Y038760D03*
X058816Y039760D03*
X057816Y039760D03*
X057816Y040760D03*
X058816Y040760D03*
X058816Y041760D03*
X057816Y041760D03*
X057816Y042760D03*
X058816Y042760D03*
X058816Y043760D03*
X057816Y043760D03*
X057816Y044760D03*
X058816Y044760D03*
D11*
X057095Y029100D03*
X053020Y007756D03*
X022516Y023200D03*
X005396Y011821D03*
X004891Y045025D03*
D12*
X004676Y034590D02*
X005316Y034590D01*
X005316Y032810D02*
X004676Y032810D01*
X002756Y032810D02*
X002116Y032810D01*
X002116Y034590D02*
X002756Y034590D01*
X023696Y016650D02*
X024336Y016650D01*
X024336Y015650D02*
X023696Y015650D01*
X023696Y014650D02*
X024336Y014650D01*
X024336Y013650D02*
X023696Y013650D01*
X027196Y013650D02*
X027836Y013650D01*
X027836Y014650D02*
X027196Y014650D01*
X027196Y015650D02*
X027836Y015650D01*
X027836Y016650D02*
X027196Y016650D01*
X030696Y016650D02*
X031336Y016650D01*
X031336Y015650D02*
X030696Y015650D01*
X030696Y014650D02*
X031336Y014650D01*
X031336Y013650D02*
X030696Y013650D01*
X034196Y013650D02*
X034836Y013650D01*
X034836Y014650D02*
X034196Y014650D01*
X034196Y015650D02*
X034836Y015650D01*
X034836Y016650D02*
X034196Y016650D01*
X037696Y016650D02*
X038336Y016650D01*
X038336Y015650D02*
X037696Y015650D01*
X037696Y014650D02*
X038336Y014650D01*
X038336Y013650D02*
X037696Y013650D01*
X041196Y013650D02*
X041836Y013650D01*
X041836Y014650D02*
X041196Y014650D01*
X041196Y015650D02*
X041836Y015650D01*
X041836Y016650D02*
X041196Y016650D01*
X047396Y017280D02*
X047396Y017920D01*
X048396Y017920D02*
X048396Y017280D01*
X049396Y017280D02*
X049396Y017920D01*
X050396Y017920D02*
X050396Y017280D01*
X050396Y019530D02*
X050396Y020170D01*
X049396Y020170D02*
X049396Y019530D01*
X048396Y019530D02*
X048396Y020170D01*
X047396Y020170D02*
X047396Y019530D01*
X046966Y004440D02*
X046966Y003800D01*
X047966Y003800D02*
X047966Y004440D01*
X048966Y004440D02*
X048966Y003800D01*
X049966Y003800D02*
X049966Y004440D01*
X051176Y036010D02*
X051176Y036650D01*
X052176Y036650D02*
X052176Y036010D01*
X053176Y036010D02*
X053176Y036650D01*
X054176Y036650D02*
X054176Y036010D01*
D13*
X053666Y016110D03*
X052636Y011350D03*
X052786Y004790D03*
D14*
X052786Y003390D03*
X054036Y011350D03*
X053666Y017510D03*
D15*
X049716Y014150D03*
X048716Y014150D03*
X047716Y014150D03*
X043351Y003215D03*
X019766Y019650D03*
X018766Y019650D03*
X018766Y020650D03*
X019766Y020650D03*
X019766Y021650D03*
X018766Y021650D03*
X018766Y024540D03*
X019766Y024540D03*
X019766Y025540D03*
X018766Y025540D03*
X018766Y026540D03*
X019766Y026540D03*
X004746Y036840D03*
X003746Y036840D03*
X003746Y037840D03*
X004746Y037840D03*
X004746Y038840D03*
X003746Y038840D03*
X005176Y041800D03*
X046586Y041640D03*
X047586Y041640D03*
X047586Y042640D03*
X046586Y042640D03*
X046586Y043640D03*
X047586Y043640D03*
X048586Y043640D03*
X048586Y042640D03*
X048586Y041640D03*
X049586Y041640D03*
X050586Y041640D03*
X050586Y042640D03*
X049586Y042640D03*
X049586Y043640D03*
X050586Y043640D03*
X051586Y043640D03*
X052586Y043640D03*
X052586Y042640D03*
X051586Y042640D03*
X051586Y041640D03*
X052586Y041640D03*
X053586Y041640D03*
X053586Y042640D03*
X053586Y043640D03*
D16*
X024956Y029030D03*
X021956Y029030D03*
D17*
X013216Y022400D03*
X011316Y022400D03*
X026066Y021275D03*
X027966Y021275D03*
D18*
X006000Y025868D03*
X005213Y025868D03*
X005213Y026852D03*
X006000Y026852D03*
D19*
X004146Y028722D03*
X004146Y023998D03*
D20*
X003706Y004403D02*
X003706Y003578D01*
X005706Y003578D02*
X005706Y004403D01*
X009246Y004403D02*
X009246Y003578D01*
X011246Y003578D02*
X011246Y004403D01*
X013246Y004403D02*
X013246Y003578D01*
X015246Y003578D02*
X015246Y004403D01*
X018586Y004403D02*
X018586Y003578D01*
X020586Y003578D02*
X020586Y004403D01*
X024146Y004403D02*
X024146Y003578D01*
X026146Y003578D02*
X026146Y004403D01*
X029406Y004403D02*
X029406Y003578D01*
X031406Y003578D02*
X031406Y004403D01*
X033406Y004403D02*
X033406Y003578D01*
X035406Y003578D02*
X035406Y004403D01*
X038726Y004403D02*
X038726Y003578D01*
X040726Y003578D02*
X040726Y004403D01*
X055254Y021030D02*
X056079Y021030D01*
X056079Y023030D02*
X055254Y023030D01*
X053366Y026158D02*
X053366Y026983D01*
X051366Y026983D02*
X051366Y026158D01*
X018686Y015103D02*
X018686Y014278D01*
X016686Y014278D02*
X016686Y015103D01*
D21*
X013586Y041980D03*
X020586Y041980D03*
X027586Y041980D03*
X034586Y041980D03*
X041586Y041980D03*
D22*
X041586Y040980D03*
X041586Y039980D03*
X041586Y038980D03*
X041586Y037980D03*
X041586Y036980D03*
X041586Y035980D03*
X041586Y034980D03*
X036586Y034980D03*
X036586Y035980D03*
X036586Y036980D03*
X036586Y037980D03*
X036586Y038980D03*
X036586Y039980D03*
X036586Y040980D03*
X036586Y041980D03*
X034586Y040980D03*
X034586Y039980D03*
X034586Y038980D03*
X034586Y037980D03*
X034586Y036980D03*
X034586Y035980D03*
X034586Y034980D03*
X029586Y034980D03*
X029586Y035980D03*
X029586Y036980D03*
X029586Y037980D03*
X029586Y038980D03*
X029586Y039980D03*
X029586Y040980D03*
X029586Y041980D03*
X027586Y040980D03*
X027586Y039980D03*
X027586Y038980D03*
X027586Y037980D03*
X027586Y036980D03*
X027586Y035980D03*
X027586Y034980D03*
X022586Y034980D03*
X022586Y035980D03*
X022586Y036980D03*
X022586Y037980D03*
X022586Y038980D03*
X022586Y039980D03*
X022586Y040980D03*
X022586Y041980D03*
X020586Y040980D03*
X020586Y039980D03*
X020586Y038980D03*
X020586Y037980D03*
X020586Y036980D03*
X020586Y035980D03*
X020586Y034980D03*
X015586Y034980D03*
X015586Y035980D03*
X015586Y036980D03*
X015586Y037980D03*
X015586Y038980D03*
X015586Y039980D03*
X015586Y040980D03*
X015586Y041980D03*
X013586Y040980D03*
X013586Y039980D03*
X013586Y038980D03*
X013586Y037980D03*
X013586Y036980D03*
X013586Y035980D03*
X013586Y034980D03*
X008586Y034980D03*
X008586Y035980D03*
X008586Y036980D03*
X008586Y037980D03*
X008586Y038980D03*
X008586Y039980D03*
X008586Y040980D03*
X008586Y041980D03*
D23*
X008747Y044478D02*
X008747Y045482D01*
X010307Y045482D02*
X010307Y044478D01*
X011866Y044478D02*
X011866Y045482D01*
X013425Y045482D02*
X013425Y044478D01*
X015747Y044478D02*
X015747Y045482D01*
X017307Y045482D02*
X017307Y044478D01*
X018866Y044478D02*
X018866Y045482D01*
X020425Y045482D02*
X020425Y044478D01*
X022747Y044478D02*
X022747Y045482D01*
X024307Y045482D02*
X024307Y044478D01*
X025866Y044478D02*
X025866Y045482D01*
X027425Y045482D02*
X027425Y044478D01*
X029747Y044478D02*
X029747Y045482D01*
X031307Y045482D02*
X031307Y044478D01*
X032866Y044478D02*
X032866Y045482D01*
X034425Y045482D02*
X034425Y044478D01*
X036747Y044478D02*
X036747Y045482D01*
X038307Y045482D02*
X038307Y044478D01*
X039866Y044478D02*
X039866Y045482D01*
X041425Y045482D02*
X041425Y044478D01*
D24*
X003146Y026860D03*
X002146Y026860D03*
X002146Y025860D03*
X003146Y025860D03*
D25*
X058486Y018446D03*
D26*
X058486Y016780D03*
X056366Y016780D03*
X056366Y018446D03*
X056366Y015115D03*
X056366Y013450D03*
X058486Y013450D03*
X058486Y015115D03*
X058486Y011784D03*
X058486Y010076D03*
X056366Y010076D03*
X056366Y011784D03*
X056366Y008410D03*
X056366Y006745D03*
X058486Y006745D03*
X058486Y008410D03*
X058486Y005080D03*
X058486Y003414D03*
X056366Y003414D03*
X056366Y005080D03*
D27*
X060266Y001750D03*
X060266Y010295D03*
M02*
