%
M48
M72
T01C0.0200
T02C0.0236
T03C0.0320
T04C0.0360
T05C0.0374
T06C0.0400
T07C0.0500
T08C0.0550
T09C0.0669
T10C0.0866
T11C0.1575
%
T01
X13376Y7970
X13366Y8810
X13326Y9540
X15086Y10920
X16066Y11000
X16856Y10400
X13836Y11450
X14366Y14340
X13576Y14920
X12226Y14880
X10766Y14340
X9826Y14630
X8966Y12980
X9795Y11590
X8546Y10910
X7796Y10770
X6591Y17125
X7951Y20445
X8266Y22400
X7096Y22290
X5931Y22330
X3266Y23145
X3146Y24860
X2646Y25860
X3646Y27610
X4896Y27610
X5896Y27860
X4146Y28735
X2121Y30150
X2121Y31810
X7766Y29525
X9641Y29900
X10416Y28500
X10891Y28150
X11766Y28400
X11766Y29150
X12516Y29150
X13016Y27900
X13766Y26900
X14266Y27400
X14141Y26275
X14141Y25775
X14266Y24400
X14016Y23650
X14926Y23235
X16566Y24400
X20136Y23250
X16566Y21450
X14931Y20510
X16806Y20050
X18766Y17850
X20576Y13840
X20746Y11530
X26266Y12275
X27416Y12130
X31886Y11060
X32476Y10330
X32456Y9570
X34146Y10610
X33966Y11850
X36416Y10210
X36526Y9010
X36496Y8100
X37896Y8310
X37896Y7810
X37896Y7310
X38396Y7310
X38396Y7810
X38396Y8310
X38396Y8810
X37896Y8810
X37896Y9310
X37896Y9810
X38396Y9810
X38396Y9310
X38896Y8310
X38896Y7810
X38896Y7310
X39396Y7310
X39396Y7810
X39396Y8310
X39896Y8310
X39896Y7810
X39896Y7310
X40396Y7310
X40396Y7810
X40396Y8310
X40396Y8810
X40396Y9310
X40396Y9810
X40896Y9810
X40896Y9310
X40896Y8810
X40896Y8310
X40896Y7810
X40896Y7310
X42966Y8160
X43966Y8120
X45466Y8120
X46466Y7620
X47466Y5620
X48966Y5620
X50611Y5665
X45216Y4870
X45366Y3240
X42841Y4495
X45466Y9695
X46361Y10550
X44606Y13650
X40896Y10810
X39766Y16900
X36766Y19900
X35766Y20150
X35786Y21490
X37566Y22375
X38756Y22255
X40396Y23275
X41156Y22675
X44406Y24140
X48126Y23750
X48046Y25110
X48096Y22350
X45866Y20550
X39666Y27310
X42606Y28320
X43006Y27760
X40316Y29720
X38646Y31870
X36216Y30340
X36376Y29520
X36016Y28400
X35106Y26770
X35436Y26200
X35006Y25320
X34306Y25060
X34296Y25860
X32616Y26150
X31766Y25400
X31391Y25025
X31766Y24650
X31391Y24275
X31766Y23900
X31891Y23400
X33516Y22900
X31016Y20650
X30516Y20900
X30266Y21400
X28516Y22150
X27216Y22120
X27391Y20650
X26641Y20650
X27016Y19900
X26481Y18985
X25596Y19030
X25766Y18150
X25016Y18150
X25016Y17500
X25766Y17150
X26636Y17310
X28311Y17270
X29296Y17140
X29516Y18400
X32056Y17950
X33766Y18650
X35186Y18450
X27416Y24600
X26516Y25150
X26516Y25900
X27516Y25900
X28266Y25400
X26676Y26900
X27766Y29150
X30766Y26650
X31516Y26150
X31016Y25800
X31516Y27400
X32476Y27440
X34231Y28955
X34306Y29510
X34066Y30430
X32946Y31350
X32136Y34830
X31836Y35480
X31086Y36480
X28836Y35480
X28336Y36480
X28336Y38230
X28836Y38480
X30336Y39480
X30836Y38980
X35336Y38230
X35836Y38480
X37336Y39480
X37836Y38980
X38086Y36480
X38836Y35480
X39136Y34830
X35836Y35480
X35336Y36480
X25136Y34830
X24836Y35480
X24086Y36480
X21836Y35480
X21336Y36480
X21336Y38230
X21836Y38480
X23336Y39480
X23836Y38980
X18136Y34830
X17836Y35480
X17086Y36480
X14836Y35480
X14336Y36480
X14336Y38230
X14836Y38480
X16336Y39480
X16836Y38980
X10836Y35480
X11136Y34830
X10086Y36480
X9836Y38980
X9336Y39480
X6816Y42820
X5516Y42775
X4266Y42775
X11856Y30310
X9641Y27900
X9641Y26400
X10391Y25400
X10016Y24525
X7766Y24400
X3181Y20685
X10391Y20485
X12671Y20405
X22526Y27300
X20941Y28640
X15016Y28900
X47626Y31285
X47626Y32035
X47626Y32785
X47626Y33535
X48376Y33785
X48376Y33035
X49376Y33160
X49376Y32660
X49376Y33660
X49376Y34160
X49876Y34160
X49876Y33660
X50376Y33660
X50376Y34160
X50876Y34160
X50876Y33660
X51376Y33660
X51376Y34160
X51876Y34160
X51876Y33660
X52376Y33660
X52376Y34160
X50876Y32160
X50876Y31660
X50876Y31160
X50876Y29660
X50376Y29660
X49876Y29660
X49376Y29660
X49376Y29160
X49876Y29160
X50376Y29160
X50876Y29160
X51376Y29160
X51376Y29660
X51876Y29660
X51876Y29160
X52376Y29160
X52376Y29660
X49376Y30160
X49376Y30660
X47826Y36245
X48856Y36695
X52166Y39780
X56566Y25060
X57876Y24250
X51991Y9645
X54671Y9365
T02
X35276Y8850
X35276Y8350
X35276Y7850
X35276Y7350
X34776Y7350
X34276Y7350
X33776Y7350
X33276Y7350
X33276Y7850
X33276Y8350
X33276Y8850
X31526Y8850
X31026Y8850
X31026Y8350
X30526Y8350
X30026Y8350
X29526Y8350
X29026Y8350
X28526Y8350
X28526Y7850
X28526Y7350
X29026Y7350
X29026Y7850
X29526Y7850
X29526Y7350
X30026Y7350
X30026Y7850
X30526Y7850
X30526Y7350
X31026Y7350
X31026Y7850
X31526Y7850
X31526Y7350
X31526Y8350
X31526Y9350
X31026Y9350
X31026Y9850
X31526Y9850
X29026Y9850
X28526Y9850
X28526Y9350
X28526Y8850
X29026Y8850
X29026Y9350
X21031Y9470
X20531Y9470
X20531Y8970
X20531Y8470
X20031Y8470
X19531Y8470
X19031Y8470
X18531Y8470
X18031Y8470
X18031Y7970
X18031Y7470
X18531Y7470
X18531Y7970
X19031Y7970
X19031Y7470
X19531Y7470
X19531Y7970
X20031Y7970
X20031Y7470
X20531Y7470
X20531Y7970
X20531Y7970
X21031Y7970
X21031Y7470
X21031Y8470
X21031Y8970
X21031Y9970
X20531Y9970
X18531Y9970
X18031Y9970
X18031Y9470
X18031Y8970
X18531Y8970
X18531Y9470
X16276Y8970
X16276Y8470
X16276Y7970
X16276Y7470
X15776Y7470
X15276Y7470
X14776Y7470
X14276Y7470
X14276Y7970
X14276Y8470
X14276Y8970
X12551Y8970
X12051Y8970
X12051Y8470
X11551Y8470
X11051Y8470
X10551Y8470
X10051Y8470
X9551Y8470
X9551Y7970
X9551Y7470
X10051Y7470
X10051Y7970
X10551Y7970
X10551Y7470
X11051Y7470
X11051Y7970
X11551Y7970
X11551Y7470
X12051Y7470
X12051Y7970
X12051Y7970
X12551Y7970
X12551Y7470
X12551Y8470
X12551Y9470
X12051Y9470
X12051Y9970
X12551Y9970
X10051Y9970
X9551Y9970
X9551Y9470
X9551Y8970
X10051Y8970
X10051Y9470
X49876Y30160
X49876Y30660
X50376Y30660
X50376Y30160
X50876Y30160
X50876Y30660
X51376Y30660
X51376Y30160
X51876Y30160
X51876Y30660
X51876Y31160
X51376Y31160
X51376Y31660
X51376Y32160
X51376Y32660
X50876Y32660
X50376Y32660
X49876Y32660
X49876Y33160
X50376Y33160
X50876Y33160
X51376Y33160
X51876Y33160
X51876Y32660
X51876Y32160
X51876Y31660
X52376Y31660
X52376Y31160
X52376Y30660
X52376Y30160
X52376Y32160
X52376Y32660
X52376Y33160
T03
X53666Y17510
X53666Y16110
X54036Y11350
X52636Y11350
X52786Y4790
X52786Y3390
X27966Y21275
X26066Y21275
X13216Y22400
X11316Y22400
T04
X21956Y29030
X24956Y29030
X57816Y32760
X58816Y32760
X58816Y33760
X57816Y33760
X57816Y34760
X58816Y34760
X58816Y35760
X57816Y35760
X57816Y36760
X58816Y36760
X58816Y37760
X57816Y37760
X57816Y38760
X58816Y38760
X58816Y39760
X57816Y39760
X57816Y40760
X58816Y40760
X58816Y41760
X57816Y41760
X57816Y42760
X58816Y42760
X58816Y43760
X57816Y43760
X57816Y44760
X58816Y44760
T05
X6000Y26852
X5213Y26852
X5213Y25868
X6000Y25868
T06
X4996Y32810
X4996Y34590
X4746Y36840
X3746Y36840
X3746Y37840
X4746Y37840
X4746Y38840
X3746Y38840
X5176Y41800
X8586Y41980
X8586Y40980
X8586Y39980
X8586Y38980
X8586Y37980
X8586Y36980
X8586Y35980
X8586Y34980
X13586Y34980
X13586Y35980
X13586Y36980
X13586Y37980
X13586Y38980
X13586Y39980
X13586Y40980
X13586Y41980
X15586Y41980
X15586Y40980
X15586Y39980
X15586Y38980
X15586Y37980
X15586Y36980
X15586Y35980
X15586Y34980
X20586Y34980
X20586Y35980
X20586Y36980
X20586Y37980
X20586Y38980
X20586Y39980
X20586Y40980
X20586Y41980
X22586Y41980
X22586Y40980
X22586Y39980
X22586Y38980
X22586Y37980
X22586Y36980
X22586Y35980
X22586Y34980
X27586Y34980
X27586Y35980
X27586Y36980
X27586Y37980
X27586Y38980
X27586Y39980
X27586Y40980
X27586Y41980
X29586Y41980
X29586Y40980
X29586Y39980
X29586Y38980
X29586Y37980
X29586Y36980
X29586Y35980
X29586Y34980
X34586Y34980
X34586Y35980
X34586Y36980
X34586Y37980
X34586Y38980
X34586Y39980
X34586Y40980
X34586Y41980
X36586Y41980
X36586Y40980
X36586Y39980
X36586Y38980
X36586Y37980
X36586Y36980
X36586Y35980
X36586Y34980
X41586Y34980
X41586Y35980
X41586Y36980
X41586Y37980
X41586Y38980
X41586Y39980
X41586Y40980
X41586Y41980
X46586Y41640
X47586Y41640
X47586Y42640
X46586Y42640
X46586Y43640
X47586Y43640
X48586Y43640
X48586Y42640
X48586Y41640
X49586Y41640
X50586Y41640
X50586Y42640
X49586Y42640
X49586Y43640
X50586Y43640
X51586Y43640
X52586Y43640
X52586Y42640
X51586Y42640
X51586Y41640
X52586Y41640
X53586Y41640
X53586Y42640
X53586Y43640
X53176Y36330
X52176Y36330
X51176Y36330
X54176Y36330
X50396Y19850
X49396Y19850
X48396Y19850
X47396Y19850
X47396Y17600
X48396Y17600
X49396Y17600
X50396Y17600
X49716Y14150
X48716Y14150
X47716Y14150
X41516Y13650
X41516Y14650
X41516Y15650
X41516Y16650
X38016Y16650
X38016Y15650
X38016Y14650
X38016Y13650
X34516Y13650
X34516Y14650
X34516Y15650
X34516Y16650
X31016Y16650
X31016Y15650
X31016Y14650
X31016Y13650
X27516Y13650
X27516Y14650
X27516Y15650
X27516Y16650
X24016Y16650
X24016Y15650
X24016Y14650
X24016Y13650
X19766Y19650
X18766Y19650
X18766Y20650
X19766Y20650
X19766Y21650
X18766Y21650
X18766Y24540
X19766Y24540
X19766Y25540
X18766Y25540
X18766Y26540
X19766Y26540
X2436Y32810
X2436Y34590
X43351Y3215
X46966Y4120
X47966Y4120
X48966Y4120
X49966Y4120
T07
X60266Y1750
X60266Y10295
T08
X3706Y3990
X5706Y3990
X9246Y3990
X11246Y3990
X13246Y3990
X15246Y3990
X18586Y3990
X20586Y3990
X24146Y3990
X26146Y3990
X29406Y3990
X31406Y3990
X33406Y3990
X35406Y3990
X38726Y3990
X40726Y3990
X55666Y21030
X55666Y23030
X53366Y26570
X51366Y26570
X18686Y14690
X16686Y14690
T09
X17307Y44980
X15747Y44980
X13425Y44980
X11866Y44980
X10307Y44980
X8747Y44980
X18866Y44980
X20425Y44980
X22747Y44980
X24307Y44980
X25866Y44980
X27425Y44980
X29747Y44980
X31307Y44980
X32866Y44980
X34425Y44980
X36747Y44980
X38307Y44980
X39866Y44980
X41425Y44980
X56366Y18446
X56366Y16780
X58486Y16780
X58486Y18446
X58486Y15115
X58486Y13450
X56366Y13450
X56366Y15115
X56366Y11784
X56366Y10076
X58486Y10076
X58486Y11784
X58486Y8410
X58486Y6745
X56366Y6745
X56366Y8410
X56366Y5080
X56366Y3414
X58486Y3414
X58486Y5080
T10
X4146Y23998
X4146Y28722
T11
X22516Y23200
X5396Y11821
X4891Y45025
X53020Y7756
X57095Y29100
M30
