G75*
G70*
%OFA0B0*%
%FSLAX24Y24*%
%IPPOS*%
%LPD*%
%AMOC8*
5,1,8,0,0,1.08239X$1,22.5*
%
%ADD10R,0.0552X0.0395*%
%ADD11OC8,0.0680*%
%ADD12C,0.1655*%
%ADD13C,0.0720*%
%ADD14C,0.0434*%
%ADD15R,0.0395X0.0552*%
%ADD16R,0.0356X0.0631*%
%ADD17R,0.2049X0.1773*%
%ADD18R,0.0631X0.0356*%
%ADD19R,0.1773X0.2049*%
%ADD20OC8,0.0710*%
%ADD21C,0.0710*%
%ADD22OC8,0.0720*%
%ADD23OC8,0.0930*%
%ADD24R,0.0671X0.0218*%
%ADD25R,0.0218X0.0671*%
%ADD26C,0.0197*%
%ADD27C,0.0040*%
%ADD28R,0.0552X0.0474*%
%ADD29R,0.0474X0.0474*%
%ADD30C,0.0640*%
%ADD31OC8,0.0694*%
%ADD32C,0.1346*%
%ADD33R,0.0277X0.1020*%
%ADD34R,0.0828X0.0671*%
%ADD35C,0.0905*%
%ADD36R,0.0720X0.0720*%
%ADD37C,0.0720*%
%ADD38C,0.1084*%
%ADD39R,0.0218X0.0395*%
%ADD40R,0.0907X0.1182*%
%ADD41R,0.0356X0.0198*%
%ADD42R,0.0474X0.0631*%
%ADD43R,0.0375X0.0237*%
%ADD44R,0.1084X0.1084*%
%ADD45C,0.1084*%
%ADD46C,0.1580*%
D10*
X002206Y006616D03*
X002966Y006581D03*
X002966Y007289D03*
X002206Y007324D03*
X003006Y008976D03*
X003006Y009684D03*
X008526Y009384D03*
X008526Y008676D03*
X010766Y012586D03*
X010766Y013294D03*
X011886Y013294D03*
X011886Y012586D03*
X013786Y010764D03*
X013786Y010056D03*
X014966Y012526D03*
X014966Y013234D03*
X022326Y011014D03*
X022326Y010306D03*
X022166Y006764D03*
X022166Y006056D03*
X023046Y006056D03*
X023046Y006764D03*
X027526Y009316D03*
X027526Y010024D03*
X042966Y007474D03*
X042966Y006766D03*
X042966Y006224D03*
X042966Y005516D03*
X043966Y005516D03*
X043966Y006224D03*
X043966Y006766D03*
X043966Y007474D03*
X045216Y007474D03*
X045216Y006766D03*
X045216Y006224D03*
X045216Y005516D03*
X047716Y009346D03*
X048716Y009346D03*
X048716Y010054D03*
X048716Y010946D03*
X047716Y010946D03*
X047716Y010054D03*
X047716Y011654D03*
X048716Y011654D03*
X049716Y011654D03*
X049716Y010946D03*
X049716Y010054D03*
X049716Y009346D03*
X045366Y012546D03*
X045366Y013254D03*
X044606Y013254D03*
X044606Y012546D03*
X051666Y016816D03*
X051666Y017524D03*
X047996Y029416D03*
X047996Y030124D03*
X053376Y030181D03*
X053376Y030889D03*
X053376Y031556D03*
X053376Y032264D03*
X049536Y035296D03*
X049536Y036004D03*
X049586Y038626D03*
X049586Y039334D03*
X049586Y039846D03*
X049586Y040554D03*
X048586Y040554D03*
X048586Y039846D03*
X048586Y039334D03*
X048586Y038626D03*
X047586Y038626D03*
X047586Y039334D03*
X047586Y039846D03*
X047586Y040554D03*
X040586Y041126D03*
X040586Y041834D03*
X039836Y041084D03*
X039836Y040376D03*
X039836Y039584D03*
X039836Y038876D03*
X038836Y038876D03*
X038836Y039584D03*
X038836Y040376D03*
X038836Y041084D03*
X037836Y041084D03*
X037836Y040376D03*
X039336Y037834D03*
X039336Y037126D03*
X040336Y037126D03*
X040336Y037834D03*
X033586Y041126D03*
X033586Y041834D03*
X032836Y041084D03*
X032836Y040376D03*
X032836Y039584D03*
X032836Y038876D03*
X031836Y038876D03*
X031836Y039584D03*
X031836Y040376D03*
X031836Y041084D03*
X030836Y041084D03*
X030836Y040376D03*
X032336Y037834D03*
X033336Y037834D03*
X033336Y037126D03*
X032336Y037126D03*
X026336Y037126D03*
X026336Y037834D03*
X025336Y037834D03*
X025336Y037126D03*
X024836Y038876D03*
X024836Y039584D03*
X025836Y039584D03*
X025836Y038876D03*
X025836Y040376D03*
X025836Y041084D03*
X026586Y041126D03*
X026586Y041834D03*
X024836Y041084D03*
X024836Y040376D03*
X023836Y040376D03*
X023836Y041084D03*
X019586Y041126D03*
X019586Y041834D03*
X018836Y041084D03*
X018836Y040376D03*
X018836Y039584D03*
X018836Y038876D03*
X017836Y038876D03*
X017836Y039584D03*
X017836Y040376D03*
X017836Y041084D03*
X016836Y041084D03*
X016836Y040376D03*
X018336Y037834D03*
X018336Y037126D03*
X019336Y037126D03*
X019336Y037834D03*
X012586Y041126D03*
X012586Y041834D03*
X011836Y041084D03*
X011836Y040376D03*
X011836Y039584D03*
X011836Y038876D03*
X010836Y038876D03*
X010836Y039584D03*
X010836Y040376D03*
X010836Y041084D03*
X009836Y041084D03*
X009836Y040376D03*
X011336Y037834D03*
X012336Y037834D03*
X012336Y037126D03*
X011336Y037126D03*
X003846Y031194D03*
X003846Y030486D03*
X002766Y030486D03*
X002766Y031194D03*
X010266Y029754D03*
X010266Y029046D03*
X010391Y027504D03*
X010391Y026796D03*
X002266Y022754D03*
X002266Y022046D03*
X002266Y020254D03*
X002266Y019546D03*
X002266Y042546D03*
X002266Y043254D03*
X002266Y044046D03*
X002266Y044754D03*
X054911Y004104D03*
X054911Y003396D03*
D11*
X057816Y032760D03*
X058816Y032760D03*
X058816Y033760D03*
X057816Y033760D03*
X057816Y034760D03*
X058816Y034760D03*
X058816Y035760D03*
X057816Y035760D03*
X057816Y036760D03*
X058816Y036760D03*
X058816Y037760D03*
X057816Y037760D03*
X057816Y038760D03*
X058816Y038760D03*
X058816Y039760D03*
X057816Y039760D03*
X057816Y040760D03*
X058816Y040760D03*
X058816Y041760D03*
X057816Y041760D03*
X057816Y042760D03*
X058816Y042760D03*
X058816Y043760D03*
X057816Y043760D03*
X057816Y044760D03*
X058816Y044760D03*
D12*
X057095Y029100D03*
X053020Y007756D03*
X022516Y023200D03*
X005396Y011821D03*
X004891Y045025D03*
D13*
X004676Y034590D02*
X005316Y034590D01*
X005316Y032810D02*
X004676Y032810D01*
X002756Y032810D02*
X002116Y032810D01*
X002116Y034590D02*
X002756Y034590D01*
X023696Y016650D02*
X024336Y016650D01*
X024336Y015650D02*
X023696Y015650D01*
X023696Y014650D02*
X024336Y014650D01*
X024336Y013650D02*
X023696Y013650D01*
X027196Y013650D02*
X027836Y013650D01*
X027836Y014650D02*
X027196Y014650D01*
X027196Y015650D02*
X027836Y015650D01*
X027836Y016650D02*
X027196Y016650D01*
X030696Y016650D02*
X031336Y016650D01*
X031336Y015650D02*
X030696Y015650D01*
X030696Y014650D02*
X031336Y014650D01*
X031336Y013650D02*
X030696Y013650D01*
X034196Y013650D02*
X034836Y013650D01*
X034836Y014650D02*
X034196Y014650D01*
X034196Y015650D02*
X034836Y015650D01*
X034836Y016650D02*
X034196Y016650D01*
X037696Y016650D02*
X038336Y016650D01*
X038336Y015650D02*
X037696Y015650D01*
X037696Y014650D02*
X038336Y014650D01*
X038336Y013650D02*
X037696Y013650D01*
X041196Y013650D02*
X041836Y013650D01*
X041836Y014650D02*
X041196Y014650D01*
X041196Y015650D02*
X041836Y015650D01*
X041836Y016650D02*
X041196Y016650D01*
X047396Y017280D02*
X047396Y017920D01*
X048396Y017920D02*
X048396Y017280D01*
X049396Y017280D02*
X049396Y017920D01*
X050396Y017920D02*
X050396Y017280D01*
X050396Y019530D02*
X050396Y020170D01*
X049396Y020170D02*
X049396Y019530D01*
X048396Y019530D02*
X048396Y020170D01*
X047396Y020170D02*
X047396Y019530D01*
X046966Y004440D02*
X046966Y003800D01*
X047966Y003800D02*
X047966Y004440D01*
X048966Y004440D02*
X048966Y003800D01*
X049966Y003800D02*
X049966Y004440D01*
X051176Y036010D02*
X051176Y036650D01*
X052176Y036650D02*
X052176Y036010D01*
X053176Y036010D02*
X053176Y036650D01*
X054176Y036650D02*
X054176Y036010D01*
D14*
X048516Y036040D03*
X040336Y033480D03*
X040336Y032980D03*
X036586Y032980D03*
X036586Y033480D03*
X036586Y033980D03*
X033336Y033480D03*
X029586Y033480D03*
X029586Y033980D03*
X029586Y032980D03*
X026336Y033480D03*
X022586Y033480D03*
X022586Y033980D03*
X022586Y032980D03*
X019336Y033480D03*
X015586Y033480D03*
X015586Y033980D03*
X015586Y032980D03*
X012336Y033480D03*
X008586Y033480D03*
X008586Y033980D03*
X008586Y032980D03*
X024016Y018170D03*
X027516Y018050D03*
X031016Y018050D03*
X034516Y018050D03*
X038016Y018050D03*
X041516Y018050D03*
X047716Y012650D03*
X048716Y012650D03*
X049716Y012650D03*
D15*
X053582Y014250D03*
X054290Y014250D03*
X040320Y006300D03*
X039612Y006300D03*
X038625Y006300D03*
X037917Y006300D03*
X034620Y006300D03*
X033912Y006300D03*
X033425Y006300D03*
X032717Y006300D03*
X030560Y006300D03*
X029852Y006300D03*
X029345Y006300D03*
X028637Y006300D03*
X028270Y010910D03*
X027562Y010910D03*
X028862Y011540D03*
X029570Y011540D03*
X032672Y010970D03*
X033380Y010970D03*
X037952Y011490D03*
X038660Y011490D03*
X028370Y019900D03*
X027662Y019900D03*
X026370Y019900D03*
X025662Y019900D03*
X029287Y020400D03*
X029995Y020400D03*
X028070Y026525D03*
X027362Y026525D03*
X028642Y029020D03*
X029350Y029020D03*
X029922Y029050D03*
X030630Y029050D03*
X035072Y029695D03*
X035780Y029695D03*
X039607Y028690D03*
X040315Y028690D03*
X040380Y025265D03*
X039672Y025265D03*
X039690Y033480D03*
X038982Y033480D03*
X032690Y033480D03*
X031982Y033480D03*
X025690Y033480D03*
X024982Y033480D03*
X018690Y033480D03*
X017982Y033480D03*
X011690Y033480D03*
X010982Y033480D03*
X007120Y029400D03*
X006412Y029400D03*
X008412Y027275D03*
X009120Y027275D03*
X009120Y025525D03*
X008412Y025525D03*
X011287Y024025D03*
X011995Y024025D03*
X012912Y024400D03*
X013620Y024400D03*
X014912Y024900D03*
X015620Y024900D03*
X015620Y025650D03*
X014912Y025650D03*
X014912Y027400D03*
X015620Y027400D03*
X015620Y022400D03*
X014912Y022400D03*
X009620Y022400D03*
X008912Y022400D03*
X002620Y023400D03*
X001912Y023400D03*
X001912Y020900D03*
X002620Y020900D03*
X007562Y016550D03*
X008270Y016550D03*
X009542Y016550D03*
X010250Y016550D03*
X009370Y015040D03*
X008662Y015040D03*
X009087Y011060D03*
X009795Y011060D03*
X008530Y010030D03*
X007822Y010030D03*
X008797Y006260D03*
X009505Y006260D03*
X010172Y006260D03*
X010880Y006260D03*
X012797Y006260D03*
X013505Y006260D03*
X014172Y006260D03*
X014880Y006260D03*
X018152Y006260D03*
X018860Y006260D03*
X019472Y006260D03*
X020180Y006260D03*
X018180Y011090D03*
X017472Y011090D03*
D16*
X018796Y011073D03*
X019296Y011073D03*
X019796Y011073D03*
X020296Y011073D03*
X016026Y010013D03*
X015526Y010013D03*
X015026Y010013D03*
X014526Y010013D03*
X011801Y011013D03*
X011301Y011013D03*
X010801Y011013D03*
X010301Y011013D03*
X029276Y010893D03*
X029776Y010893D03*
X030276Y010893D03*
X030776Y010893D03*
X033526Y009893D03*
X034026Y009893D03*
X034526Y009893D03*
X035026Y009893D03*
X038646Y010853D03*
X039146Y010853D03*
X039646Y010853D03*
X040146Y010853D03*
D17*
X039396Y009416D03*
X034276Y008456D03*
X030026Y009456D03*
X019546Y009636D03*
X015276Y008576D03*
X011051Y009576D03*
D18*
X048333Y030910D03*
X048333Y031410D03*
X048333Y031910D03*
X048333Y032410D03*
D19*
X049770Y031660D03*
D20*
X053666Y016110D03*
X052636Y011350D03*
X052786Y004790D03*
D21*
X052786Y003390D03*
X054036Y011350D03*
X053666Y017510D03*
D22*
X049716Y014150D03*
X048716Y014150D03*
X047716Y014150D03*
X043351Y003215D03*
X019766Y019650D03*
X018766Y019650D03*
X018766Y020650D03*
X019766Y020650D03*
X019766Y021650D03*
X018766Y021650D03*
X018766Y024540D03*
X019766Y024540D03*
X019766Y025540D03*
X018766Y025540D03*
X018766Y026540D03*
X019766Y026540D03*
X004746Y036840D03*
X003746Y036840D03*
X003746Y037840D03*
X004746Y037840D03*
X004746Y038840D03*
X003746Y038840D03*
X005176Y041800D03*
X046586Y041640D03*
X047586Y041640D03*
X047586Y042640D03*
X046586Y042640D03*
X046586Y043640D03*
X047586Y043640D03*
X048586Y043640D03*
X048586Y042640D03*
X048586Y041640D03*
X049586Y041640D03*
X050586Y041640D03*
X050586Y042640D03*
X049586Y042640D03*
X049586Y043640D03*
X050586Y043640D03*
X051586Y043640D03*
X052586Y043640D03*
X052586Y042640D03*
X051586Y042640D03*
X051586Y041640D03*
X052586Y041640D03*
X053586Y041640D03*
X053586Y042640D03*
X053586Y043640D03*
D23*
X024956Y029030D03*
X021956Y029030D03*
D24*
X029866Y027512D03*
X029866Y027315D03*
X029866Y027119D03*
X029866Y026922D03*
X029866Y026725D03*
X029866Y026528D03*
X029866Y026331D03*
X029866Y026134D03*
X029866Y025937D03*
X029866Y025741D03*
X029866Y025544D03*
X029866Y025347D03*
X029866Y025150D03*
X029866Y024953D03*
X029866Y024756D03*
X029866Y024559D03*
X029866Y024363D03*
X029866Y024166D03*
X029866Y023969D03*
X029866Y023772D03*
X029866Y023575D03*
X029866Y023378D03*
X029866Y023181D03*
X029866Y022985D03*
X029866Y022788D03*
X036166Y022788D03*
X036166Y022985D03*
X036166Y023181D03*
X036166Y023378D03*
X036166Y023575D03*
X036166Y023772D03*
X036166Y023969D03*
X036166Y024166D03*
X036166Y024363D03*
X036166Y024559D03*
X036166Y024756D03*
X036166Y024953D03*
X036166Y025150D03*
X036166Y025347D03*
X036166Y025544D03*
X036166Y025741D03*
X036166Y025937D03*
X036166Y026134D03*
X036166Y026331D03*
X036166Y026528D03*
X036166Y026725D03*
X036166Y026922D03*
X036166Y027119D03*
X036166Y027315D03*
X036166Y027512D03*
D25*
X035378Y028300D03*
X035181Y028300D03*
X034985Y028300D03*
X034788Y028300D03*
X034591Y028300D03*
X034394Y028300D03*
X034197Y028300D03*
X034000Y028300D03*
X033803Y028300D03*
X033607Y028300D03*
X033410Y028300D03*
X033213Y028300D03*
X033016Y028300D03*
X032819Y028300D03*
X032622Y028300D03*
X032426Y028300D03*
X032229Y028300D03*
X032032Y028300D03*
X031835Y028300D03*
X031638Y028300D03*
X031441Y028300D03*
X031244Y028300D03*
X031048Y028300D03*
X030851Y028300D03*
X030654Y028300D03*
X030654Y022000D03*
X030851Y022000D03*
X031048Y022000D03*
X031244Y022000D03*
X031441Y022000D03*
X031638Y022000D03*
X031835Y022000D03*
X032032Y022000D03*
X032229Y022000D03*
X032426Y022000D03*
X032622Y022000D03*
X032819Y022000D03*
X033016Y022000D03*
X033213Y022000D03*
X033410Y022000D03*
X033607Y022000D03*
X033803Y022000D03*
X034000Y022000D03*
X034197Y022000D03*
X034394Y022000D03*
X034591Y022000D03*
X034788Y022000D03*
X034985Y022000D03*
X035181Y022000D03*
X035378Y022000D03*
D26*
X012788Y025878D02*
X011803Y025878D01*
X011744Y025937D01*
X011744Y026922D01*
X012788Y026922D01*
X012788Y025878D01*
X012788Y026046D02*
X011744Y026046D01*
X011744Y026241D02*
X012788Y026241D01*
X012788Y026436D02*
X011744Y026436D01*
X011744Y026632D02*
X012788Y026632D01*
X012788Y026827D02*
X011744Y026827D01*
D27*
X011459Y026853D02*
X011262Y026853D01*
X011262Y026931D01*
X011459Y026931D01*
X011459Y026853D01*
X011459Y026869D02*
X011262Y026869D01*
X011262Y026907D02*
X011459Y026907D01*
X011459Y027050D02*
X011262Y027050D01*
X011262Y027128D01*
X011439Y027128D01*
X011459Y027109D01*
X011459Y027050D01*
X011459Y027061D02*
X011262Y027061D01*
X011262Y027100D02*
X011459Y027100D01*
X011557Y027207D02*
X011616Y027207D01*
X011616Y027404D01*
X011538Y027404D01*
X011538Y027227D01*
X011557Y027207D01*
X011549Y027215D02*
X011616Y027215D01*
X011616Y027254D02*
X011538Y027254D01*
X011538Y027292D02*
X011616Y027292D01*
X011616Y027331D02*
X011538Y027331D01*
X011538Y027369D02*
X011616Y027369D01*
X011735Y027369D02*
X011813Y027369D01*
X011813Y027404D02*
X011735Y027404D01*
X011735Y027207D01*
X011813Y027207D01*
X011813Y027404D01*
X011813Y027331D02*
X011735Y027331D01*
X011735Y027292D02*
X011813Y027292D01*
X011813Y027254D02*
X011735Y027254D01*
X011735Y027215D02*
X011813Y027215D01*
X011931Y027215D02*
X012010Y027215D01*
X012010Y027207D02*
X011931Y027207D01*
X011931Y027404D01*
X012010Y027404D01*
X012010Y027207D01*
X012010Y027254D02*
X011931Y027254D01*
X011931Y027292D02*
X012010Y027292D01*
X012010Y027331D02*
X011931Y027331D01*
X011931Y027369D02*
X012010Y027369D01*
X012128Y027369D02*
X012207Y027369D01*
X012207Y027404D02*
X012128Y027404D01*
X012128Y027207D01*
X012207Y027207D01*
X012207Y027404D01*
X012207Y027331D02*
X012128Y027331D01*
X012128Y027292D02*
X012207Y027292D01*
X012207Y027254D02*
X012128Y027254D01*
X012128Y027215D02*
X012207Y027215D01*
X012325Y027215D02*
X012404Y027215D01*
X012404Y027207D02*
X012325Y027207D01*
X012325Y027404D01*
X012404Y027404D01*
X012404Y027207D01*
X012404Y027254D02*
X012325Y027254D01*
X012325Y027292D02*
X012404Y027292D01*
X012404Y027331D02*
X012325Y027331D01*
X012325Y027369D02*
X012404Y027369D01*
X012522Y027369D02*
X012601Y027369D01*
X012601Y027404D02*
X012522Y027404D01*
X012522Y027207D01*
X012601Y027207D01*
X012601Y027404D01*
X012601Y027331D02*
X012522Y027331D01*
X012522Y027292D02*
X012601Y027292D01*
X012601Y027254D02*
X012522Y027254D01*
X012522Y027215D02*
X012601Y027215D01*
X012719Y027215D02*
X012798Y027215D01*
X012798Y027207D02*
X012719Y027207D01*
X012719Y027404D01*
X012798Y027404D01*
X012798Y027207D01*
X012798Y027254D02*
X012719Y027254D01*
X012719Y027292D02*
X012798Y027292D01*
X012798Y027331D02*
X012719Y027331D01*
X012719Y027369D02*
X012798Y027369D01*
X012916Y027369D02*
X012994Y027369D01*
X012994Y027404D02*
X012916Y027404D01*
X012916Y027207D01*
X012975Y027207D01*
X012994Y027227D01*
X012994Y027404D01*
X012994Y027331D02*
X012916Y027331D01*
X012916Y027292D02*
X012994Y027292D01*
X012994Y027254D02*
X012916Y027254D01*
X012916Y027215D02*
X012983Y027215D01*
X013073Y027109D02*
X013073Y027050D01*
X013270Y027050D01*
X013270Y027128D01*
X013093Y027128D01*
X013073Y027109D01*
X013073Y027100D02*
X013270Y027100D01*
X013270Y027061D02*
X013073Y027061D01*
X013073Y026931D02*
X013270Y026931D01*
X013270Y026853D01*
X013073Y026853D01*
X013073Y026931D01*
X013073Y026907D02*
X013270Y026907D01*
X013270Y026869D02*
X013073Y026869D01*
X013073Y026735D02*
X013270Y026735D01*
X013270Y026656D01*
X013073Y026656D01*
X013073Y026735D01*
X013073Y026715D02*
X013270Y026715D01*
X013270Y026676D02*
X013073Y026676D01*
X013073Y026538D02*
X013270Y026538D01*
X013270Y026459D01*
X013073Y026459D01*
X013073Y026538D01*
X013073Y026522D02*
X013270Y026522D01*
X013270Y026484D02*
X013073Y026484D01*
X013073Y026341D02*
X013270Y026341D01*
X013270Y026262D01*
X013073Y026262D01*
X013073Y026341D01*
X013073Y026330D02*
X013270Y026330D01*
X013270Y026291D02*
X013073Y026291D01*
X013073Y026144D02*
X013270Y026144D01*
X013270Y026065D01*
X013073Y026065D01*
X013073Y026144D01*
X013073Y026137D02*
X013270Y026137D01*
X013270Y026099D02*
X013073Y026099D01*
X013073Y025947D02*
X013270Y025947D01*
X013270Y025869D01*
X013073Y025869D01*
X013073Y025947D01*
X013073Y025945D02*
X013270Y025945D01*
X013270Y025906D02*
X013073Y025906D01*
X013073Y025750D02*
X013270Y025750D01*
X013270Y025672D01*
X013093Y025672D01*
X013073Y025691D01*
X013073Y025750D01*
X013073Y025714D02*
X013270Y025714D01*
X013270Y025675D02*
X013089Y025675D01*
X012994Y025573D02*
X012975Y025593D01*
X012916Y025593D01*
X012916Y025396D01*
X012994Y025396D01*
X012994Y025573D01*
X012994Y025560D02*
X012916Y025560D01*
X012916Y025521D02*
X012994Y025521D01*
X012994Y025483D02*
X012916Y025483D01*
X012916Y025444D02*
X012994Y025444D01*
X012994Y025406D02*
X012916Y025406D01*
X012798Y025406D02*
X012719Y025406D01*
X012719Y025396D02*
X012798Y025396D01*
X012798Y025593D01*
X012719Y025593D01*
X012719Y025396D01*
X012719Y025444D02*
X012798Y025444D01*
X012798Y025483D02*
X012719Y025483D01*
X012719Y025521D02*
X012798Y025521D01*
X012798Y025560D02*
X012719Y025560D01*
X012601Y025560D02*
X012522Y025560D01*
X012522Y025593D02*
X012601Y025593D01*
X012601Y025396D01*
X012522Y025396D01*
X012522Y025593D01*
X012522Y025521D02*
X012601Y025521D01*
X012601Y025483D02*
X012522Y025483D01*
X012522Y025444D02*
X012601Y025444D01*
X012601Y025406D02*
X012522Y025406D01*
X012404Y025406D02*
X012325Y025406D01*
X012325Y025396D02*
X012404Y025396D01*
X012404Y025593D01*
X012325Y025593D01*
X012325Y025396D01*
X012325Y025444D02*
X012404Y025444D01*
X012404Y025483D02*
X012325Y025483D01*
X012325Y025521D02*
X012404Y025521D01*
X012404Y025560D02*
X012325Y025560D01*
X012207Y025560D02*
X012128Y025560D01*
X012128Y025593D02*
X012207Y025593D01*
X012207Y025396D01*
X012128Y025396D01*
X012128Y025593D01*
X012128Y025521D02*
X012207Y025521D01*
X012207Y025483D02*
X012128Y025483D01*
X012128Y025444D02*
X012207Y025444D01*
X012207Y025406D02*
X012128Y025406D01*
X012010Y025406D02*
X011931Y025406D01*
X011931Y025396D02*
X012010Y025396D01*
X012010Y025593D01*
X011931Y025593D01*
X011931Y025396D01*
X011931Y025444D02*
X012010Y025444D01*
X012010Y025483D02*
X011931Y025483D01*
X011931Y025521D02*
X012010Y025521D01*
X012010Y025560D02*
X011931Y025560D01*
X011813Y025560D02*
X011735Y025560D01*
X011735Y025593D02*
X011813Y025593D01*
X011813Y025396D01*
X011735Y025396D01*
X011735Y025593D01*
X011735Y025521D02*
X011813Y025521D01*
X011813Y025483D02*
X011735Y025483D01*
X011735Y025444D02*
X011813Y025444D01*
X011813Y025406D02*
X011735Y025406D01*
X011616Y025406D02*
X011538Y025406D01*
X011538Y025396D02*
X011616Y025396D01*
X011616Y025593D01*
X011557Y025593D01*
X011538Y025573D01*
X011538Y025396D01*
X011538Y025444D02*
X011616Y025444D01*
X011616Y025483D02*
X011538Y025483D01*
X011538Y025521D02*
X011616Y025521D01*
X011616Y025560D02*
X011538Y025560D01*
X011439Y025672D02*
X011459Y025691D01*
X011459Y025750D01*
X011262Y025750D01*
X011262Y025672D01*
X011439Y025672D01*
X011443Y025675D02*
X011262Y025675D01*
X011262Y025714D02*
X011459Y025714D01*
X011459Y025869D02*
X011262Y025869D01*
X011262Y025947D01*
X011459Y025947D01*
X011459Y025869D01*
X011459Y025906D02*
X011262Y025906D01*
X011262Y025945D02*
X011459Y025945D01*
X011459Y026065D02*
X011262Y026065D01*
X011262Y026144D01*
X011459Y026144D01*
X011459Y026065D01*
X011459Y026099D02*
X011262Y026099D01*
X011262Y026137D02*
X011459Y026137D01*
X011459Y026262D02*
X011262Y026262D01*
X011262Y026341D01*
X011459Y026341D01*
X011459Y026262D01*
X011459Y026291D02*
X011262Y026291D01*
X011262Y026330D02*
X011459Y026330D01*
X011459Y026459D02*
X011262Y026459D01*
X011262Y026538D01*
X011459Y026538D01*
X011459Y026459D01*
X011459Y026484D02*
X011262Y026484D01*
X011262Y026522D02*
X011459Y026522D01*
X011459Y026656D02*
X011262Y026656D01*
X011262Y026735D01*
X011459Y026735D01*
X011459Y026656D01*
X011459Y026676D02*
X011262Y026676D01*
X011262Y026715D02*
X011459Y026715D01*
D28*
X009199Y029400D03*
X008333Y029400D03*
D29*
X008372Y028400D03*
X009160Y028400D03*
X009160Y024400D03*
X008372Y024400D03*
D30*
X011316Y022400D03*
X013216Y022400D03*
X026066Y021275D03*
X027966Y021275D03*
D31*
X006000Y025868D03*
X005213Y025868D03*
X005213Y026852D03*
X006000Y026852D03*
D32*
X004146Y028722D03*
X004146Y023998D03*
D33*
X042686Y011610D03*
X043186Y011610D03*
X043686Y011610D03*
X044186Y011610D03*
X044186Y009780D03*
X043686Y009780D03*
X043186Y009780D03*
X042686Y009780D03*
D34*
X026460Y009700D03*
X026460Y008700D03*
X026460Y007700D03*
X023192Y007700D03*
X023192Y008700D03*
X023192Y009700D03*
X007460Y008980D03*
X007460Y007980D03*
X007460Y006980D03*
X004192Y006980D03*
X004192Y007980D03*
X004192Y008980D03*
D35*
X003706Y004403D02*
X003706Y003578D01*
X005706Y003578D02*
X005706Y004403D01*
X009246Y004403D02*
X009246Y003578D01*
X011246Y003578D02*
X011246Y004403D01*
X013246Y004403D02*
X013246Y003578D01*
X015246Y003578D02*
X015246Y004403D01*
X018586Y004403D02*
X018586Y003578D01*
X020586Y003578D02*
X020586Y004403D01*
X024146Y004403D02*
X024146Y003578D01*
X026146Y003578D02*
X026146Y004403D01*
X029406Y004403D02*
X029406Y003578D01*
X031406Y003578D02*
X031406Y004403D01*
X033406Y004403D02*
X033406Y003578D01*
X035406Y003578D02*
X035406Y004403D01*
X038726Y004403D02*
X038726Y003578D01*
X040726Y003578D02*
X040726Y004403D01*
X055254Y021030D02*
X056079Y021030D01*
X056079Y023030D02*
X055254Y023030D01*
X053366Y026158D02*
X053366Y026983D01*
X051366Y026983D02*
X051366Y026158D01*
X018686Y015103D02*
X018686Y014278D01*
X016686Y014278D02*
X016686Y015103D01*
D36*
X013586Y041980D03*
X020586Y041980D03*
X027586Y041980D03*
X034586Y041980D03*
X041586Y041980D03*
D37*
X041586Y040980D03*
X041586Y039980D03*
X041586Y038980D03*
X041586Y037980D03*
X041586Y036980D03*
X041586Y035980D03*
X041586Y034980D03*
X036586Y034980D03*
X036586Y035980D03*
X036586Y036980D03*
X036586Y037980D03*
X036586Y038980D03*
X036586Y039980D03*
X036586Y040980D03*
X036586Y041980D03*
X034586Y040980D03*
X034586Y039980D03*
X034586Y038980D03*
X034586Y037980D03*
X034586Y036980D03*
X034586Y035980D03*
X034586Y034980D03*
X029586Y034980D03*
X029586Y035980D03*
X029586Y036980D03*
X029586Y037980D03*
X029586Y038980D03*
X029586Y039980D03*
X029586Y040980D03*
X029586Y041980D03*
X027586Y040980D03*
X027586Y039980D03*
X027586Y038980D03*
X027586Y037980D03*
X027586Y036980D03*
X027586Y035980D03*
X027586Y034980D03*
X022586Y034980D03*
X022586Y035980D03*
X022586Y036980D03*
X022586Y037980D03*
X022586Y038980D03*
X022586Y039980D03*
X022586Y040980D03*
X022586Y041980D03*
X020586Y040980D03*
X020586Y039980D03*
X020586Y038980D03*
X020586Y037980D03*
X020586Y036980D03*
X020586Y035980D03*
X020586Y034980D03*
X015586Y034980D03*
X015586Y035980D03*
X015586Y036980D03*
X015586Y037980D03*
X015586Y038980D03*
X015586Y039980D03*
X015586Y040980D03*
X015586Y041980D03*
X013586Y040980D03*
X013586Y039980D03*
X013586Y038980D03*
X013586Y037980D03*
X013586Y036980D03*
X013586Y035980D03*
X013586Y034980D03*
X008586Y034980D03*
X008586Y035980D03*
X008586Y036980D03*
X008586Y037980D03*
X008586Y038980D03*
X008586Y039980D03*
X008586Y040980D03*
X008586Y041980D03*
D38*
X008747Y044478D02*
X008747Y045482D01*
X010307Y045482D02*
X010307Y044478D01*
X011866Y044478D02*
X011866Y045482D01*
X013425Y045482D02*
X013425Y044478D01*
X015747Y044478D02*
X015747Y045482D01*
X017307Y045482D02*
X017307Y044478D01*
X018866Y044478D02*
X018866Y045482D01*
X020425Y045482D02*
X020425Y044478D01*
X022747Y044478D02*
X022747Y045482D01*
X024307Y045482D02*
X024307Y044478D01*
X025866Y044478D02*
X025866Y045482D01*
X027425Y045482D02*
X027425Y044478D01*
X029747Y044478D02*
X029747Y045482D01*
X031307Y045482D02*
X031307Y044478D01*
X032866Y044478D02*
X032866Y045482D01*
X034425Y045482D02*
X034425Y044478D01*
X036747Y044478D02*
X036747Y045482D01*
X038307Y045482D02*
X038307Y044478D01*
X039866Y044478D02*
X039866Y045482D01*
X041425Y045482D02*
X041425Y044478D01*
D39*
X038342Y037913D03*
X038086Y037913D03*
X037830Y037913D03*
X037830Y037047D03*
X038086Y037047D03*
X038342Y037047D03*
X031342Y037047D03*
X031086Y037047D03*
X030830Y037047D03*
X030830Y037913D03*
X031086Y037913D03*
X031342Y037913D03*
X024342Y037913D03*
X024086Y037913D03*
X023830Y037913D03*
X023830Y037047D03*
X024086Y037047D03*
X024342Y037047D03*
X017342Y037047D03*
X017086Y037047D03*
X016830Y037047D03*
X016830Y037913D03*
X017086Y037913D03*
X017342Y037913D03*
X010342Y037913D03*
X010086Y037913D03*
X009830Y037913D03*
X009830Y037047D03*
X010086Y037047D03*
X010342Y037047D03*
D40*
X009826Y035480D03*
X012346Y035480D03*
X016826Y035480D03*
X019346Y035480D03*
X023826Y035480D03*
X026346Y035480D03*
X030826Y035480D03*
X033346Y035480D03*
X037826Y035480D03*
X040346Y035480D03*
D41*
X013948Y013115D03*
X013948Y012918D03*
X013948Y012722D03*
X013948Y012525D03*
X012885Y012525D03*
X012885Y012722D03*
X012885Y012918D03*
X012885Y013115D03*
D42*
X046342Y006678D03*
X046716Y005812D03*
X047090Y006678D03*
X047842Y006678D03*
X048590Y006678D03*
X049342Y006678D03*
X050090Y006678D03*
X049716Y005812D03*
X048216Y005812D03*
D43*
X044507Y004665D03*
X044507Y004468D03*
X044507Y004272D03*
X044507Y004075D03*
X043425Y004075D03*
X043425Y004272D03*
X043425Y004468D03*
X043425Y004665D03*
D44*
X058486Y018446D03*
D45*
X058486Y016780D03*
X056366Y016780D03*
X056366Y018446D03*
X056366Y015115D03*
X056366Y013450D03*
X058486Y013450D03*
X058486Y015115D03*
X058486Y011784D03*
X058486Y010076D03*
X056366Y010076D03*
X056366Y011784D03*
X056366Y008410D03*
X056366Y006745D03*
X058486Y006745D03*
X058486Y008410D03*
X058486Y005080D03*
X058486Y003414D03*
X056366Y003414D03*
X056366Y005080D03*
D46*
X060266Y001750D03*
X060266Y010295D03*
M02*
