G75*
G70*
%OFA0B0*%
%FSLAX24Y24*%
%IPPOS*%
%LPD*%
%AMOC8*
5,1,8,0,0,1.08239X$1,22.5*
%
%ADD10C,0.0160*%
%ADD11C,0.0060*%
%ADD12C,0.0050*%
%ADD13C,0.0080*%
%ADD14C,0.0000*%
%ADD15C,0.0100*%
%ADD16C,0.0200*%
%ADD17C,0.0070*%
%ADD18R,0.0200X0.0900*%
%ADD19R,0.0200X0.0700*%
%ADD20R,0.0200X0.0500*%
%ADD21R,0.0200X0.0300*%
%ADD22R,0.0100X0.0100*%
%ADD23R,0.2300X0.0200*%
%ADD24R,0.0300X0.0200*%
D10*
X000180Y000180D02*
X059230Y000180D01*
X059230Y027763D01*
X000180Y027763D01*
X000180Y000180D01*
D11*
X005540Y003830D02*
X005790Y003580D01*
X006290Y003580D01*
X006540Y003830D01*
X006540Y004330D01*
X006290Y004580D01*
X005790Y004580D01*
X005540Y004330D01*
X005540Y003830D01*
X005790Y004580D02*
X005540Y004830D01*
X005540Y005330D01*
X005790Y005580D01*
X005540Y005830D01*
X005540Y006330D01*
X005790Y006580D01*
X005540Y006830D01*
X005540Y007330D01*
X005790Y007580D01*
X005540Y007830D01*
X005540Y008330D01*
X005790Y008580D01*
X005540Y008830D01*
X005540Y009330D01*
X005790Y009580D01*
X006290Y009580D01*
X006540Y009330D01*
X006540Y008830D01*
X006290Y008580D01*
X006540Y008330D01*
X006540Y007830D01*
X006290Y007580D01*
X005790Y007580D01*
X006290Y007580D02*
X006540Y007330D01*
X006540Y006830D01*
X006290Y006580D01*
X006540Y006330D01*
X006540Y005830D01*
X006290Y005580D01*
X006540Y005330D01*
X006540Y004830D01*
X006290Y004580D01*
X006290Y005580D02*
X005790Y005580D01*
X005790Y006580D02*
X006290Y006580D01*
X006290Y008580D02*
X005790Y008580D01*
X001700Y009300D02*
X001450Y009050D01*
X000950Y009050D01*
X000700Y009300D01*
X000700Y009800D01*
X000950Y010050D01*
X000700Y010300D01*
X000700Y010800D01*
X000950Y011050D01*
X001450Y011050D01*
X001700Y010800D01*
X001700Y010300D01*
X001450Y010050D01*
X001700Y009800D01*
X001700Y009300D01*
X001450Y010050D02*
X000950Y010050D01*
X000800Y004070D02*
X000802Y004143D01*
X000808Y004216D01*
X000818Y004288D01*
X000832Y004360D01*
X000849Y004431D01*
X000871Y004501D01*
X000896Y004570D01*
X000925Y004637D01*
X000957Y004702D01*
X000993Y004766D01*
X001033Y004828D01*
X001075Y004887D01*
X001121Y004944D01*
X001170Y004998D01*
X001222Y005050D01*
X001276Y005099D01*
X001333Y005145D01*
X001392Y005187D01*
X001454Y005227D01*
X001518Y005263D01*
X001583Y005295D01*
X001650Y005324D01*
X001719Y005349D01*
X001789Y005371D01*
X001860Y005388D01*
X001932Y005402D01*
X002004Y005412D01*
X002077Y005418D01*
X002150Y005420D01*
X002223Y005418D01*
X002296Y005412D01*
X002368Y005402D01*
X002440Y005388D01*
X002511Y005371D01*
X002581Y005349D01*
X002650Y005324D01*
X002717Y005295D01*
X002782Y005263D01*
X002846Y005227D01*
X002908Y005187D01*
X002967Y005145D01*
X003024Y005099D01*
X003078Y005050D01*
X003130Y004998D01*
X003179Y004944D01*
X003225Y004887D01*
X003267Y004828D01*
X003307Y004766D01*
X003343Y004702D01*
X003375Y004637D01*
X003404Y004570D01*
X003429Y004501D01*
X003451Y004431D01*
X003468Y004360D01*
X003482Y004288D01*
X003492Y004216D01*
X003498Y004143D01*
X003500Y004070D01*
X003498Y003997D01*
X003492Y003924D01*
X003482Y003852D01*
X003468Y003780D01*
X003451Y003709D01*
X003429Y003639D01*
X003404Y003570D01*
X003375Y003503D01*
X003343Y003438D01*
X003307Y003374D01*
X003267Y003312D01*
X003225Y003253D01*
X003179Y003196D01*
X003130Y003142D01*
X003078Y003090D01*
X003024Y003041D01*
X002967Y002995D01*
X002908Y002953D01*
X002846Y002913D01*
X002782Y002877D01*
X002717Y002845D01*
X002650Y002816D01*
X002581Y002791D01*
X002511Y002769D01*
X002440Y002752D01*
X002368Y002738D01*
X002296Y002728D01*
X002223Y002722D01*
X002150Y002720D01*
X002077Y002722D01*
X002004Y002728D01*
X001932Y002738D01*
X001860Y002752D01*
X001789Y002769D01*
X001719Y002791D01*
X001650Y002816D01*
X001583Y002845D01*
X001518Y002877D01*
X001454Y002913D01*
X001392Y002953D01*
X001333Y002995D01*
X001276Y003041D01*
X001222Y003090D01*
X001170Y003142D01*
X001121Y003196D01*
X001075Y003253D01*
X001033Y003312D01*
X000993Y003374D01*
X000957Y003438D01*
X000925Y003503D01*
X000896Y003570D01*
X000871Y003639D01*
X000849Y003709D01*
X000832Y003780D01*
X000818Y003852D01*
X000808Y003924D01*
X000802Y003997D01*
X000800Y004070D01*
X014532Y004324D02*
X014768Y004324D01*
X014768Y004796D02*
X014532Y004796D01*
X014532Y005324D02*
X014768Y005324D01*
X014768Y005796D02*
X014532Y005796D01*
X014532Y006324D02*
X014768Y006324D01*
X014768Y006796D02*
X014532Y006796D01*
X014532Y007324D02*
X014768Y007324D01*
X014768Y007796D02*
X014532Y007796D01*
X014532Y008324D02*
X014768Y008324D01*
X014768Y008796D02*
X014532Y008796D01*
X015960Y009970D02*
X015710Y010220D01*
X015710Y010720D01*
X015960Y010970D01*
X015710Y011220D01*
X015710Y011720D01*
X015960Y011970D01*
X016460Y011970D01*
X016710Y011720D01*
X016710Y011220D01*
X016460Y010970D01*
X016710Y010720D01*
X016710Y010220D01*
X016460Y009970D01*
X015960Y009970D01*
X015960Y010970D02*
X016460Y010970D01*
X016982Y008796D02*
X017218Y008796D01*
X017218Y008324D02*
X016982Y008324D01*
X016982Y007796D02*
X017218Y007796D01*
X017218Y007324D02*
X016982Y007324D01*
X016982Y006796D02*
X017218Y006796D01*
X017218Y006324D02*
X016982Y006324D01*
X016982Y005796D02*
X017218Y005796D01*
X017218Y005324D02*
X016982Y005324D01*
X016982Y004796D02*
X017218Y004796D01*
X017218Y004324D02*
X016982Y004324D01*
X024423Y004070D02*
X024425Y004143D01*
X024431Y004216D01*
X024441Y004288D01*
X024455Y004360D01*
X024472Y004431D01*
X024494Y004501D01*
X024519Y004570D01*
X024548Y004637D01*
X024580Y004702D01*
X024616Y004766D01*
X024656Y004828D01*
X024698Y004887D01*
X024744Y004944D01*
X024793Y004998D01*
X024845Y005050D01*
X024899Y005099D01*
X024956Y005145D01*
X025015Y005187D01*
X025077Y005227D01*
X025141Y005263D01*
X025206Y005295D01*
X025273Y005324D01*
X025342Y005349D01*
X025412Y005371D01*
X025483Y005388D01*
X025555Y005402D01*
X025627Y005412D01*
X025700Y005418D01*
X025773Y005420D01*
X025846Y005418D01*
X025919Y005412D01*
X025991Y005402D01*
X026063Y005388D01*
X026134Y005371D01*
X026204Y005349D01*
X026273Y005324D01*
X026340Y005295D01*
X026405Y005263D01*
X026469Y005227D01*
X026531Y005187D01*
X026590Y005145D01*
X026647Y005099D01*
X026701Y005050D01*
X026753Y004998D01*
X026802Y004944D01*
X026848Y004887D01*
X026890Y004828D01*
X026930Y004766D01*
X026966Y004702D01*
X026998Y004637D01*
X027027Y004570D01*
X027052Y004501D01*
X027074Y004431D01*
X027091Y004360D01*
X027105Y004288D01*
X027115Y004216D01*
X027121Y004143D01*
X027123Y004070D01*
X027121Y003997D01*
X027115Y003924D01*
X027105Y003852D01*
X027091Y003780D01*
X027074Y003709D01*
X027052Y003639D01*
X027027Y003570D01*
X026998Y003503D01*
X026966Y003438D01*
X026930Y003374D01*
X026890Y003312D01*
X026848Y003253D01*
X026802Y003196D01*
X026753Y003142D01*
X026701Y003090D01*
X026647Y003041D01*
X026590Y002995D01*
X026531Y002953D01*
X026469Y002913D01*
X026405Y002877D01*
X026340Y002845D01*
X026273Y002816D01*
X026204Y002791D01*
X026134Y002769D01*
X026063Y002752D01*
X025991Y002738D01*
X025919Y002728D01*
X025846Y002722D01*
X025773Y002720D01*
X025700Y002722D01*
X025627Y002728D01*
X025555Y002738D01*
X025483Y002752D01*
X025412Y002769D01*
X025342Y002791D01*
X025273Y002816D01*
X025206Y002845D01*
X025141Y002877D01*
X025077Y002913D01*
X025015Y002953D01*
X024956Y002995D01*
X024899Y003041D01*
X024845Y003090D01*
X024793Y003142D01*
X024744Y003196D01*
X024698Y003253D01*
X024656Y003312D01*
X024616Y003374D01*
X024580Y003438D01*
X024548Y003503D01*
X024519Y003570D01*
X024494Y003639D01*
X024472Y003709D01*
X024455Y003780D01*
X024441Y003852D01*
X024431Y003924D01*
X024425Y003997D01*
X024423Y004070D01*
X031918Y003095D02*
X031918Y002595D01*
X032168Y002345D01*
X032668Y002345D01*
X032918Y002595D01*
X033168Y002345D01*
X033668Y002345D01*
X033918Y002595D01*
X033918Y003095D01*
X033668Y003345D01*
X033168Y003345D01*
X032918Y003095D01*
X032918Y002595D01*
X032918Y003095D02*
X032668Y003345D01*
X032168Y003345D01*
X031918Y003095D01*
X042700Y010220D02*
X042950Y009970D01*
X043450Y009970D01*
X043700Y010220D01*
X043700Y010720D01*
X043450Y010970D01*
X042950Y010970D01*
X042700Y010720D01*
X042700Y010220D01*
X042950Y010970D02*
X042700Y011220D01*
X042700Y011720D01*
X042950Y011970D01*
X043450Y011970D01*
X043700Y011720D01*
X043700Y011220D01*
X043450Y010970D01*
X055920Y004070D02*
X055922Y004143D01*
X055928Y004216D01*
X055938Y004288D01*
X055952Y004360D01*
X055969Y004431D01*
X055991Y004501D01*
X056016Y004570D01*
X056045Y004637D01*
X056077Y004702D01*
X056113Y004766D01*
X056153Y004828D01*
X056195Y004887D01*
X056241Y004944D01*
X056290Y004998D01*
X056342Y005050D01*
X056396Y005099D01*
X056453Y005145D01*
X056512Y005187D01*
X056574Y005227D01*
X056638Y005263D01*
X056703Y005295D01*
X056770Y005324D01*
X056839Y005349D01*
X056909Y005371D01*
X056980Y005388D01*
X057052Y005402D01*
X057124Y005412D01*
X057197Y005418D01*
X057270Y005420D01*
X057343Y005418D01*
X057416Y005412D01*
X057488Y005402D01*
X057560Y005388D01*
X057631Y005371D01*
X057701Y005349D01*
X057770Y005324D01*
X057837Y005295D01*
X057902Y005263D01*
X057966Y005227D01*
X058028Y005187D01*
X058087Y005145D01*
X058144Y005099D01*
X058198Y005050D01*
X058250Y004998D01*
X058299Y004944D01*
X058345Y004887D01*
X058387Y004828D01*
X058427Y004766D01*
X058463Y004702D01*
X058495Y004637D01*
X058524Y004570D01*
X058549Y004501D01*
X058571Y004431D01*
X058588Y004360D01*
X058602Y004288D01*
X058612Y004216D01*
X058618Y004143D01*
X058620Y004070D01*
X058618Y003997D01*
X058612Y003924D01*
X058602Y003852D01*
X058588Y003780D01*
X058571Y003709D01*
X058549Y003639D01*
X058524Y003570D01*
X058495Y003503D01*
X058463Y003438D01*
X058427Y003374D01*
X058387Y003312D01*
X058345Y003253D01*
X058299Y003196D01*
X058250Y003142D01*
X058198Y003090D01*
X058144Y003041D01*
X058087Y002995D01*
X058028Y002953D01*
X057966Y002913D01*
X057902Y002877D01*
X057837Y002845D01*
X057770Y002816D01*
X057701Y002791D01*
X057631Y002769D01*
X057560Y002752D01*
X057488Y002738D01*
X057416Y002728D01*
X057343Y002722D01*
X057270Y002720D01*
X057197Y002722D01*
X057124Y002728D01*
X057052Y002738D01*
X056980Y002752D01*
X056909Y002769D01*
X056839Y002791D01*
X056770Y002816D01*
X056703Y002845D01*
X056638Y002877D01*
X056574Y002913D01*
X056512Y002953D01*
X056453Y002995D01*
X056396Y003041D01*
X056342Y003090D01*
X056290Y003142D01*
X056241Y003196D01*
X056195Y003253D01*
X056153Y003312D01*
X056113Y003374D01*
X056077Y003438D01*
X056045Y003503D01*
X056016Y003570D01*
X055991Y003639D01*
X055969Y003709D01*
X055952Y003780D01*
X055938Y003852D01*
X055928Y003924D01*
X055922Y003997D01*
X055920Y004070D01*
X053968Y003095D02*
X053968Y002595D01*
X053718Y002345D01*
X053218Y002345D01*
X052968Y002595D01*
X052718Y002345D01*
X052218Y002345D01*
X051968Y002595D01*
X051968Y003095D01*
X052218Y003345D01*
X052718Y003345D01*
X052968Y003095D01*
X053218Y003345D01*
X053718Y003345D01*
X053968Y003095D01*
X052968Y003095D02*
X052968Y002595D01*
X023318Y011934D02*
X023082Y011934D01*
X023082Y012406D02*
X023318Y012406D01*
X023408Y013394D02*
X023172Y013394D01*
X023172Y013866D02*
X023408Y013866D01*
X034662Y021304D02*
X034898Y021304D01*
X034898Y021776D02*
X034662Y021776D01*
X038972Y022724D02*
X039208Y022724D01*
X039208Y023196D02*
X038972Y023196D01*
X039198Y023890D02*
X039698Y023890D01*
X039948Y024140D01*
X040198Y023890D01*
X040698Y023890D01*
X040948Y024140D01*
X040948Y024640D01*
X040698Y024890D01*
X040198Y024890D01*
X039948Y024640D01*
X039948Y024140D01*
X040948Y024140D02*
X041198Y023890D01*
X041698Y023890D01*
X041948Y024140D01*
X042198Y023890D01*
X042698Y023890D01*
X042948Y024140D01*
X043198Y023890D01*
X043698Y023890D01*
X043948Y024140D01*
X043948Y024640D01*
X043698Y024890D01*
X043198Y024890D01*
X042948Y024640D01*
X042948Y024140D01*
X043948Y024140D02*
X044198Y023890D01*
X044698Y023890D01*
X044948Y024140D01*
X045198Y023890D01*
X045698Y023890D01*
X045948Y024140D01*
X046198Y023890D01*
X046698Y023890D01*
X046948Y024140D01*
X046948Y024640D01*
X046698Y024890D01*
X046198Y024890D01*
X045948Y024640D01*
X045948Y024140D01*
X045948Y024640D02*
X045698Y024890D01*
X045198Y024890D01*
X044948Y024640D01*
X044948Y024140D01*
X044948Y024640D02*
X044698Y024890D01*
X044198Y024890D01*
X043948Y024640D01*
X042948Y024640D02*
X042698Y024890D01*
X042198Y024890D01*
X041948Y024640D01*
X041948Y024140D01*
X041948Y024640D02*
X041698Y024890D01*
X041198Y024890D01*
X040948Y024640D01*
X039948Y024640D02*
X039698Y024890D01*
X039198Y024890D01*
X038948Y024640D01*
X038948Y024140D01*
X039198Y023890D01*
X038948Y024140D02*
X038698Y023890D01*
X038198Y023890D01*
X037948Y024140D01*
X037698Y023890D01*
X037198Y023890D01*
X036948Y024140D01*
X036698Y023890D01*
X036198Y023890D01*
X035948Y024140D01*
X035698Y023890D01*
X035198Y023890D01*
X034948Y024140D01*
X034698Y023890D01*
X034198Y023890D01*
X033948Y024140D01*
X033698Y023890D01*
X033198Y023890D01*
X032948Y024140D01*
X032948Y024640D01*
X033198Y024890D01*
X033698Y024890D01*
X033948Y024640D01*
X034198Y024890D01*
X034698Y024890D01*
X034948Y024640D01*
X034948Y024140D01*
X033948Y024140D02*
X033948Y024640D01*
X034948Y024640D02*
X035198Y024890D01*
X035698Y024890D01*
X035948Y024640D01*
X036198Y024890D01*
X036698Y024890D01*
X036948Y024640D01*
X037198Y024890D01*
X037698Y024890D01*
X037948Y024640D01*
X037948Y024140D01*
X036948Y024140D02*
X036948Y024640D01*
X037948Y024640D02*
X038198Y024890D01*
X038698Y024890D01*
X038948Y024640D01*
X035948Y024640D02*
X035948Y024140D01*
X046948Y024140D02*
X047198Y023890D01*
X047698Y023890D01*
X047948Y024140D01*
X048198Y023890D01*
X048698Y023890D01*
X048948Y024140D01*
X049198Y023890D01*
X049698Y023890D01*
X049948Y024140D01*
X049948Y024640D01*
X049698Y024890D01*
X049198Y024890D01*
X048948Y024640D01*
X048948Y024140D01*
X048948Y024640D02*
X048698Y024890D01*
X048198Y024890D01*
X047948Y024640D01*
X047948Y024140D01*
X047948Y024640D02*
X047698Y024890D01*
X047198Y024890D01*
X046948Y024640D01*
X049948Y024640D02*
X050198Y024890D01*
X050698Y024890D01*
X050948Y024640D01*
X051198Y024890D01*
X051698Y024890D01*
X051948Y024640D01*
X052198Y024890D01*
X052698Y024890D01*
X052948Y024640D01*
X052948Y024140D01*
X052698Y023890D01*
X052198Y023890D01*
X051948Y024140D01*
X051698Y023890D01*
X051198Y023890D01*
X050948Y024140D01*
X050698Y023890D01*
X050198Y023890D01*
X049948Y024140D01*
X050948Y024140D02*
X050948Y024640D01*
X051948Y024640D02*
X051948Y024140D01*
X055920Y023760D02*
X055922Y023833D01*
X055928Y023906D01*
X055938Y023978D01*
X055952Y024050D01*
X055969Y024121D01*
X055991Y024191D01*
X056016Y024260D01*
X056045Y024327D01*
X056077Y024392D01*
X056113Y024456D01*
X056153Y024518D01*
X056195Y024577D01*
X056241Y024634D01*
X056290Y024688D01*
X056342Y024740D01*
X056396Y024789D01*
X056453Y024835D01*
X056512Y024877D01*
X056574Y024917D01*
X056638Y024953D01*
X056703Y024985D01*
X056770Y025014D01*
X056839Y025039D01*
X056909Y025061D01*
X056980Y025078D01*
X057052Y025092D01*
X057124Y025102D01*
X057197Y025108D01*
X057270Y025110D01*
X057343Y025108D01*
X057416Y025102D01*
X057488Y025092D01*
X057560Y025078D01*
X057631Y025061D01*
X057701Y025039D01*
X057770Y025014D01*
X057837Y024985D01*
X057902Y024953D01*
X057966Y024917D01*
X058028Y024877D01*
X058087Y024835D01*
X058144Y024789D01*
X058198Y024740D01*
X058250Y024688D01*
X058299Y024634D01*
X058345Y024577D01*
X058387Y024518D01*
X058427Y024456D01*
X058463Y024392D01*
X058495Y024327D01*
X058524Y024260D01*
X058549Y024191D01*
X058571Y024121D01*
X058588Y024050D01*
X058602Y023978D01*
X058612Y023906D01*
X058618Y023833D01*
X058620Y023760D01*
X058618Y023687D01*
X058612Y023614D01*
X058602Y023542D01*
X058588Y023470D01*
X058571Y023399D01*
X058549Y023329D01*
X058524Y023260D01*
X058495Y023193D01*
X058463Y023128D01*
X058427Y023064D01*
X058387Y023002D01*
X058345Y022943D01*
X058299Y022886D01*
X058250Y022832D01*
X058198Y022780D01*
X058144Y022731D01*
X058087Y022685D01*
X058028Y022643D01*
X057966Y022603D01*
X057902Y022567D01*
X057837Y022535D01*
X057770Y022506D01*
X057701Y022481D01*
X057631Y022459D01*
X057560Y022442D01*
X057488Y022428D01*
X057416Y022418D01*
X057343Y022412D01*
X057270Y022410D01*
X057197Y022412D01*
X057124Y022418D01*
X057052Y022428D01*
X056980Y022442D01*
X056909Y022459D01*
X056839Y022481D01*
X056770Y022506D01*
X056703Y022535D01*
X056638Y022567D01*
X056574Y022603D01*
X056512Y022643D01*
X056453Y022685D01*
X056396Y022731D01*
X056342Y022780D01*
X056290Y022832D01*
X056241Y022886D01*
X056195Y022943D01*
X056153Y023002D01*
X056113Y023064D01*
X056077Y023128D01*
X056045Y023193D01*
X056016Y023260D01*
X055991Y023329D01*
X055969Y023399D01*
X055952Y023470D01*
X055938Y023542D01*
X055928Y023614D01*
X055922Y023687D01*
X055920Y023760D01*
X048008Y021090D02*
X047828Y021000D01*
X047648Y020820D01*
X047918Y020820D01*
X048008Y020730D01*
X048008Y020640D01*
X047918Y020550D01*
X047738Y020550D01*
X047648Y020640D01*
X047648Y020820D01*
X047455Y020910D02*
X047095Y020550D01*
X047455Y020550D01*
X047455Y020910D02*
X047455Y021000D01*
X047365Y021090D01*
X047185Y021090D01*
X047095Y021000D01*
X000800Y023760D02*
X000802Y023833D01*
X000808Y023906D01*
X000818Y023978D01*
X000832Y024050D01*
X000849Y024121D01*
X000871Y024191D01*
X000896Y024260D01*
X000925Y024327D01*
X000957Y024392D01*
X000993Y024456D01*
X001033Y024518D01*
X001075Y024577D01*
X001121Y024634D01*
X001170Y024688D01*
X001222Y024740D01*
X001276Y024789D01*
X001333Y024835D01*
X001392Y024877D01*
X001454Y024917D01*
X001518Y024953D01*
X001583Y024985D01*
X001650Y025014D01*
X001719Y025039D01*
X001789Y025061D01*
X001860Y025078D01*
X001932Y025092D01*
X002004Y025102D01*
X002077Y025108D01*
X002150Y025110D01*
X002223Y025108D01*
X002296Y025102D01*
X002368Y025092D01*
X002440Y025078D01*
X002511Y025061D01*
X002581Y025039D01*
X002650Y025014D01*
X002717Y024985D01*
X002782Y024953D01*
X002846Y024917D01*
X002908Y024877D01*
X002967Y024835D01*
X003024Y024789D01*
X003078Y024740D01*
X003130Y024688D01*
X003179Y024634D01*
X003225Y024577D01*
X003267Y024518D01*
X003307Y024456D01*
X003343Y024392D01*
X003375Y024327D01*
X003404Y024260D01*
X003429Y024191D01*
X003451Y024121D01*
X003468Y024050D01*
X003482Y023978D01*
X003492Y023906D01*
X003498Y023833D01*
X003500Y023760D01*
X003498Y023687D01*
X003492Y023614D01*
X003482Y023542D01*
X003468Y023470D01*
X003451Y023399D01*
X003429Y023329D01*
X003404Y023260D01*
X003375Y023193D01*
X003343Y023128D01*
X003307Y023064D01*
X003267Y023002D01*
X003225Y022943D01*
X003179Y022886D01*
X003130Y022832D01*
X003078Y022780D01*
X003024Y022731D01*
X002967Y022685D01*
X002908Y022643D01*
X002846Y022603D01*
X002782Y022567D01*
X002717Y022535D01*
X002650Y022506D01*
X002581Y022481D01*
X002511Y022459D01*
X002440Y022442D01*
X002368Y022428D01*
X002296Y022418D01*
X002223Y022412D01*
X002150Y022410D01*
X002077Y022412D01*
X002004Y022418D01*
X001932Y022428D01*
X001860Y022442D01*
X001789Y022459D01*
X001719Y022481D01*
X001650Y022506D01*
X001583Y022535D01*
X001518Y022567D01*
X001454Y022603D01*
X001392Y022643D01*
X001333Y022685D01*
X001276Y022731D01*
X001222Y022780D01*
X001170Y022832D01*
X001121Y022886D01*
X001075Y022943D01*
X001033Y023002D01*
X000993Y023064D01*
X000957Y023128D01*
X000925Y023193D01*
X000896Y023260D01*
X000871Y023329D01*
X000849Y023399D01*
X000832Y023470D01*
X000818Y023542D01*
X000808Y023614D01*
X000802Y023687D01*
X000800Y023760D01*
D12*
X023963Y013780D02*
X023963Y013530D01*
X023963Y013613D02*
X024088Y013613D01*
X024129Y013655D01*
X024129Y013739D01*
X024088Y013780D01*
X023963Y013780D01*
X024046Y013613D02*
X024129Y013530D01*
X024239Y013572D02*
X024239Y013613D01*
X024280Y013655D01*
X024364Y013655D01*
X024406Y013613D01*
X024406Y013572D01*
X024364Y013530D01*
X024280Y013530D01*
X024239Y013572D01*
X024280Y013655D02*
X024239Y013697D01*
X024239Y013739D01*
X024280Y013780D01*
X024364Y013780D01*
X024406Y013739D01*
X024406Y013697D01*
X024364Y013655D01*
X024284Y012360D02*
X024200Y012360D01*
X024159Y012319D01*
X024159Y012277D01*
X024200Y012235D01*
X024326Y012235D01*
X024326Y012152D02*
X024326Y012319D01*
X024284Y012360D01*
X024326Y012152D02*
X024284Y012110D01*
X024200Y012110D01*
X024159Y012152D01*
X024049Y012110D02*
X023966Y012193D01*
X024008Y012193D02*
X023883Y012193D01*
X023883Y012110D02*
X023883Y012360D01*
X024008Y012360D01*
X024049Y012319D01*
X024049Y012235D01*
X024008Y012193D01*
X017405Y011565D02*
X017330Y011565D01*
X017030Y011865D01*
X016955Y011865D01*
X016955Y011565D01*
X017030Y011404D02*
X017180Y011404D01*
X017255Y011329D01*
X017255Y011104D01*
X017405Y011104D02*
X016955Y011104D01*
X016955Y011329D01*
X017030Y011404D01*
X016955Y010944D02*
X016955Y010794D01*
X016955Y010869D02*
X017330Y010869D01*
X017405Y010794D01*
X017405Y010719D01*
X017330Y010644D01*
X017951Y008778D02*
X017993Y008778D01*
X018035Y008736D01*
X018077Y008778D01*
X018118Y008778D01*
X018160Y008736D01*
X018160Y008653D01*
X018118Y008611D01*
X018160Y008502D02*
X018077Y008418D01*
X018077Y008460D02*
X018077Y008335D01*
X018160Y008335D02*
X017910Y008335D01*
X017910Y008460D01*
X017951Y008502D01*
X018035Y008502D01*
X018077Y008460D01*
X017951Y008611D02*
X017910Y008653D01*
X017910Y008736D01*
X017951Y008778D01*
X018035Y008736D02*
X018035Y008695D01*
X018035Y007768D02*
X018035Y007601D01*
X017910Y007726D01*
X018160Y007726D01*
X018160Y007492D02*
X018077Y007408D01*
X018077Y007450D02*
X018077Y007325D01*
X018160Y007325D02*
X017910Y007325D01*
X017910Y007450D01*
X017951Y007492D01*
X018035Y007492D01*
X018077Y007450D01*
X018088Y006838D02*
X018130Y006796D01*
X018130Y006713D01*
X018088Y006671D01*
X018005Y006671D02*
X017963Y006755D01*
X017963Y006796D01*
X018005Y006838D01*
X018088Y006838D01*
X018005Y006671D02*
X017880Y006671D01*
X017880Y006838D01*
X017921Y006562D02*
X018005Y006562D01*
X018047Y006520D01*
X018047Y006395D01*
X018130Y006395D02*
X017880Y006395D01*
X017880Y006520D01*
X017921Y006562D01*
X018047Y006478D02*
X018130Y006562D01*
X018058Y005788D02*
X018017Y005788D01*
X017975Y005746D01*
X017975Y005621D01*
X018058Y005621D01*
X018100Y005663D01*
X018100Y005746D01*
X018058Y005788D01*
X017891Y005705D02*
X017975Y005621D01*
X017975Y005512D02*
X018017Y005470D01*
X018017Y005345D01*
X018100Y005345D02*
X017850Y005345D01*
X017850Y005470D01*
X017891Y005512D01*
X017975Y005512D01*
X018017Y005428D02*
X018100Y005512D01*
X017891Y005705D02*
X017850Y005788D01*
X017841Y004818D02*
X017800Y004818D01*
X017800Y004651D01*
X017841Y004542D02*
X017800Y004500D01*
X017800Y004375D01*
X018050Y004375D01*
X017967Y004375D02*
X017967Y004500D01*
X017925Y004542D01*
X017841Y004542D01*
X017967Y004458D02*
X018050Y004542D01*
X018050Y004651D02*
X018008Y004651D01*
X017841Y004818D01*
X015756Y004720D02*
X015672Y004679D01*
X015589Y004595D01*
X015714Y004595D01*
X015756Y004553D01*
X015756Y004512D01*
X015714Y004470D01*
X015630Y004470D01*
X015589Y004512D01*
X015589Y004595D01*
X015479Y004512D02*
X015438Y004470D01*
X015354Y004470D01*
X015313Y004512D01*
X015313Y004679D01*
X015354Y004720D01*
X015438Y004720D01*
X015479Y004679D01*
X015428Y005470D02*
X015469Y005512D01*
X015428Y005470D02*
X015344Y005470D01*
X015303Y005512D01*
X015303Y005679D01*
X015344Y005720D01*
X015428Y005720D01*
X015469Y005679D01*
X015579Y005720D02*
X015579Y005595D01*
X015662Y005637D01*
X015704Y005637D01*
X015746Y005595D01*
X015746Y005512D01*
X015704Y005470D01*
X015620Y005470D01*
X015579Y005512D01*
X015579Y005720D02*
X015746Y005720D01*
X015704Y006430D02*
X015704Y006680D01*
X015579Y006555D01*
X015746Y006555D01*
X015469Y006472D02*
X015428Y006430D01*
X015344Y006430D01*
X015303Y006472D01*
X015303Y006639D01*
X015344Y006680D01*
X015428Y006680D01*
X015469Y006639D01*
X015428Y007490D02*
X015469Y007532D01*
X015428Y007490D02*
X015344Y007490D01*
X015303Y007532D01*
X015303Y007699D01*
X015344Y007740D01*
X015428Y007740D01*
X015469Y007699D01*
X015579Y007699D02*
X015620Y007740D01*
X015704Y007740D01*
X015746Y007699D01*
X015746Y007657D01*
X015704Y007615D01*
X015746Y007573D01*
X015746Y007532D01*
X015704Y007490D01*
X015620Y007490D01*
X015579Y007532D01*
X015662Y007615D02*
X015704Y007615D01*
X015746Y008500D02*
X015579Y008500D01*
X015746Y008667D01*
X015746Y008709D01*
X015704Y008750D01*
X015620Y008750D01*
X015579Y008709D01*
X015469Y008709D02*
X015428Y008750D01*
X015344Y008750D01*
X015303Y008709D01*
X015303Y008542D01*
X015344Y008500D01*
X015428Y008500D01*
X015469Y008542D01*
X002395Y009799D02*
X002395Y009874D01*
X002320Y009949D01*
X001945Y009949D01*
X001945Y009874D02*
X001945Y010024D01*
X001945Y010184D02*
X001945Y010409D01*
X002020Y010484D01*
X002170Y010484D01*
X002245Y010409D01*
X002245Y010184D01*
X002395Y010184D02*
X001945Y010184D01*
X002395Y009799D02*
X002320Y009724D01*
X002320Y010645D02*
X002395Y010720D01*
X002395Y010870D01*
X002320Y010945D01*
X002170Y010945D01*
X002095Y010870D01*
X002095Y010795D01*
X002170Y010645D01*
X001945Y010645D01*
X001945Y010945D01*
X032212Y004065D02*
X032212Y003990D01*
X032287Y003915D01*
X032212Y003840D01*
X032212Y003765D01*
X032287Y003690D01*
X032437Y003690D01*
X032512Y003765D01*
X032362Y003915D02*
X032287Y003915D01*
X032212Y004065D02*
X032287Y004140D01*
X032437Y004140D01*
X032512Y004065D01*
X032672Y004065D02*
X032672Y003915D01*
X032747Y003840D01*
X032973Y003840D01*
X032973Y003690D02*
X032973Y004140D01*
X032747Y004140D01*
X032672Y004065D01*
X033133Y004140D02*
X033283Y004140D01*
X033208Y004140D02*
X033208Y003765D01*
X033283Y003690D01*
X033358Y003690D01*
X033433Y003765D01*
X045820Y005620D02*
X049320Y005620D01*
X049320Y006070D01*
X049570Y006070D01*
X049570Y006470D01*
X049320Y006470D01*
X049320Y007370D01*
X049530Y007115D02*
X049455Y007040D01*
X049455Y006890D01*
X049530Y006815D01*
X049530Y007115D02*
X049605Y007115D01*
X049905Y006815D01*
X049905Y007115D01*
X050355Y006975D02*
X050805Y006975D01*
X050805Y006825D02*
X050805Y007125D01*
X050505Y006825D02*
X050355Y006975D01*
X049320Y006470D02*
X049320Y006070D01*
X045820Y005620D02*
X045820Y008270D01*
X045820Y008720D01*
X045820Y009520D01*
X045820Y009970D01*
X045820Y012770D01*
X045820Y014470D01*
X045820Y018270D01*
X045820Y019970D01*
X045820Y021620D01*
X049320Y021620D01*
X049320Y021170D01*
X049570Y021170D01*
X049570Y020770D01*
X049320Y020770D01*
X049320Y019970D01*
X049320Y019870D01*
X049320Y019970D02*
X048670Y019970D01*
X045820Y019970D01*
X046920Y020270D02*
X048420Y020270D01*
X048420Y021370D01*
X046920Y021370D01*
X046920Y020270D01*
X046220Y019520D02*
X045820Y019520D01*
X046220Y019520D02*
X046220Y018720D01*
X045820Y018720D01*
X045820Y018270D02*
X048670Y018270D01*
X049320Y018270D01*
X049320Y018370D01*
X049320Y018270D02*
X049320Y017870D01*
X049320Y017370D02*
X049320Y016870D01*
X049320Y016370D02*
X049320Y015870D01*
X049320Y015370D02*
X049320Y014870D01*
X049320Y014370D02*
X049320Y013870D01*
X049320Y013370D02*
X049320Y012870D01*
X048770Y012770D02*
X048370Y012770D01*
X048370Y014470D01*
X048770Y014470D01*
X048770Y012770D01*
X048370Y012770D02*
X045820Y012770D01*
X044395Y011790D02*
X044320Y011865D01*
X044245Y011865D01*
X044170Y011790D01*
X044170Y011565D01*
X044320Y011565D01*
X044395Y011640D01*
X044395Y011790D01*
X044170Y011565D02*
X044020Y011715D01*
X043945Y011865D01*
X044020Y011404D02*
X043945Y011329D01*
X043945Y011104D01*
X044395Y011104D01*
X044245Y011104D02*
X044245Y011329D01*
X044170Y011404D01*
X044020Y011404D01*
X043945Y010944D02*
X043945Y010794D01*
X043945Y010869D02*
X044320Y010869D01*
X044395Y010794D01*
X044395Y010719D01*
X044320Y010644D01*
X045820Y009970D02*
X048670Y009970D01*
X049320Y009970D01*
X049320Y009870D01*
X049320Y009970D02*
X049320Y010370D01*
X049320Y010870D02*
X049320Y011370D01*
X049320Y011870D02*
X049320Y012370D01*
X048370Y014470D02*
X045820Y014470D01*
X048670Y018270D02*
X048670Y018820D01*
X048370Y018820D01*
X048370Y019420D01*
X048670Y019420D01*
X048670Y019970D01*
X048370Y019420D02*
X047770Y019420D01*
X047736Y019418D01*
X047703Y019412D01*
X047671Y019403D01*
X047640Y019390D01*
X047610Y019374D01*
X047583Y019355D01*
X047558Y019332D01*
X047535Y019307D01*
X047516Y019280D01*
X047500Y019250D01*
X047487Y019219D01*
X047478Y019187D01*
X047472Y019154D01*
X047470Y019120D01*
X047472Y019086D01*
X047478Y019053D01*
X047487Y019021D01*
X047500Y018990D01*
X047516Y018960D01*
X047535Y018933D01*
X047558Y018908D01*
X047583Y018885D01*
X047610Y018866D01*
X047640Y018850D01*
X047671Y018837D01*
X047703Y018828D01*
X047736Y018822D01*
X047770Y018820D01*
X048370Y018820D01*
X049320Y018870D02*
X049320Y019420D01*
X049320Y020770D02*
X049320Y021170D01*
X039296Y023472D02*
X039254Y023430D01*
X039170Y023430D01*
X039129Y023472D01*
X039129Y023513D01*
X039170Y023555D01*
X039254Y023555D01*
X039296Y023513D01*
X039296Y023472D01*
X039254Y023555D02*
X039296Y023597D01*
X039296Y023639D01*
X039254Y023680D01*
X039170Y023680D01*
X039129Y023639D01*
X039129Y023597D01*
X039170Y023555D01*
X039019Y023472D02*
X038978Y023430D01*
X038894Y023430D01*
X038853Y023472D01*
X038853Y023639D01*
X038894Y023680D01*
X038978Y023680D01*
X039019Y023639D01*
X035826Y021710D02*
X035826Y021669D01*
X035659Y021502D01*
X035659Y021460D01*
X035549Y021502D02*
X035508Y021460D01*
X035424Y021460D01*
X035383Y021502D01*
X035383Y021669D01*
X035424Y021710D01*
X035508Y021710D01*
X035549Y021669D01*
X035659Y021710D02*
X035826Y021710D01*
X034058Y025405D02*
X033983Y025405D01*
X033908Y025480D01*
X033908Y025855D01*
X033983Y025855D02*
X033833Y025855D01*
X033673Y025855D02*
X033447Y025855D01*
X033372Y025780D01*
X033372Y025630D01*
X033447Y025555D01*
X033673Y025555D01*
X033673Y025405D02*
X033673Y025855D01*
X033212Y025705D02*
X033062Y025855D01*
X033062Y025405D01*
X033212Y025405D02*
X032912Y025405D01*
X034058Y025405D02*
X034133Y025480D01*
X048670Y009970D02*
X048670Y009420D01*
X048370Y009420D01*
X047770Y009420D01*
X047736Y009418D01*
X047703Y009412D01*
X047671Y009403D01*
X047640Y009390D01*
X047610Y009374D01*
X047583Y009355D01*
X047558Y009332D01*
X047535Y009307D01*
X047516Y009280D01*
X047500Y009250D01*
X047487Y009219D01*
X047478Y009187D01*
X047472Y009154D01*
X047470Y009120D01*
X047472Y009086D01*
X047478Y009053D01*
X047487Y009021D01*
X047500Y008990D01*
X047516Y008960D01*
X047535Y008933D01*
X047558Y008908D01*
X047583Y008885D01*
X047610Y008866D01*
X047640Y008850D01*
X047671Y008837D01*
X047703Y008828D01*
X047736Y008822D01*
X047770Y008820D01*
X048370Y008820D01*
X048370Y009420D01*
X048370Y008820D02*
X048670Y008820D01*
X048670Y008270D01*
X049320Y008270D01*
X049320Y008370D01*
X049320Y008270D02*
X049320Y007870D01*
X048670Y008270D02*
X045820Y008270D01*
X045820Y008720D02*
X046220Y008720D01*
X046220Y009520D01*
X045820Y009520D01*
X049320Y009370D02*
X049320Y008870D01*
X052357Y004170D02*
X052582Y003945D01*
X052282Y003945D01*
X052357Y003720D02*
X052357Y004170D01*
X052742Y004095D02*
X052742Y003945D01*
X052817Y003870D01*
X053043Y003870D01*
X053043Y003720D02*
X053043Y004170D01*
X052817Y004170D01*
X052742Y004095D01*
X053203Y004170D02*
X053353Y004170D01*
X053278Y004170D02*
X053278Y003795D01*
X053353Y003720D01*
X053428Y003720D01*
X053503Y003795D01*
D13*
X056601Y004070D02*
X056603Y004121D01*
X056609Y004172D01*
X056619Y004222D01*
X056632Y004272D01*
X056650Y004320D01*
X056670Y004367D01*
X056695Y004412D01*
X056723Y004455D01*
X056754Y004496D01*
X056788Y004534D01*
X056825Y004569D01*
X056864Y004602D01*
X056906Y004632D01*
X056950Y004658D01*
X056996Y004680D01*
X057044Y004700D01*
X057093Y004715D01*
X057143Y004727D01*
X057193Y004735D01*
X057244Y004739D01*
X057296Y004739D01*
X057347Y004735D01*
X057397Y004727D01*
X057447Y004715D01*
X057496Y004700D01*
X057544Y004680D01*
X057590Y004658D01*
X057634Y004632D01*
X057676Y004602D01*
X057715Y004569D01*
X057752Y004534D01*
X057786Y004496D01*
X057817Y004455D01*
X057845Y004412D01*
X057870Y004367D01*
X057890Y004320D01*
X057908Y004272D01*
X057921Y004222D01*
X057931Y004172D01*
X057937Y004121D01*
X057939Y004070D01*
X057937Y004019D01*
X057931Y003968D01*
X057921Y003918D01*
X057908Y003868D01*
X057890Y003820D01*
X057870Y003773D01*
X057845Y003728D01*
X057817Y003685D01*
X057786Y003644D01*
X057752Y003606D01*
X057715Y003571D01*
X057676Y003538D01*
X057634Y003508D01*
X057590Y003482D01*
X057544Y003460D01*
X057496Y003440D01*
X057447Y003425D01*
X057397Y003413D01*
X057347Y003405D01*
X057296Y003401D01*
X057244Y003401D01*
X057193Y003405D01*
X057143Y003413D01*
X057093Y003425D01*
X057044Y003440D01*
X056996Y003460D01*
X056950Y003482D01*
X056906Y003508D01*
X056864Y003538D01*
X056825Y003571D01*
X056788Y003606D01*
X056754Y003644D01*
X056723Y003685D01*
X056695Y003728D01*
X056670Y003773D01*
X056650Y003820D01*
X056632Y003868D01*
X056619Y003918D01*
X056609Y003968D01*
X056603Y004019D01*
X056601Y004070D01*
X034596Y017260D02*
X034596Y020600D01*
X034597Y020600D02*
X034592Y020624D01*
X034584Y020647D01*
X034573Y020668D01*
X034559Y020688D01*
X034542Y020706D01*
X034523Y020721D01*
X034502Y020734D01*
X034480Y020743D01*
X034456Y020749D01*
X034432Y020751D01*
X034407Y020750D01*
X034402Y020750D02*
X034070Y020750D01*
X034102Y020930D02*
X034102Y021350D01*
X033962Y021210D01*
X033782Y021280D02*
X033712Y021350D01*
X033572Y021350D01*
X033502Y021280D01*
X033502Y021000D01*
X033572Y020930D01*
X033712Y020930D01*
X033782Y021000D01*
X033962Y020930D02*
X034243Y020930D01*
X034070Y020730D02*
X034068Y020700D01*
X034063Y020670D01*
X034054Y020641D01*
X034041Y020614D01*
X034026Y020588D01*
X034007Y020564D01*
X033986Y020543D01*
X033962Y020524D01*
X033936Y020509D01*
X033909Y020496D01*
X033880Y020487D01*
X033850Y020482D01*
X033820Y020480D01*
X033790Y020482D01*
X033760Y020487D01*
X033731Y020496D01*
X033704Y020509D01*
X033678Y020524D01*
X033654Y020543D01*
X033633Y020564D01*
X033614Y020588D01*
X033599Y020614D01*
X033586Y020641D01*
X033577Y020670D01*
X033572Y020700D01*
X033570Y020730D01*
X033570Y020750D02*
X033174Y020750D01*
X033174Y020751D02*
X033154Y020746D01*
X033135Y020738D01*
X033117Y020727D01*
X033101Y020714D01*
X033088Y020698D01*
X033077Y020681D01*
X033069Y020662D01*
X033064Y020642D01*
X033062Y020621D01*
X033063Y020600D01*
X033064Y020600D02*
X033064Y017221D01*
X033063Y017220D02*
X033068Y017200D01*
X033076Y017181D01*
X033087Y017163D01*
X033100Y017147D01*
X033116Y017134D01*
X033133Y017123D01*
X033152Y017115D01*
X033172Y017110D01*
X033193Y017108D01*
X033214Y017109D01*
X033214Y017110D02*
X034446Y017110D01*
X034469Y017112D01*
X034492Y017117D01*
X034514Y017126D01*
X034534Y017139D01*
X034552Y017154D01*
X034567Y017172D01*
X034580Y017192D01*
X034589Y017214D01*
X034594Y017237D01*
X034596Y017260D01*
X033335Y020930D02*
X033195Y020930D01*
X033265Y020930D02*
X033265Y021350D01*
X033195Y021350D02*
X033335Y021350D01*
X056601Y023760D02*
X056603Y023811D01*
X056609Y023862D01*
X056619Y023912D01*
X056632Y023962D01*
X056650Y024010D01*
X056670Y024057D01*
X056695Y024102D01*
X056723Y024145D01*
X056754Y024186D01*
X056788Y024224D01*
X056825Y024259D01*
X056864Y024292D01*
X056906Y024322D01*
X056950Y024348D01*
X056996Y024370D01*
X057044Y024390D01*
X057093Y024405D01*
X057143Y024417D01*
X057193Y024425D01*
X057244Y024429D01*
X057296Y024429D01*
X057347Y024425D01*
X057397Y024417D01*
X057447Y024405D01*
X057496Y024390D01*
X057544Y024370D01*
X057590Y024348D01*
X057634Y024322D01*
X057676Y024292D01*
X057715Y024259D01*
X057752Y024224D01*
X057786Y024186D01*
X057817Y024145D01*
X057845Y024102D01*
X057870Y024057D01*
X057890Y024010D01*
X057908Y023962D01*
X057921Y023912D01*
X057931Y023862D01*
X057937Y023811D01*
X057939Y023760D01*
X057937Y023709D01*
X057931Y023658D01*
X057921Y023608D01*
X057908Y023558D01*
X057890Y023510D01*
X057870Y023463D01*
X057845Y023418D01*
X057817Y023375D01*
X057786Y023334D01*
X057752Y023296D01*
X057715Y023261D01*
X057676Y023228D01*
X057634Y023198D01*
X057590Y023172D01*
X057544Y023150D01*
X057496Y023130D01*
X057447Y023115D01*
X057397Y023103D01*
X057347Y023095D01*
X057296Y023091D01*
X057244Y023091D01*
X057193Y023095D01*
X057143Y023103D01*
X057093Y023115D01*
X057044Y023130D01*
X056996Y023150D01*
X056950Y023172D01*
X056906Y023198D01*
X056864Y023228D01*
X056825Y023261D01*
X056788Y023296D01*
X056754Y023334D01*
X056723Y023375D01*
X056695Y023418D01*
X056670Y023463D01*
X056650Y023510D01*
X056632Y023558D01*
X056619Y023608D01*
X056609Y023658D01*
X056603Y023709D01*
X056601Y023760D01*
X025104Y004070D02*
X025106Y004121D01*
X025112Y004172D01*
X025122Y004222D01*
X025135Y004272D01*
X025153Y004320D01*
X025173Y004367D01*
X025198Y004412D01*
X025226Y004455D01*
X025257Y004496D01*
X025291Y004534D01*
X025328Y004569D01*
X025367Y004602D01*
X025409Y004632D01*
X025453Y004658D01*
X025499Y004680D01*
X025547Y004700D01*
X025596Y004715D01*
X025646Y004727D01*
X025696Y004735D01*
X025747Y004739D01*
X025799Y004739D01*
X025850Y004735D01*
X025900Y004727D01*
X025950Y004715D01*
X025999Y004700D01*
X026047Y004680D01*
X026093Y004658D01*
X026137Y004632D01*
X026179Y004602D01*
X026218Y004569D01*
X026255Y004534D01*
X026289Y004496D01*
X026320Y004455D01*
X026348Y004412D01*
X026373Y004367D01*
X026393Y004320D01*
X026411Y004272D01*
X026424Y004222D01*
X026434Y004172D01*
X026440Y004121D01*
X026442Y004070D01*
X026440Y004019D01*
X026434Y003968D01*
X026424Y003918D01*
X026411Y003868D01*
X026393Y003820D01*
X026373Y003773D01*
X026348Y003728D01*
X026320Y003685D01*
X026289Y003644D01*
X026255Y003606D01*
X026218Y003571D01*
X026179Y003538D01*
X026137Y003508D01*
X026093Y003482D01*
X026047Y003460D01*
X025999Y003440D01*
X025950Y003425D01*
X025900Y003413D01*
X025850Y003405D01*
X025799Y003401D01*
X025747Y003401D01*
X025696Y003405D01*
X025646Y003413D01*
X025596Y003425D01*
X025547Y003440D01*
X025499Y003460D01*
X025453Y003482D01*
X025409Y003508D01*
X025367Y003538D01*
X025328Y003571D01*
X025291Y003606D01*
X025257Y003644D01*
X025226Y003685D01*
X025198Y003728D01*
X025173Y003773D01*
X025153Y003820D01*
X025135Y003868D01*
X025122Y003918D01*
X025112Y003968D01*
X025106Y004019D01*
X025104Y004070D01*
X001481Y004070D02*
X001483Y004121D01*
X001489Y004172D01*
X001499Y004222D01*
X001512Y004272D01*
X001530Y004320D01*
X001550Y004367D01*
X001575Y004412D01*
X001603Y004455D01*
X001634Y004496D01*
X001668Y004534D01*
X001705Y004569D01*
X001744Y004602D01*
X001786Y004632D01*
X001830Y004658D01*
X001876Y004680D01*
X001924Y004700D01*
X001973Y004715D01*
X002023Y004727D01*
X002073Y004735D01*
X002124Y004739D01*
X002176Y004739D01*
X002227Y004735D01*
X002277Y004727D01*
X002327Y004715D01*
X002376Y004700D01*
X002424Y004680D01*
X002470Y004658D01*
X002514Y004632D01*
X002556Y004602D01*
X002595Y004569D01*
X002632Y004534D01*
X002666Y004496D01*
X002697Y004455D01*
X002725Y004412D01*
X002750Y004367D01*
X002770Y004320D01*
X002788Y004272D01*
X002801Y004222D01*
X002811Y004172D01*
X002817Y004121D01*
X002819Y004070D01*
X002817Y004019D01*
X002811Y003968D01*
X002801Y003918D01*
X002788Y003868D01*
X002770Y003820D01*
X002750Y003773D01*
X002725Y003728D01*
X002697Y003685D01*
X002666Y003644D01*
X002632Y003606D01*
X002595Y003571D01*
X002556Y003538D01*
X002514Y003508D01*
X002470Y003482D01*
X002424Y003460D01*
X002376Y003440D01*
X002327Y003425D01*
X002277Y003413D01*
X002227Y003405D01*
X002176Y003401D01*
X002124Y003401D01*
X002073Y003405D01*
X002023Y003413D01*
X001973Y003425D01*
X001924Y003440D01*
X001876Y003460D01*
X001830Y003482D01*
X001786Y003508D01*
X001744Y003538D01*
X001705Y003571D01*
X001668Y003606D01*
X001634Y003644D01*
X001603Y003685D01*
X001575Y003728D01*
X001550Y003773D01*
X001530Y003820D01*
X001512Y003868D01*
X001499Y003918D01*
X001489Y003968D01*
X001483Y004019D01*
X001481Y004070D01*
X001481Y023760D02*
X001483Y023811D01*
X001489Y023862D01*
X001499Y023912D01*
X001512Y023962D01*
X001530Y024010D01*
X001550Y024057D01*
X001575Y024102D01*
X001603Y024145D01*
X001634Y024186D01*
X001668Y024224D01*
X001705Y024259D01*
X001744Y024292D01*
X001786Y024322D01*
X001830Y024348D01*
X001876Y024370D01*
X001924Y024390D01*
X001973Y024405D01*
X002023Y024417D01*
X002073Y024425D01*
X002124Y024429D01*
X002176Y024429D01*
X002227Y024425D01*
X002277Y024417D01*
X002327Y024405D01*
X002376Y024390D01*
X002424Y024370D01*
X002470Y024348D01*
X002514Y024322D01*
X002556Y024292D01*
X002595Y024259D01*
X002632Y024224D01*
X002666Y024186D01*
X002697Y024145D01*
X002725Y024102D01*
X002750Y024057D01*
X002770Y024010D01*
X002788Y023962D01*
X002801Y023912D01*
X002811Y023862D01*
X002817Y023811D01*
X002819Y023760D01*
X002817Y023709D01*
X002811Y023658D01*
X002801Y023608D01*
X002788Y023558D01*
X002770Y023510D01*
X002750Y023463D01*
X002725Y023418D01*
X002697Y023375D01*
X002666Y023334D01*
X002632Y023296D01*
X002595Y023261D01*
X002556Y023228D01*
X002514Y023198D01*
X002470Y023172D01*
X002424Y023150D01*
X002376Y023130D01*
X002327Y023115D01*
X002277Y023103D01*
X002227Y023095D01*
X002176Y023091D01*
X002124Y023091D01*
X002073Y023095D01*
X002023Y023103D01*
X001973Y023115D01*
X001924Y023130D01*
X001876Y023150D01*
X001830Y023172D01*
X001786Y023198D01*
X001744Y023228D01*
X001705Y023261D01*
X001668Y023296D01*
X001634Y023334D01*
X001603Y023375D01*
X001575Y023418D01*
X001550Y023463D01*
X001530Y023510D01*
X001512Y023558D01*
X001499Y023608D01*
X001489Y023658D01*
X001483Y023709D01*
X001481Y023760D01*
D14*
X001520Y023760D02*
X001522Y023810D01*
X001528Y023860D01*
X001538Y023909D01*
X001552Y023957D01*
X001569Y024004D01*
X001590Y024049D01*
X001615Y024093D01*
X001643Y024134D01*
X001675Y024173D01*
X001709Y024210D01*
X001746Y024244D01*
X001786Y024274D01*
X001828Y024301D01*
X001872Y024325D01*
X001918Y024346D01*
X001965Y024362D01*
X002013Y024375D01*
X002063Y024384D01*
X002112Y024389D01*
X002163Y024390D01*
X002213Y024387D01*
X002262Y024380D01*
X002311Y024369D01*
X002359Y024354D01*
X002405Y024336D01*
X002450Y024314D01*
X002493Y024288D01*
X002534Y024259D01*
X002573Y024227D01*
X002609Y024192D01*
X002641Y024154D01*
X002671Y024114D01*
X002698Y024071D01*
X002721Y024027D01*
X002740Y023981D01*
X002756Y023933D01*
X002768Y023884D01*
X002776Y023835D01*
X002780Y023785D01*
X002780Y023735D01*
X002776Y023685D01*
X002768Y023636D01*
X002756Y023587D01*
X002740Y023539D01*
X002721Y023493D01*
X002698Y023449D01*
X002671Y023406D01*
X002641Y023366D01*
X002609Y023328D01*
X002573Y023293D01*
X002534Y023261D01*
X002493Y023232D01*
X002450Y023206D01*
X002405Y023184D01*
X002359Y023166D01*
X002311Y023151D01*
X002262Y023140D01*
X002213Y023133D01*
X002163Y023130D01*
X002112Y023131D01*
X002063Y023136D01*
X002013Y023145D01*
X001965Y023158D01*
X001918Y023174D01*
X001872Y023195D01*
X001828Y023219D01*
X001786Y023246D01*
X001746Y023276D01*
X001709Y023310D01*
X001675Y023347D01*
X001643Y023386D01*
X001615Y023427D01*
X001590Y023471D01*
X001569Y023516D01*
X001552Y023563D01*
X001538Y023611D01*
X001528Y023660D01*
X001522Y023710D01*
X001520Y023760D01*
X018201Y025415D02*
X018203Y025449D01*
X018209Y025483D01*
X018219Y025516D01*
X018232Y025547D01*
X018250Y025577D01*
X018270Y025605D01*
X018294Y025630D01*
X018320Y025652D01*
X018348Y025670D01*
X018379Y025686D01*
X018411Y025698D01*
X018445Y025706D01*
X018479Y025710D01*
X018513Y025710D01*
X018547Y025706D01*
X018581Y025698D01*
X018613Y025686D01*
X018643Y025670D01*
X018672Y025652D01*
X018698Y025630D01*
X018722Y025605D01*
X018742Y025577D01*
X018760Y025547D01*
X018773Y025516D01*
X018783Y025483D01*
X018789Y025449D01*
X018791Y025415D01*
X018789Y025381D01*
X018783Y025347D01*
X018773Y025314D01*
X018760Y025283D01*
X018742Y025253D01*
X018722Y025225D01*
X018698Y025200D01*
X018672Y025178D01*
X018644Y025160D01*
X018613Y025144D01*
X018581Y025132D01*
X018547Y025124D01*
X018513Y025120D01*
X018479Y025120D01*
X018445Y025124D01*
X018411Y025132D01*
X018379Y025144D01*
X018348Y025160D01*
X018320Y025178D01*
X018294Y025200D01*
X018270Y025225D01*
X018250Y025253D01*
X018232Y025283D01*
X018219Y025314D01*
X018209Y025347D01*
X018203Y025381D01*
X018201Y025415D01*
X027729Y025415D02*
X027731Y025449D01*
X027737Y025483D01*
X027747Y025516D01*
X027760Y025547D01*
X027778Y025577D01*
X027798Y025605D01*
X027822Y025630D01*
X027848Y025652D01*
X027876Y025670D01*
X027907Y025686D01*
X027939Y025698D01*
X027973Y025706D01*
X028007Y025710D01*
X028041Y025710D01*
X028075Y025706D01*
X028109Y025698D01*
X028141Y025686D01*
X028171Y025670D01*
X028200Y025652D01*
X028226Y025630D01*
X028250Y025605D01*
X028270Y025577D01*
X028288Y025547D01*
X028301Y025516D01*
X028311Y025483D01*
X028317Y025449D01*
X028319Y025415D01*
X028317Y025381D01*
X028311Y025347D01*
X028301Y025314D01*
X028288Y025283D01*
X028270Y025253D01*
X028250Y025225D01*
X028226Y025200D01*
X028200Y025178D01*
X028172Y025160D01*
X028141Y025144D01*
X028109Y025132D01*
X028075Y025124D01*
X028041Y025120D01*
X028007Y025120D01*
X027973Y025124D01*
X027939Y025132D01*
X027907Y025144D01*
X027876Y025160D01*
X027848Y025178D01*
X027822Y025200D01*
X027798Y025225D01*
X027778Y025253D01*
X027760Y025283D01*
X027747Y025314D01*
X027737Y025347D01*
X027731Y025381D01*
X027729Y025415D01*
X056640Y023760D02*
X056642Y023810D01*
X056648Y023860D01*
X056658Y023909D01*
X056672Y023957D01*
X056689Y024004D01*
X056710Y024049D01*
X056735Y024093D01*
X056763Y024134D01*
X056795Y024173D01*
X056829Y024210D01*
X056866Y024244D01*
X056906Y024274D01*
X056948Y024301D01*
X056992Y024325D01*
X057038Y024346D01*
X057085Y024362D01*
X057133Y024375D01*
X057183Y024384D01*
X057232Y024389D01*
X057283Y024390D01*
X057333Y024387D01*
X057382Y024380D01*
X057431Y024369D01*
X057479Y024354D01*
X057525Y024336D01*
X057570Y024314D01*
X057613Y024288D01*
X057654Y024259D01*
X057693Y024227D01*
X057729Y024192D01*
X057761Y024154D01*
X057791Y024114D01*
X057818Y024071D01*
X057841Y024027D01*
X057860Y023981D01*
X057876Y023933D01*
X057888Y023884D01*
X057896Y023835D01*
X057900Y023785D01*
X057900Y023735D01*
X057896Y023685D01*
X057888Y023636D01*
X057876Y023587D01*
X057860Y023539D01*
X057841Y023493D01*
X057818Y023449D01*
X057791Y023406D01*
X057761Y023366D01*
X057729Y023328D01*
X057693Y023293D01*
X057654Y023261D01*
X057613Y023232D01*
X057570Y023206D01*
X057525Y023184D01*
X057479Y023166D01*
X057431Y023151D01*
X057382Y023140D01*
X057333Y023133D01*
X057283Y023130D01*
X057232Y023131D01*
X057183Y023136D01*
X057133Y023145D01*
X057085Y023158D01*
X057038Y023174D01*
X056992Y023195D01*
X056948Y023219D01*
X056906Y023246D01*
X056866Y023276D01*
X056829Y023310D01*
X056795Y023347D01*
X056763Y023386D01*
X056735Y023427D01*
X056710Y023471D01*
X056689Y023516D01*
X056672Y023563D01*
X056658Y023611D01*
X056648Y023660D01*
X056642Y023710D01*
X056640Y023760D01*
X056640Y004070D02*
X056642Y004120D01*
X056648Y004170D01*
X056658Y004219D01*
X056672Y004267D01*
X056689Y004314D01*
X056710Y004359D01*
X056735Y004403D01*
X056763Y004444D01*
X056795Y004483D01*
X056829Y004520D01*
X056866Y004554D01*
X056906Y004584D01*
X056948Y004611D01*
X056992Y004635D01*
X057038Y004656D01*
X057085Y004672D01*
X057133Y004685D01*
X057183Y004694D01*
X057232Y004699D01*
X057283Y004700D01*
X057333Y004697D01*
X057382Y004690D01*
X057431Y004679D01*
X057479Y004664D01*
X057525Y004646D01*
X057570Y004624D01*
X057613Y004598D01*
X057654Y004569D01*
X057693Y004537D01*
X057729Y004502D01*
X057761Y004464D01*
X057791Y004424D01*
X057818Y004381D01*
X057841Y004337D01*
X057860Y004291D01*
X057876Y004243D01*
X057888Y004194D01*
X057896Y004145D01*
X057900Y004095D01*
X057900Y004045D01*
X057896Y003995D01*
X057888Y003946D01*
X057876Y003897D01*
X057860Y003849D01*
X057841Y003803D01*
X057818Y003759D01*
X057791Y003716D01*
X057761Y003676D01*
X057729Y003638D01*
X057693Y003603D01*
X057654Y003571D01*
X057613Y003542D01*
X057570Y003516D01*
X057525Y003494D01*
X057479Y003476D01*
X057431Y003461D01*
X057382Y003450D01*
X057333Y003443D01*
X057283Y003440D01*
X057232Y003441D01*
X057183Y003446D01*
X057133Y003455D01*
X057085Y003468D01*
X057038Y003484D01*
X056992Y003505D01*
X056948Y003529D01*
X056906Y003556D01*
X056866Y003586D01*
X056829Y003620D01*
X056795Y003657D01*
X056763Y003696D01*
X056735Y003737D01*
X056710Y003781D01*
X056689Y003826D01*
X056672Y003873D01*
X056658Y003921D01*
X056648Y003970D01*
X056642Y004020D01*
X056640Y004070D01*
X025143Y004070D02*
X025145Y004120D01*
X025151Y004170D01*
X025161Y004219D01*
X025175Y004267D01*
X025192Y004314D01*
X025213Y004359D01*
X025238Y004403D01*
X025266Y004444D01*
X025298Y004483D01*
X025332Y004520D01*
X025369Y004554D01*
X025409Y004584D01*
X025451Y004611D01*
X025495Y004635D01*
X025541Y004656D01*
X025588Y004672D01*
X025636Y004685D01*
X025686Y004694D01*
X025735Y004699D01*
X025786Y004700D01*
X025836Y004697D01*
X025885Y004690D01*
X025934Y004679D01*
X025982Y004664D01*
X026028Y004646D01*
X026073Y004624D01*
X026116Y004598D01*
X026157Y004569D01*
X026196Y004537D01*
X026232Y004502D01*
X026264Y004464D01*
X026294Y004424D01*
X026321Y004381D01*
X026344Y004337D01*
X026363Y004291D01*
X026379Y004243D01*
X026391Y004194D01*
X026399Y004145D01*
X026403Y004095D01*
X026403Y004045D01*
X026399Y003995D01*
X026391Y003946D01*
X026379Y003897D01*
X026363Y003849D01*
X026344Y003803D01*
X026321Y003759D01*
X026294Y003716D01*
X026264Y003676D01*
X026232Y003638D01*
X026196Y003603D01*
X026157Y003571D01*
X026116Y003542D01*
X026073Y003516D01*
X026028Y003494D01*
X025982Y003476D01*
X025934Y003461D01*
X025885Y003450D01*
X025836Y003443D01*
X025786Y003440D01*
X025735Y003441D01*
X025686Y003446D01*
X025636Y003455D01*
X025588Y003468D01*
X025541Y003484D01*
X025495Y003505D01*
X025451Y003529D01*
X025409Y003556D01*
X025369Y003586D01*
X025332Y003620D01*
X025298Y003657D01*
X025266Y003696D01*
X025238Y003737D01*
X025213Y003781D01*
X025192Y003826D01*
X025175Y003873D01*
X025161Y003921D01*
X025151Y003970D01*
X025145Y004020D01*
X025143Y004070D01*
X001520Y004070D02*
X001522Y004120D01*
X001528Y004170D01*
X001538Y004219D01*
X001552Y004267D01*
X001569Y004314D01*
X001590Y004359D01*
X001615Y004403D01*
X001643Y004444D01*
X001675Y004483D01*
X001709Y004520D01*
X001746Y004554D01*
X001786Y004584D01*
X001828Y004611D01*
X001872Y004635D01*
X001918Y004656D01*
X001965Y004672D01*
X002013Y004685D01*
X002063Y004694D01*
X002112Y004699D01*
X002163Y004700D01*
X002213Y004697D01*
X002262Y004690D01*
X002311Y004679D01*
X002359Y004664D01*
X002405Y004646D01*
X002450Y004624D01*
X002493Y004598D01*
X002534Y004569D01*
X002573Y004537D01*
X002609Y004502D01*
X002641Y004464D01*
X002671Y004424D01*
X002698Y004381D01*
X002721Y004337D01*
X002740Y004291D01*
X002756Y004243D01*
X002768Y004194D01*
X002776Y004145D01*
X002780Y004095D01*
X002780Y004045D01*
X002776Y003995D01*
X002768Y003946D01*
X002756Y003897D01*
X002740Y003849D01*
X002721Y003803D01*
X002698Y003759D01*
X002671Y003716D01*
X002641Y003676D01*
X002609Y003638D01*
X002573Y003603D01*
X002534Y003571D01*
X002493Y003542D01*
X002450Y003516D01*
X002405Y003494D01*
X002359Y003476D01*
X002311Y003461D01*
X002262Y003450D01*
X002213Y003443D01*
X002163Y003440D01*
X002112Y003441D01*
X002063Y003446D01*
X002013Y003455D01*
X001965Y003468D01*
X001918Y003484D01*
X001872Y003505D01*
X001828Y003529D01*
X001786Y003556D01*
X001746Y003586D01*
X001709Y003620D01*
X001675Y003657D01*
X001643Y003696D01*
X001615Y003737D01*
X001590Y003781D01*
X001569Y003826D01*
X001552Y003873D01*
X001538Y003921D01*
X001528Y003970D01*
X001522Y004020D01*
X001520Y004070D01*
D15*
X046120Y007120D02*
X047120Y007620D01*
X046120Y008120D01*
X046120Y007120D01*
D16*
X046170Y013620D02*
X046070Y013620D01*
D17*
X045585Y007854D02*
X045585Y007434D01*
X045165Y007854D01*
X045060Y007854D01*
X044954Y007749D01*
X044954Y007539D01*
X045060Y007434D01*
X044954Y007210D02*
X045375Y007210D01*
X045585Y007000D01*
X045375Y006790D01*
X044954Y006790D01*
X045060Y006565D02*
X044954Y006460D01*
X044954Y006250D01*
X045060Y006145D01*
X045165Y006145D01*
X045270Y006250D01*
X045270Y006460D01*
X045375Y006565D01*
X045480Y006565D01*
X045585Y006460D01*
X045585Y006250D01*
X045480Y006145D01*
D18*
X046220Y007620D03*
D19*
X046420Y007620D03*
D20*
X046620Y007620D03*
D21*
X046820Y007620D03*
D22*
X046970Y007620D03*
D23*
X047220Y013620D03*
D24*
X050120Y013620D03*
X050120Y012620D03*
X050120Y011620D03*
X050120Y010620D03*
X050120Y009620D03*
X050120Y008620D03*
X050120Y007620D03*
X050120Y014620D03*
X050120Y015620D03*
X050120Y016620D03*
X050120Y017620D03*
X050120Y018620D03*
X050120Y019620D03*
M02*
