%
M48
M72
T01C0.0200
T02C0.0240
T03C0.0360
T04C0.0394
T05C0.0400
T06C0.0591
T07C0.1102
T08C0.1260
%
T01
X15900Y4560
X15880Y5560
X15900Y6560
X15920Y7560
X15900Y8550
X30840Y16050
X31770Y15810
X34330Y17990
X31530Y22140
X35850Y13570
X36810Y13060
X35610Y12570
T02
X44310Y15080
X36480Y19390
X24640Y14570
X21540Y12170
T03
X49620Y12620
X50620Y12620
X50620Y13620
X49620Y13620
X49620Y14620
X50620Y14620
X50620Y15620
X49620Y15620
X49620Y16620
X50620Y16620
X50620Y17620
X49620Y17620
X49620Y18620
X50620Y18620
X50620Y19620
X49620Y19620
X49620Y11620
X50620Y11620
X50620Y10620
X49620Y10620
X49620Y9620
X50620Y9620
X50620Y8620
X49620Y8620
X49620Y7620
X50620Y7620
T04
X13125Y12003
X12242Y12003
X11360Y12003
X11340Y17580
X13145Y17580
T05
X16210Y11470
X16210Y10470
X6040Y9080
X6040Y8080
X6040Y7080
X6040Y6080
X6040Y5080
X6040Y4080
X1200Y9550
X1200Y10550
X32418Y2845
X33418Y2845
X43200Y10470
X43200Y11470
X52468Y2845
X53468Y2845
X52448Y24390
X51448Y24390
X50448Y24390
X49448Y24390
X48448Y24390
X47448Y24390
X46448Y24390
X45448Y24390
X44448Y24390
X43448Y24390
X42448Y24390
X41448Y24390
X40448Y24390
X39448Y24390
X38448Y24390
X37448Y24390
X36448Y24390
X35448Y24390
X34448Y24390
X33448Y24390
T06
X28024Y25415
X18496Y25415
T07
X14467Y14887
X10018Y14887
T08
X2150Y4070
X25773Y4070
X57270Y4070
X57270Y23760
X2150Y23760
M30
