G75*
G70*
%OFA0B0*%
%FSLAX24Y24*%
%IPPOS*%
%LPD*%
%AMOC8*
5,1,8,0,0,1.08239X$1,22.5*
%
%ADD10OC8,0.0640*%
%ADD11C,0.0680*%
%ADD12C,0.1582*%
%ADD13C,0.0674*%
%ADD14R,0.1064X0.0781*%
%ADD15R,0.0671X0.0552*%
%ADD16C,0.0671*%
%ADD17OC8,0.0710*%
%ADD18C,0.0710*%
%ADD19C,0.1497*%
%ADD20C,0.0480*%
%ADD21C,0.0440*%
%ADD22C,0.0476*%
D10*
X009923Y027320D03*
X009923Y028320D03*
X010923Y028320D03*
X010923Y027320D03*
X011923Y027320D03*
X011923Y028320D03*
X012923Y028320D03*
X012923Y027320D03*
X013923Y027320D03*
X013923Y028320D03*
X014923Y028320D03*
X014923Y027320D03*
X015923Y027320D03*
X015923Y028320D03*
X016923Y028320D03*
X016923Y027320D03*
X017923Y027320D03*
X017923Y028320D03*
X018923Y028320D03*
X018923Y027320D03*
X019923Y027320D03*
X019923Y028320D03*
X020923Y028320D03*
X020923Y027320D03*
X021923Y027320D03*
X021923Y028320D03*
D11*
X025391Y025795D02*
X025391Y025195D01*
X026391Y025195D02*
X026391Y025795D01*
X025371Y046730D02*
X025371Y047330D01*
X024371Y047330D02*
X024371Y046730D01*
X023371Y046730D02*
X023371Y047330D01*
X022371Y047330D02*
X022371Y046730D01*
X021371Y046730D02*
X021371Y047330D01*
X020371Y047330D02*
X020371Y046730D01*
X019371Y046730D02*
X019371Y047330D01*
X018371Y047330D02*
X018371Y046730D01*
X017371Y046730D02*
X017371Y047330D01*
X016371Y047330D02*
X016371Y046730D01*
X015371Y046730D02*
X015371Y047330D01*
X014371Y047330D02*
X014371Y046730D01*
X013371Y046730D02*
X013371Y047330D01*
X012371Y047330D02*
X012371Y046730D01*
X011371Y046730D02*
X011371Y047330D01*
X010371Y047330D02*
X010371Y046730D01*
X009371Y046730D02*
X009371Y047330D01*
X008371Y047330D02*
X008371Y046730D01*
X007371Y046730D02*
X007371Y047330D01*
X006371Y047330D02*
X006371Y046730D01*
X006351Y025795D02*
X006351Y025195D01*
X005351Y025195D02*
X005351Y025795D01*
X006933Y005220D02*
X006933Y004620D01*
X007933Y004620D02*
X007933Y005220D01*
X008933Y005220D02*
X008933Y004620D01*
X009933Y004620D02*
X009933Y005220D01*
X010933Y005220D02*
X010933Y004620D01*
X011933Y004620D02*
X011933Y005220D01*
D12*
X013705Y008090D02*
X015207Y008090D01*
X015207Y012539D02*
X013705Y012539D01*
D13*
X011763Y011217D03*
X011763Y009412D03*
X017340Y009432D03*
X017340Y010314D03*
X017340Y011197D03*
D14*
X003305Y030463D03*
X004063Y041490D03*
D15*
X012093Y039460D03*
X012093Y038480D03*
X012093Y037500D03*
X012093Y036850D03*
X012093Y036180D03*
X012093Y035550D03*
X012093Y034560D03*
X012093Y033580D03*
X012093Y032630D03*
X012093Y031960D03*
X012093Y030590D03*
D16*
X002478Y030956D03*
X002478Y040484D03*
D17*
X013873Y037560D03*
X020313Y031260D03*
D18*
X018913Y031260D03*
X015273Y037560D03*
D19*
X006083Y002540D03*
X006083Y021440D03*
X006083Y050970D03*
X025763Y050970D03*
X025763Y021440D03*
X025763Y002540D03*
D20*
X014013Y029960D03*
X014613Y031350D03*
X014023Y032960D03*
X014023Y034490D03*
X011473Y037980D03*
X010493Y036980D03*
X011613Y048860D03*
X017113Y040790D03*
X019113Y038840D03*
X018903Y032460D03*
X010933Y016450D03*
X009933Y016450D03*
X008933Y016450D03*
X007933Y016450D03*
X006933Y016450D03*
X006933Y018940D03*
X009973Y019240D03*
D21*
X017193Y030290D03*
X004063Y045940D03*
X002395Y028820D03*
D22*
X017798Y042700D03*
X017798Y043200D03*
X017798Y043700D03*
X017798Y044200D03*
X017798Y044700D03*
X017798Y045200D03*
X018298Y045200D03*
X018298Y044700D03*
X018298Y044700D03*
X018298Y044200D03*
X018298Y043700D03*
X018298Y043200D03*
X018298Y042700D03*
X018798Y044200D03*
X018798Y044700D03*
X018798Y045200D03*
X019298Y045200D03*
X019798Y045200D03*
X019798Y044700D03*
X019798Y044200D03*
X019298Y044200D03*
X019298Y044700D03*
X020298Y044700D03*
X020298Y045200D03*
X020298Y044200D03*
X020298Y043700D03*
X020298Y043200D03*
X020298Y042700D03*
X020798Y042700D03*
X020798Y043200D03*
X020798Y043700D03*
X020798Y044200D03*
X020798Y044700D03*
X020798Y045200D03*
M02*
