G75*
G70*
%OFA0B0*%
%FSLAX24Y24*%
%IPPOS*%
%LPD*%
%AMOC8*
5,1,8,0,0,1.08239X$1,22.5*
%
%ADD10C,0.0160*%
%ADD11C,0.0060*%
%ADD12C,0.0020*%
%ADD13C,0.0050*%
%ADD14C,0.0070*%
%ADD15C,0.0080*%
%ADD16C,0.0000*%
%ADD17R,0.0380X0.0660*%
%ADD18C,0.0040*%
D10*
X000180Y000180D02*
X000180Y053019D01*
X027763Y053019D01*
X027763Y000180D01*
X000180Y000180D01*
D11*
X004733Y002540D02*
X004735Y002613D01*
X004741Y002686D01*
X004751Y002758D01*
X004765Y002830D01*
X004782Y002901D01*
X004804Y002971D01*
X004829Y003040D01*
X004858Y003107D01*
X004890Y003172D01*
X004926Y003236D01*
X004966Y003298D01*
X005008Y003357D01*
X005054Y003414D01*
X005103Y003468D01*
X005155Y003520D01*
X005209Y003569D01*
X005266Y003615D01*
X005325Y003657D01*
X005387Y003697D01*
X005451Y003733D01*
X005516Y003765D01*
X005583Y003794D01*
X005652Y003819D01*
X005722Y003841D01*
X005793Y003858D01*
X005865Y003872D01*
X005937Y003882D01*
X006010Y003888D01*
X006083Y003890D01*
X006156Y003888D01*
X006229Y003882D01*
X006301Y003872D01*
X006373Y003858D01*
X006444Y003841D01*
X006514Y003819D01*
X006583Y003794D01*
X006650Y003765D01*
X006715Y003733D01*
X006779Y003697D01*
X006841Y003657D01*
X006900Y003615D01*
X006957Y003569D01*
X007011Y003520D01*
X007063Y003468D01*
X007112Y003414D01*
X007158Y003357D01*
X007200Y003298D01*
X007240Y003236D01*
X007276Y003172D01*
X007308Y003107D01*
X007337Y003040D01*
X007362Y002971D01*
X007384Y002901D01*
X007401Y002830D01*
X007415Y002758D01*
X007425Y002686D01*
X007431Y002613D01*
X007433Y002540D01*
X007431Y002467D01*
X007425Y002394D01*
X007415Y002322D01*
X007401Y002250D01*
X007384Y002179D01*
X007362Y002109D01*
X007337Y002040D01*
X007308Y001973D01*
X007276Y001908D01*
X007240Y001844D01*
X007200Y001782D01*
X007158Y001723D01*
X007112Y001666D01*
X007063Y001612D01*
X007011Y001560D01*
X006957Y001511D01*
X006900Y001465D01*
X006841Y001423D01*
X006779Y001383D01*
X006715Y001347D01*
X006650Y001315D01*
X006583Y001286D01*
X006514Y001261D01*
X006444Y001239D01*
X006373Y001222D01*
X006301Y001208D01*
X006229Y001198D01*
X006156Y001192D01*
X006083Y001190D01*
X006010Y001192D01*
X005937Y001198D01*
X005865Y001208D01*
X005793Y001222D01*
X005722Y001239D01*
X005652Y001261D01*
X005583Y001286D01*
X005516Y001315D01*
X005451Y001347D01*
X005387Y001383D01*
X005325Y001423D01*
X005266Y001465D01*
X005209Y001511D01*
X005155Y001560D01*
X005103Y001612D01*
X005054Y001666D01*
X005008Y001723D01*
X004966Y001782D01*
X004926Y001844D01*
X004890Y001908D01*
X004858Y001973D01*
X004829Y002040D01*
X004804Y002109D01*
X004782Y002179D01*
X004765Y002250D01*
X004751Y002322D01*
X004741Y002394D01*
X004735Y002467D01*
X004733Y002540D01*
X006683Y004420D02*
X007183Y004420D01*
X007433Y004670D01*
X007683Y004420D01*
X008183Y004420D01*
X008433Y004670D01*
X008433Y005170D01*
X008183Y005420D01*
X007683Y005420D01*
X007433Y005170D01*
X007433Y004670D01*
X007433Y005170D02*
X007183Y005420D01*
X006683Y005420D01*
X006433Y005170D01*
X006433Y004670D01*
X006683Y004420D01*
X008433Y004670D02*
X008683Y004420D01*
X009183Y004420D01*
X009433Y004670D01*
X009683Y004420D01*
X010183Y004420D01*
X010433Y004670D01*
X010683Y004420D01*
X011183Y004420D01*
X011433Y004670D01*
X011683Y004420D01*
X012183Y004420D01*
X012433Y004670D01*
X012433Y005170D01*
X012183Y005420D01*
X011683Y005420D01*
X011433Y005170D01*
X011433Y004670D01*
X011433Y005170D02*
X011183Y005420D01*
X010683Y005420D01*
X010433Y005170D01*
X010433Y004670D01*
X010433Y005170D02*
X010183Y005420D01*
X009683Y005420D01*
X009433Y005170D01*
X009433Y004670D01*
X009433Y005170D02*
X009183Y005420D01*
X008683Y005420D01*
X008433Y005170D01*
X008197Y015082D02*
X008197Y015318D01*
X008669Y015318D02*
X008669Y015082D01*
X009197Y015082D02*
X009197Y015318D01*
X009669Y015318D02*
X009669Y015082D01*
X010197Y015082D02*
X010197Y015318D01*
X010669Y015318D02*
X010669Y015082D01*
X011197Y015082D02*
X011197Y015318D01*
X011669Y015318D02*
X011669Y015082D01*
X011669Y017532D02*
X011669Y017768D01*
X011197Y017768D02*
X011197Y017532D01*
X010669Y017532D02*
X010669Y017768D01*
X010197Y017768D02*
X010197Y017532D01*
X009669Y017532D02*
X009669Y017768D01*
X009197Y017768D02*
X009197Y017532D01*
X008669Y017532D02*
X008669Y017768D01*
X008197Y017768D02*
X008197Y017532D01*
X007669Y017532D02*
X007669Y017768D01*
X007197Y017768D02*
X007197Y017532D01*
X007197Y015318D02*
X007197Y015082D01*
X007669Y015082D02*
X007669Y015318D01*
X004733Y021440D02*
X004735Y021513D01*
X004741Y021586D01*
X004751Y021658D01*
X004765Y021730D01*
X004782Y021801D01*
X004804Y021871D01*
X004829Y021940D01*
X004858Y022007D01*
X004890Y022072D01*
X004926Y022136D01*
X004966Y022198D01*
X005008Y022257D01*
X005054Y022314D01*
X005103Y022368D01*
X005155Y022420D01*
X005209Y022469D01*
X005266Y022515D01*
X005325Y022557D01*
X005387Y022597D01*
X005451Y022633D01*
X005516Y022665D01*
X005583Y022694D01*
X005652Y022719D01*
X005722Y022741D01*
X005793Y022758D01*
X005865Y022772D01*
X005937Y022782D01*
X006010Y022788D01*
X006083Y022790D01*
X006156Y022788D01*
X006229Y022782D01*
X006301Y022772D01*
X006373Y022758D01*
X006444Y022741D01*
X006514Y022719D01*
X006583Y022694D01*
X006650Y022665D01*
X006715Y022633D01*
X006779Y022597D01*
X006841Y022557D01*
X006900Y022515D01*
X006957Y022469D01*
X007011Y022420D01*
X007063Y022368D01*
X007112Y022314D01*
X007158Y022257D01*
X007200Y022198D01*
X007240Y022136D01*
X007276Y022072D01*
X007308Y022007D01*
X007337Y021940D01*
X007362Y021871D01*
X007384Y021801D01*
X007401Y021730D01*
X007415Y021658D01*
X007425Y021586D01*
X007431Y021513D01*
X007433Y021440D01*
X007431Y021367D01*
X007425Y021294D01*
X007415Y021222D01*
X007401Y021150D01*
X007384Y021079D01*
X007362Y021009D01*
X007337Y020940D01*
X007308Y020873D01*
X007276Y020808D01*
X007240Y020744D01*
X007200Y020682D01*
X007158Y020623D01*
X007112Y020566D01*
X007063Y020512D01*
X007011Y020460D01*
X006957Y020411D01*
X006900Y020365D01*
X006841Y020323D01*
X006779Y020283D01*
X006715Y020247D01*
X006650Y020215D01*
X006583Y020186D01*
X006514Y020161D01*
X006444Y020139D01*
X006373Y020122D01*
X006301Y020108D01*
X006229Y020098D01*
X006156Y020092D01*
X006083Y020090D01*
X006010Y020092D01*
X005937Y020098D01*
X005865Y020108D01*
X005793Y020122D01*
X005722Y020139D01*
X005652Y020161D01*
X005583Y020186D01*
X005516Y020215D01*
X005451Y020247D01*
X005387Y020283D01*
X005325Y020323D01*
X005266Y020365D01*
X005209Y020411D01*
X005155Y020460D01*
X005103Y020512D01*
X005054Y020566D01*
X005008Y020623D01*
X004966Y020682D01*
X004926Y020744D01*
X004890Y020808D01*
X004858Y020873D01*
X004829Y020940D01*
X004804Y021009D01*
X004782Y021079D01*
X004765Y021150D01*
X004751Y021222D01*
X004741Y021294D01*
X004735Y021367D01*
X004733Y021440D01*
X005101Y024995D02*
X005601Y024995D01*
X005851Y025245D01*
X006101Y024995D01*
X006601Y024995D01*
X006851Y025245D01*
X006851Y025745D01*
X006601Y025995D01*
X006101Y025995D01*
X005851Y025745D01*
X005851Y025245D01*
X005851Y025745D02*
X005601Y025995D01*
X005101Y025995D01*
X004851Y025745D01*
X004851Y025245D01*
X005101Y024995D01*
X007923Y026070D02*
X009623Y026070D01*
X009623Y026120D01*
X010223Y026120D01*
X010223Y026070D01*
X010773Y026070D01*
X010923Y026270D01*
X011123Y026270D01*
X011723Y026270D01*
X011923Y026270D01*
X012073Y026070D01*
X015123Y026070D01*
X015123Y026470D01*
X015123Y026570D01*
X011723Y026570D01*
X011123Y026570D01*
X008423Y026570D01*
X008423Y029070D01*
X023423Y029070D01*
X023423Y026570D01*
X021723Y026570D01*
X021123Y026570D01*
X016723Y026570D01*
X016723Y026470D01*
X016723Y026070D01*
X015123Y026070D01*
X015123Y026570D02*
X015123Y026870D01*
X016723Y026870D01*
X016723Y026570D01*
X016723Y026070D02*
X020773Y026070D01*
X020923Y026270D01*
X021123Y026270D01*
X021723Y026270D01*
X021723Y026470D01*
X021723Y026570D01*
X021723Y026270D02*
X021923Y026270D01*
X022073Y026070D01*
X023923Y026070D01*
X023923Y029570D01*
X023423Y029570D01*
X023423Y029670D01*
X022923Y029670D01*
X022923Y029570D01*
X016173Y029570D01*
X016173Y029670D01*
X015673Y029670D01*
X015673Y029570D01*
X008923Y029570D01*
X008923Y029670D01*
X008423Y029670D01*
X008423Y029570D01*
X007923Y029570D01*
X007923Y026070D01*
X011123Y026270D02*
X011123Y026470D01*
X011123Y026570D01*
X011723Y026570D02*
X011723Y026470D01*
X011723Y026270D01*
X016097Y030792D02*
X016097Y031028D01*
X016569Y031028D02*
X016569Y030792D01*
X017377Y030792D02*
X017377Y031028D01*
X017849Y031028D02*
X017849Y030792D01*
X018413Y031560D02*
X018413Y031860D01*
X018263Y031710D02*
X018563Y031710D01*
X018013Y031260D02*
X018015Y031340D01*
X018021Y031419D01*
X018031Y031498D01*
X018045Y031577D01*
X018062Y031655D01*
X018084Y031732D01*
X018109Y031807D01*
X018139Y031881D01*
X018171Y031954D01*
X018208Y032025D01*
X018248Y032094D01*
X018291Y032161D01*
X018338Y032226D01*
X018387Y032288D01*
X018440Y032348D01*
X018496Y032405D01*
X018554Y032460D01*
X018615Y032511D01*
X018679Y032559D01*
X018745Y032604D01*
X018813Y032646D01*
X018883Y032684D01*
X018955Y032718D01*
X019028Y032749D01*
X019103Y032777D01*
X019180Y032800D01*
X019257Y032820D01*
X019335Y032836D01*
X019414Y032848D01*
X019493Y032856D01*
X019573Y032860D01*
X019653Y032860D01*
X019733Y032856D01*
X019812Y032848D01*
X019891Y032836D01*
X019969Y032820D01*
X020046Y032800D01*
X020123Y032777D01*
X020198Y032749D01*
X020271Y032718D01*
X020343Y032684D01*
X020413Y032646D01*
X020481Y032604D01*
X020547Y032559D01*
X020611Y032511D01*
X020672Y032460D01*
X020730Y032405D01*
X020786Y032348D01*
X020839Y032288D01*
X020888Y032226D01*
X020935Y032161D01*
X020978Y032094D01*
X021018Y032025D01*
X021055Y031954D01*
X021087Y031881D01*
X021117Y031807D01*
X021142Y031732D01*
X021164Y031655D01*
X021181Y031577D01*
X021195Y031498D01*
X021205Y031419D01*
X021211Y031340D01*
X021213Y031260D01*
X021211Y031180D01*
X021205Y031101D01*
X021195Y031022D01*
X021181Y030943D01*
X021164Y030865D01*
X021142Y030788D01*
X021117Y030713D01*
X021087Y030639D01*
X021055Y030566D01*
X021018Y030495D01*
X020978Y030426D01*
X020935Y030359D01*
X020888Y030294D01*
X020839Y030232D01*
X020786Y030172D01*
X020730Y030115D01*
X020672Y030060D01*
X020611Y030009D01*
X020547Y029961D01*
X020481Y029916D01*
X020413Y029874D01*
X020343Y029836D01*
X020271Y029802D01*
X020198Y029771D01*
X020123Y029743D01*
X020046Y029720D01*
X019969Y029700D01*
X019891Y029684D01*
X019812Y029672D01*
X019733Y029664D01*
X019653Y029660D01*
X019573Y029660D01*
X019493Y029664D01*
X019414Y029672D01*
X019335Y029684D01*
X019257Y029700D01*
X019180Y029720D01*
X019103Y029743D01*
X019028Y029771D01*
X018955Y029802D01*
X018883Y029836D01*
X018813Y029874D01*
X018745Y029916D01*
X018679Y029961D01*
X018615Y030009D01*
X018554Y030060D01*
X018496Y030115D01*
X018440Y030172D01*
X018387Y030232D01*
X018338Y030294D01*
X018291Y030359D01*
X018248Y030426D01*
X018208Y030495D01*
X018171Y030566D01*
X018139Y030639D01*
X018109Y030713D01*
X018084Y030788D01*
X018062Y030865D01*
X018045Y030943D01*
X018031Y031022D01*
X018021Y031101D01*
X018015Y031180D01*
X018013Y031260D01*
X021123Y026570D02*
X021123Y026470D01*
X021123Y026270D01*
X024891Y025745D02*
X024891Y025245D01*
X025141Y024995D01*
X025641Y024995D01*
X025891Y025245D01*
X026141Y024995D01*
X026641Y024995D01*
X026891Y025245D01*
X026891Y025745D01*
X026641Y025995D01*
X026141Y025995D01*
X025891Y025745D01*
X025891Y025245D01*
X025891Y025745D02*
X025641Y025995D01*
X025141Y025995D01*
X024891Y025745D01*
X024413Y021440D02*
X024415Y021513D01*
X024421Y021586D01*
X024431Y021658D01*
X024445Y021730D01*
X024462Y021801D01*
X024484Y021871D01*
X024509Y021940D01*
X024538Y022007D01*
X024570Y022072D01*
X024606Y022136D01*
X024646Y022198D01*
X024688Y022257D01*
X024734Y022314D01*
X024783Y022368D01*
X024835Y022420D01*
X024889Y022469D01*
X024946Y022515D01*
X025005Y022557D01*
X025067Y022597D01*
X025131Y022633D01*
X025196Y022665D01*
X025263Y022694D01*
X025332Y022719D01*
X025402Y022741D01*
X025473Y022758D01*
X025545Y022772D01*
X025617Y022782D01*
X025690Y022788D01*
X025763Y022790D01*
X025836Y022788D01*
X025909Y022782D01*
X025981Y022772D01*
X026053Y022758D01*
X026124Y022741D01*
X026194Y022719D01*
X026263Y022694D01*
X026330Y022665D01*
X026395Y022633D01*
X026459Y022597D01*
X026521Y022557D01*
X026580Y022515D01*
X026637Y022469D01*
X026691Y022420D01*
X026743Y022368D01*
X026792Y022314D01*
X026838Y022257D01*
X026880Y022198D01*
X026920Y022136D01*
X026956Y022072D01*
X026988Y022007D01*
X027017Y021940D01*
X027042Y021871D01*
X027064Y021801D01*
X027081Y021730D01*
X027095Y021658D01*
X027105Y021586D01*
X027111Y021513D01*
X027113Y021440D01*
X027111Y021367D01*
X027105Y021294D01*
X027095Y021222D01*
X027081Y021150D01*
X027064Y021079D01*
X027042Y021009D01*
X027017Y020940D01*
X026988Y020873D01*
X026956Y020808D01*
X026920Y020744D01*
X026880Y020682D01*
X026838Y020623D01*
X026792Y020566D01*
X026743Y020512D01*
X026691Y020460D01*
X026637Y020411D01*
X026580Y020365D01*
X026521Y020323D01*
X026459Y020283D01*
X026395Y020247D01*
X026330Y020215D01*
X026263Y020186D01*
X026194Y020161D01*
X026124Y020139D01*
X026053Y020122D01*
X025981Y020108D01*
X025909Y020098D01*
X025836Y020092D01*
X025763Y020090D01*
X025690Y020092D01*
X025617Y020098D01*
X025545Y020108D01*
X025473Y020122D01*
X025402Y020139D01*
X025332Y020161D01*
X025263Y020186D01*
X025196Y020215D01*
X025131Y020247D01*
X025067Y020283D01*
X025005Y020323D01*
X024946Y020365D01*
X024889Y020411D01*
X024835Y020460D01*
X024783Y020512D01*
X024734Y020566D01*
X024688Y020623D01*
X024646Y020682D01*
X024606Y020744D01*
X024570Y020808D01*
X024538Y020873D01*
X024509Y020940D01*
X024484Y021009D01*
X024462Y021079D01*
X024445Y021150D01*
X024431Y021222D01*
X024421Y021294D01*
X024415Y021367D01*
X024413Y021440D01*
X015773Y036960D02*
X015773Y037260D01*
X015923Y037110D02*
X015623Y037110D01*
X016485Y037844D02*
X016721Y037844D01*
X016721Y038316D02*
X016485Y038316D01*
X012973Y037560D02*
X012975Y037640D01*
X012981Y037719D01*
X012991Y037798D01*
X013005Y037877D01*
X013022Y037955D01*
X013044Y038032D01*
X013069Y038107D01*
X013099Y038181D01*
X013131Y038254D01*
X013168Y038325D01*
X013208Y038394D01*
X013251Y038461D01*
X013298Y038526D01*
X013347Y038588D01*
X013400Y038648D01*
X013456Y038705D01*
X013514Y038760D01*
X013575Y038811D01*
X013639Y038859D01*
X013705Y038904D01*
X013773Y038946D01*
X013843Y038984D01*
X013915Y039018D01*
X013988Y039049D01*
X014063Y039077D01*
X014140Y039100D01*
X014217Y039120D01*
X014295Y039136D01*
X014374Y039148D01*
X014453Y039156D01*
X014533Y039160D01*
X014613Y039160D01*
X014693Y039156D01*
X014772Y039148D01*
X014851Y039136D01*
X014929Y039120D01*
X015006Y039100D01*
X015083Y039077D01*
X015158Y039049D01*
X015231Y039018D01*
X015303Y038984D01*
X015373Y038946D01*
X015441Y038904D01*
X015507Y038859D01*
X015571Y038811D01*
X015632Y038760D01*
X015690Y038705D01*
X015746Y038648D01*
X015799Y038588D01*
X015848Y038526D01*
X015895Y038461D01*
X015938Y038394D01*
X015978Y038325D01*
X016015Y038254D01*
X016047Y038181D01*
X016077Y038107D01*
X016102Y038032D01*
X016124Y037955D01*
X016141Y037877D01*
X016155Y037798D01*
X016165Y037719D01*
X016171Y037640D01*
X016173Y037560D01*
X016171Y037480D01*
X016165Y037401D01*
X016155Y037322D01*
X016141Y037243D01*
X016124Y037165D01*
X016102Y037088D01*
X016077Y037013D01*
X016047Y036939D01*
X016015Y036866D01*
X015978Y036795D01*
X015938Y036726D01*
X015895Y036659D01*
X015848Y036594D01*
X015799Y036532D01*
X015746Y036472D01*
X015690Y036415D01*
X015632Y036360D01*
X015571Y036309D01*
X015507Y036261D01*
X015441Y036216D01*
X015373Y036174D01*
X015303Y036136D01*
X015231Y036102D01*
X015158Y036071D01*
X015083Y036043D01*
X015006Y036020D01*
X014929Y036000D01*
X014851Y035984D01*
X014772Y035972D01*
X014693Y035964D01*
X014613Y035960D01*
X014533Y035960D01*
X014453Y035964D01*
X014374Y035972D01*
X014295Y035984D01*
X014217Y036000D01*
X014140Y036020D01*
X014063Y036043D01*
X013988Y036071D01*
X013915Y036102D01*
X013843Y036136D01*
X013773Y036174D01*
X013705Y036216D01*
X013639Y036261D01*
X013575Y036309D01*
X013514Y036360D01*
X013456Y036415D01*
X013400Y036472D01*
X013347Y036532D01*
X013298Y036594D01*
X013251Y036659D01*
X013208Y036726D01*
X013168Y036795D01*
X013131Y036866D01*
X013099Y036939D01*
X013069Y037013D01*
X013044Y037088D01*
X013022Y037165D01*
X013005Y037243D01*
X012991Y037322D01*
X012981Y037401D01*
X012975Y037480D01*
X012973Y037560D01*
X010521Y044934D02*
X010285Y044934D01*
X010285Y045406D02*
X010521Y045406D01*
X010621Y046530D02*
X010121Y046530D01*
X009871Y046780D01*
X009621Y046530D01*
X009121Y046530D01*
X008871Y046780D01*
X008621Y046530D01*
X008121Y046530D01*
X007871Y046780D01*
X007621Y046530D01*
X007121Y046530D01*
X006871Y046780D01*
X006621Y046530D01*
X006121Y046530D01*
X005871Y046780D01*
X005871Y047280D01*
X006121Y047530D01*
X006621Y047530D01*
X006871Y047280D01*
X007121Y047530D01*
X007621Y047530D01*
X007871Y047280D01*
X007871Y046780D01*
X007871Y047280D02*
X008121Y047530D01*
X008621Y047530D01*
X008871Y047280D01*
X009121Y047530D01*
X009621Y047530D01*
X009871Y047280D01*
X010121Y047530D01*
X010621Y047530D01*
X010871Y047280D01*
X010871Y046780D01*
X010621Y046530D01*
X010871Y046780D02*
X011121Y046530D01*
X011621Y046530D01*
X011871Y046780D01*
X012121Y046530D01*
X012621Y046530D01*
X012871Y046780D01*
X013121Y046530D01*
X013621Y046530D01*
X013871Y046780D01*
X013871Y047280D01*
X013621Y047530D01*
X013121Y047530D01*
X012871Y047280D01*
X012871Y046780D01*
X012871Y047280D02*
X012621Y047530D01*
X012121Y047530D01*
X011871Y047280D01*
X011871Y046780D01*
X011871Y047280D02*
X011621Y047530D01*
X011121Y047530D01*
X010871Y047280D01*
X009871Y047280D02*
X009871Y046780D01*
X008871Y046780D02*
X008871Y047280D01*
X006871Y047280D02*
X006871Y046780D01*
X004733Y050970D02*
X004735Y051043D01*
X004741Y051116D01*
X004751Y051188D01*
X004765Y051260D01*
X004782Y051331D01*
X004804Y051401D01*
X004829Y051470D01*
X004858Y051537D01*
X004890Y051602D01*
X004926Y051666D01*
X004966Y051728D01*
X005008Y051787D01*
X005054Y051844D01*
X005103Y051898D01*
X005155Y051950D01*
X005209Y051999D01*
X005266Y052045D01*
X005325Y052087D01*
X005387Y052127D01*
X005451Y052163D01*
X005516Y052195D01*
X005583Y052224D01*
X005652Y052249D01*
X005722Y052271D01*
X005793Y052288D01*
X005865Y052302D01*
X005937Y052312D01*
X006010Y052318D01*
X006083Y052320D01*
X006156Y052318D01*
X006229Y052312D01*
X006301Y052302D01*
X006373Y052288D01*
X006444Y052271D01*
X006514Y052249D01*
X006583Y052224D01*
X006650Y052195D01*
X006715Y052163D01*
X006779Y052127D01*
X006841Y052087D01*
X006900Y052045D01*
X006957Y051999D01*
X007011Y051950D01*
X007063Y051898D01*
X007112Y051844D01*
X007158Y051787D01*
X007200Y051728D01*
X007240Y051666D01*
X007276Y051602D01*
X007308Y051537D01*
X007337Y051470D01*
X007362Y051401D01*
X007384Y051331D01*
X007401Y051260D01*
X007415Y051188D01*
X007425Y051116D01*
X007431Y051043D01*
X007433Y050970D01*
X007431Y050897D01*
X007425Y050824D01*
X007415Y050752D01*
X007401Y050680D01*
X007384Y050609D01*
X007362Y050539D01*
X007337Y050470D01*
X007308Y050403D01*
X007276Y050338D01*
X007240Y050274D01*
X007200Y050212D01*
X007158Y050153D01*
X007112Y050096D01*
X007063Y050042D01*
X007011Y049990D01*
X006957Y049941D01*
X006900Y049895D01*
X006841Y049853D01*
X006779Y049813D01*
X006715Y049777D01*
X006650Y049745D01*
X006583Y049716D01*
X006514Y049691D01*
X006444Y049669D01*
X006373Y049652D01*
X006301Y049638D01*
X006229Y049628D01*
X006156Y049622D01*
X006083Y049620D01*
X006010Y049622D01*
X005937Y049628D01*
X005865Y049638D01*
X005793Y049652D01*
X005722Y049669D01*
X005652Y049691D01*
X005583Y049716D01*
X005516Y049745D01*
X005451Y049777D01*
X005387Y049813D01*
X005325Y049853D01*
X005266Y049895D01*
X005209Y049941D01*
X005155Y049990D01*
X005103Y050042D01*
X005054Y050096D01*
X005008Y050153D01*
X004966Y050212D01*
X004926Y050274D01*
X004890Y050338D01*
X004858Y050403D01*
X004829Y050470D01*
X004804Y050539D01*
X004782Y050609D01*
X004765Y050680D01*
X004751Y050752D01*
X004741Y050824D01*
X004735Y050897D01*
X004733Y050970D01*
X013871Y047280D02*
X014121Y047530D01*
X014621Y047530D01*
X014871Y047280D01*
X015121Y047530D01*
X015621Y047530D01*
X015871Y047280D01*
X016121Y047530D01*
X016621Y047530D01*
X016871Y047280D01*
X016871Y046780D01*
X016621Y046530D01*
X016121Y046530D01*
X015871Y046780D01*
X015621Y046530D01*
X015121Y046530D01*
X014871Y046780D01*
X014621Y046530D01*
X014121Y046530D01*
X013871Y046780D01*
X014871Y046780D02*
X014871Y047280D01*
X015871Y047280D02*
X015871Y046780D01*
X016871Y046780D02*
X017121Y046530D01*
X017621Y046530D01*
X017871Y046780D01*
X018121Y046530D01*
X018621Y046530D01*
X018871Y046780D01*
X019121Y046530D01*
X019621Y046530D01*
X019871Y046780D01*
X019871Y047280D01*
X019621Y047530D01*
X019121Y047530D01*
X018871Y047280D01*
X018871Y046780D01*
X018871Y047280D02*
X018621Y047530D01*
X018121Y047530D01*
X017871Y047280D01*
X017871Y046780D01*
X017871Y047280D02*
X017621Y047530D01*
X017121Y047530D01*
X016871Y047280D01*
X019871Y047280D02*
X020121Y047530D01*
X020621Y047530D01*
X020871Y047280D01*
X021121Y047530D01*
X021621Y047530D01*
X021871Y047280D01*
X022121Y047530D01*
X022621Y047530D01*
X022871Y047280D01*
X022871Y046780D01*
X022621Y046530D01*
X022121Y046530D01*
X021871Y046780D01*
X021621Y046530D01*
X021121Y046530D01*
X020871Y046780D01*
X020621Y046530D01*
X020121Y046530D01*
X019871Y046780D01*
X020871Y046780D02*
X020871Y047280D01*
X021871Y047280D02*
X021871Y046780D01*
X022871Y046780D02*
X023121Y046530D01*
X023621Y046530D01*
X023871Y046780D01*
X024121Y046530D01*
X024621Y046530D01*
X024871Y046780D01*
X025121Y046530D01*
X025621Y046530D01*
X025871Y046780D01*
X025871Y047280D01*
X025621Y047530D01*
X025121Y047530D01*
X024871Y047280D01*
X024871Y046780D01*
X024871Y047280D02*
X024621Y047530D01*
X024121Y047530D01*
X023871Y047280D01*
X023871Y046780D01*
X023871Y047280D02*
X023621Y047530D01*
X023121Y047530D01*
X022871Y047280D01*
X024413Y050970D02*
X024415Y051043D01*
X024421Y051116D01*
X024431Y051188D01*
X024445Y051260D01*
X024462Y051331D01*
X024484Y051401D01*
X024509Y051470D01*
X024538Y051537D01*
X024570Y051602D01*
X024606Y051666D01*
X024646Y051728D01*
X024688Y051787D01*
X024734Y051844D01*
X024783Y051898D01*
X024835Y051950D01*
X024889Y051999D01*
X024946Y052045D01*
X025005Y052087D01*
X025067Y052127D01*
X025131Y052163D01*
X025196Y052195D01*
X025263Y052224D01*
X025332Y052249D01*
X025402Y052271D01*
X025473Y052288D01*
X025545Y052302D01*
X025617Y052312D01*
X025690Y052318D01*
X025763Y052320D01*
X025836Y052318D01*
X025909Y052312D01*
X025981Y052302D01*
X026053Y052288D01*
X026124Y052271D01*
X026194Y052249D01*
X026263Y052224D01*
X026330Y052195D01*
X026395Y052163D01*
X026459Y052127D01*
X026521Y052087D01*
X026580Y052045D01*
X026637Y051999D01*
X026691Y051950D01*
X026743Y051898D01*
X026792Y051844D01*
X026838Y051787D01*
X026880Y051728D01*
X026920Y051666D01*
X026956Y051602D01*
X026988Y051537D01*
X027017Y051470D01*
X027042Y051401D01*
X027064Y051331D01*
X027081Y051260D01*
X027095Y051188D01*
X027105Y051116D01*
X027111Y051043D01*
X027113Y050970D01*
X027111Y050897D01*
X027105Y050824D01*
X027095Y050752D01*
X027081Y050680D01*
X027064Y050609D01*
X027042Y050539D01*
X027017Y050470D01*
X026988Y050403D01*
X026956Y050338D01*
X026920Y050274D01*
X026880Y050212D01*
X026838Y050153D01*
X026792Y050096D01*
X026743Y050042D01*
X026691Y049990D01*
X026637Y049941D01*
X026580Y049895D01*
X026521Y049853D01*
X026459Y049813D01*
X026395Y049777D01*
X026330Y049745D01*
X026263Y049716D01*
X026194Y049691D01*
X026124Y049669D01*
X026053Y049652D01*
X025981Y049638D01*
X025909Y049628D01*
X025836Y049622D01*
X025763Y049620D01*
X025690Y049622D01*
X025617Y049628D01*
X025545Y049638D01*
X025473Y049652D01*
X025402Y049669D01*
X025332Y049691D01*
X025263Y049716D01*
X025196Y049745D01*
X025131Y049777D01*
X025067Y049813D01*
X025005Y049853D01*
X024946Y049895D01*
X024889Y049941D01*
X024835Y049990D01*
X024783Y050042D01*
X024734Y050096D01*
X024688Y050153D01*
X024646Y050212D01*
X024606Y050274D01*
X024570Y050338D01*
X024538Y050403D01*
X024509Y050470D01*
X024484Y050539D01*
X024462Y050609D01*
X024445Y050680D01*
X024431Y050752D01*
X024421Y050824D01*
X024415Y050897D01*
X024413Y050970D01*
X024413Y002540D02*
X024415Y002613D01*
X024421Y002686D01*
X024431Y002758D01*
X024445Y002830D01*
X024462Y002901D01*
X024484Y002971D01*
X024509Y003040D01*
X024538Y003107D01*
X024570Y003172D01*
X024606Y003236D01*
X024646Y003298D01*
X024688Y003357D01*
X024734Y003414D01*
X024783Y003468D01*
X024835Y003520D01*
X024889Y003569D01*
X024946Y003615D01*
X025005Y003657D01*
X025067Y003697D01*
X025131Y003733D01*
X025196Y003765D01*
X025263Y003794D01*
X025332Y003819D01*
X025402Y003841D01*
X025473Y003858D01*
X025545Y003872D01*
X025617Y003882D01*
X025690Y003888D01*
X025763Y003890D01*
X025836Y003888D01*
X025909Y003882D01*
X025981Y003872D01*
X026053Y003858D01*
X026124Y003841D01*
X026194Y003819D01*
X026263Y003794D01*
X026330Y003765D01*
X026395Y003733D01*
X026459Y003697D01*
X026521Y003657D01*
X026580Y003615D01*
X026637Y003569D01*
X026691Y003520D01*
X026743Y003468D01*
X026792Y003414D01*
X026838Y003357D01*
X026880Y003298D01*
X026920Y003236D01*
X026956Y003172D01*
X026988Y003107D01*
X027017Y003040D01*
X027042Y002971D01*
X027064Y002901D01*
X027081Y002830D01*
X027095Y002758D01*
X027105Y002686D01*
X027111Y002613D01*
X027113Y002540D01*
X027111Y002467D01*
X027105Y002394D01*
X027095Y002322D01*
X027081Y002250D01*
X027064Y002179D01*
X027042Y002109D01*
X027017Y002040D01*
X026988Y001973D01*
X026956Y001908D01*
X026920Y001844D01*
X026880Y001782D01*
X026838Y001723D01*
X026792Y001666D01*
X026743Y001612D01*
X026691Y001560D01*
X026637Y001511D01*
X026580Y001465D01*
X026521Y001423D01*
X026459Y001383D01*
X026395Y001347D01*
X026330Y001315D01*
X026263Y001286D01*
X026194Y001261D01*
X026124Y001239D01*
X026053Y001222D01*
X025981Y001208D01*
X025909Y001198D01*
X025836Y001192D01*
X025763Y001190D01*
X025690Y001192D01*
X025617Y001198D01*
X025545Y001208D01*
X025473Y001222D01*
X025402Y001239D01*
X025332Y001261D01*
X025263Y001286D01*
X025196Y001315D01*
X025131Y001347D01*
X025067Y001383D01*
X025005Y001423D01*
X024946Y001465D01*
X024889Y001511D01*
X024835Y001560D01*
X024783Y001612D01*
X024734Y001666D01*
X024688Y001723D01*
X024646Y001782D01*
X024606Y001844D01*
X024570Y001908D01*
X024538Y001973D01*
X024509Y002040D01*
X024484Y002109D01*
X024462Y002179D01*
X024445Y002250D01*
X024431Y002322D01*
X024421Y002394D01*
X024415Y002467D01*
X024413Y002540D01*
D12*
X023523Y026470D02*
X021723Y026470D01*
X021123Y026470D02*
X016723Y026470D01*
X015123Y026470D02*
X011723Y026470D01*
X011123Y026470D02*
X008323Y026470D01*
X008323Y029170D01*
X023523Y029170D01*
X023523Y026470D01*
D13*
X023582Y030135D02*
X023749Y030135D01*
X023665Y030135D02*
X023665Y030385D01*
X023582Y030302D01*
X023472Y030344D02*
X023472Y030177D01*
X023431Y030135D01*
X023306Y030135D01*
X023306Y030385D01*
X023431Y030385D01*
X023472Y030344D01*
X023698Y032955D02*
X023865Y032955D01*
X023974Y032955D02*
X024141Y032955D01*
X024058Y032955D02*
X024058Y033205D01*
X023974Y033122D01*
X023698Y033205D02*
X023698Y032955D01*
X020537Y033197D02*
X020496Y033155D01*
X020412Y033155D01*
X020370Y033197D01*
X020537Y033364D01*
X020537Y033197D01*
X020537Y033364D02*
X020496Y033405D01*
X020412Y033405D01*
X020370Y033364D01*
X020370Y033197D01*
X020261Y033155D02*
X020094Y033155D01*
X020178Y033155D02*
X020178Y033405D01*
X020094Y033322D01*
X019985Y033364D02*
X019943Y033405D01*
X019860Y033405D01*
X019818Y033364D01*
X019818Y033197D01*
X019860Y033155D01*
X019943Y033155D01*
X019985Y033197D01*
X017673Y031994D02*
X017673Y031910D01*
X017631Y031869D01*
X017548Y031910D02*
X017548Y032036D01*
X017631Y032036D02*
X017464Y032036D01*
X017423Y031994D01*
X017423Y031910D01*
X017464Y031869D01*
X017506Y031869D01*
X017548Y031910D01*
X017673Y031994D02*
X017631Y032036D01*
X017673Y031759D02*
X017590Y031676D01*
X017590Y031718D02*
X017590Y031593D01*
X017673Y031593D02*
X017423Y031593D01*
X017423Y031718D01*
X017464Y031759D01*
X017548Y031759D01*
X017590Y031718D01*
X016433Y031749D02*
X016350Y031666D01*
X016350Y031708D02*
X016350Y031583D01*
X016433Y031583D02*
X016183Y031583D01*
X016183Y031708D01*
X016224Y031749D01*
X016308Y031749D01*
X016350Y031708D01*
X016350Y031859D02*
X016308Y031900D01*
X016308Y031984D01*
X016350Y032026D01*
X016391Y032026D01*
X016433Y031984D01*
X016433Y031900D01*
X016391Y031859D01*
X016350Y031859D01*
X016308Y031900D02*
X016266Y031859D01*
X016224Y031859D01*
X016183Y031900D01*
X016183Y031984D01*
X016224Y032026D01*
X016266Y032026D01*
X016308Y031984D01*
X016309Y026695D02*
X016159Y026620D01*
X016008Y026470D01*
X016234Y026470D01*
X016309Y026395D01*
X016309Y026320D01*
X016234Y026245D01*
X016083Y026245D01*
X016008Y026320D01*
X016008Y026470D01*
X015848Y026545D02*
X015848Y026620D01*
X015773Y026695D01*
X015623Y026695D01*
X015548Y026620D01*
X015848Y026545D02*
X015548Y026245D01*
X015848Y026245D01*
X011559Y018600D02*
X011559Y018559D01*
X011392Y018392D01*
X011392Y018350D01*
X011282Y018350D02*
X011199Y018433D01*
X011241Y018433D02*
X011116Y018433D01*
X011116Y018350D02*
X011116Y018600D01*
X011241Y018600D01*
X011282Y018559D01*
X011282Y018475D01*
X011241Y018433D01*
X011392Y018600D02*
X011559Y018600D01*
X010589Y018650D02*
X010505Y018609D01*
X010422Y018525D01*
X010547Y018525D01*
X010589Y018483D01*
X010589Y018442D01*
X010547Y018400D01*
X010463Y018400D01*
X010422Y018442D01*
X010422Y018525D01*
X010312Y018525D02*
X010271Y018483D01*
X010146Y018483D01*
X010229Y018483D02*
X010312Y018400D01*
X010312Y018525D02*
X010312Y018609D01*
X010271Y018650D01*
X010146Y018650D01*
X010146Y018400D01*
X009539Y018472D02*
X009497Y018430D01*
X009413Y018430D01*
X009372Y018472D01*
X009372Y018555D02*
X009455Y018597D01*
X009497Y018597D01*
X009539Y018555D01*
X009539Y018472D01*
X009372Y018555D02*
X009372Y018680D01*
X009539Y018680D01*
X009262Y018639D02*
X009262Y018555D01*
X009221Y018513D01*
X009096Y018513D01*
X009179Y018513D02*
X009262Y018430D01*
X009096Y018430D02*
X009096Y018680D01*
X009221Y018680D01*
X009262Y018639D01*
X008609Y018585D02*
X008442Y018585D01*
X008567Y018710D01*
X008567Y018460D01*
X008332Y018460D02*
X008249Y018543D01*
X008291Y018543D02*
X008166Y018543D01*
X008166Y018460D02*
X008166Y018710D01*
X008291Y018710D01*
X008332Y018669D01*
X008332Y018585D01*
X008291Y018543D01*
X007599Y018543D02*
X007599Y018502D01*
X007557Y018460D01*
X007473Y018460D01*
X007432Y018502D01*
X007322Y018460D02*
X007239Y018543D01*
X007281Y018543D02*
X007156Y018543D01*
X007156Y018460D02*
X007156Y018710D01*
X007281Y018710D01*
X007322Y018669D01*
X007322Y018585D01*
X007281Y018543D01*
X007432Y018669D02*
X007473Y018710D01*
X007557Y018710D01*
X007599Y018669D01*
X007599Y018627D01*
X007557Y018585D01*
X007599Y018543D01*
X007557Y018585D02*
X007515Y018585D01*
X007493Y016296D02*
X007493Y016129D01*
X007326Y016296D01*
X007284Y016296D01*
X007243Y016254D01*
X007243Y016170D01*
X007284Y016129D01*
X007284Y016019D02*
X007243Y015978D01*
X007243Y015894D01*
X007284Y015853D01*
X007451Y015853D01*
X007493Y015894D01*
X007493Y015978D01*
X007451Y016019D01*
X008253Y015978D02*
X008253Y015894D01*
X008294Y015853D01*
X008461Y015853D01*
X008503Y015894D01*
X008503Y015978D01*
X008461Y016019D01*
X008461Y016129D02*
X008503Y016170D01*
X008503Y016254D01*
X008461Y016296D01*
X008420Y016296D01*
X008378Y016254D01*
X008378Y016212D01*
X008378Y016254D02*
X008336Y016296D01*
X008294Y016296D01*
X008253Y016254D01*
X008253Y016170D01*
X008294Y016129D01*
X008294Y016019D02*
X008253Y015978D01*
X009313Y015978D02*
X009313Y015894D01*
X009354Y015853D01*
X009521Y015853D01*
X009563Y015894D01*
X009563Y015978D01*
X009521Y016019D01*
X009438Y016129D02*
X009438Y016296D01*
X009563Y016254D02*
X009313Y016254D01*
X009438Y016129D01*
X009354Y016019D02*
X009313Y015978D01*
X010273Y015978D02*
X010273Y015894D01*
X010314Y015853D01*
X010481Y015853D01*
X010523Y015894D01*
X010523Y015978D01*
X010481Y016019D01*
X010481Y016129D02*
X010523Y016170D01*
X010523Y016254D01*
X010481Y016296D01*
X010398Y016296D01*
X010356Y016254D01*
X010356Y016212D01*
X010398Y016129D01*
X010273Y016129D01*
X010273Y016296D01*
X010314Y016019D02*
X010273Y015978D01*
X011273Y015988D02*
X011273Y015904D01*
X011314Y015863D01*
X011481Y015863D01*
X011523Y015904D01*
X011523Y015988D01*
X011481Y016029D01*
X011481Y016139D02*
X011523Y016180D01*
X011523Y016264D01*
X011481Y016306D01*
X011440Y016306D01*
X011398Y016264D01*
X011398Y016139D01*
X011481Y016139D01*
X011398Y016139D02*
X011314Y016222D01*
X011273Y016306D01*
X011314Y016029D02*
X011273Y015988D01*
X009248Y027095D02*
X008948Y027095D01*
X009098Y027095D02*
X009098Y027545D01*
X008948Y027395D01*
X008948Y028095D02*
X009248Y028395D01*
X009248Y028470D01*
X009173Y028545D01*
X009023Y028545D01*
X008948Y028470D01*
X008948Y028095D02*
X009248Y028095D01*
X014431Y039355D02*
X014514Y039355D01*
X014556Y039397D01*
X014666Y039355D02*
X014832Y039355D01*
X014749Y039355D02*
X014749Y039605D01*
X014666Y039522D01*
X014556Y039564D02*
X014514Y039605D01*
X014431Y039605D01*
X014389Y039564D01*
X014389Y039397D01*
X014431Y039355D01*
X014942Y039355D02*
X015109Y039355D01*
X015025Y039355D02*
X015025Y039605D01*
X014942Y039522D01*
X015540Y038160D02*
X015498Y038119D01*
X015498Y037952D01*
X015540Y037910D01*
X015623Y037910D01*
X015665Y037952D01*
X015774Y037952D02*
X015774Y037910D01*
X015774Y037952D02*
X015941Y038119D01*
X015941Y038160D01*
X015774Y038160D01*
X015665Y038119D02*
X015623Y038160D01*
X015540Y038160D01*
X010539Y044450D02*
X010456Y044450D01*
X010414Y044492D01*
X010414Y044533D01*
X010456Y044575D01*
X010539Y044575D01*
X010581Y044533D01*
X010581Y044492D01*
X010539Y044450D01*
X010539Y044575D02*
X010581Y044617D01*
X010581Y044659D01*
X010539Y044700D01*
X010456Y044700D01*
X010414Y044659D01*
X010414Y044617D01*
X010456Y044575D01*
X010305Y044492D02*
X010263Y044450D01*
X010180Y044450D01*
X010138Y044492D01*
X010138Y044659D01*
X010180Y044700D01*
X010263Y044700D01*
X010305Y044659D01*
D14*
X022033Y025706D02*
X021928Y025600D01*
X021928Y025495D01*
X022033Y025390D01*
X022243Y025390D01*
X022348Y025285D01*
X022348Y025180D01*
X022243Y025075D01*
X022033Y025075D01*
X021928Y025180D01*
X022033Y025706D02*
X022243Y025706D01*
X022348Y025600D01*
X022573Y025706D02*
X022573Y025285D01*
X022783Y025075D01*
X022993Y025285D01*
X022993Y025706D01*
X023217Y025495D02*
X023427Y025706D01*
X023427Y025075D01*
X023217Y025075D02*
X023637Y025075D01*
D15*
X025015Y021440D02*
X025017Y021495D01*
X025023Y021549D01*
X025033Y021603D01*
X025047Y021655D01*
X025064Y021707D01*
X025086Y021757D01*
X025111Y021806D01*
X025139Y021853D01*
X025171Y021897D01*
X025206Y021939D01*
X025244Y021978D01*
X025285Y022015D01*
X025328Y022048D01*
X025373Y022078D01*
X025421Y022105D01*
X025470Y022128D01*
X025521Y022148D01*
X025574Y022164D01*
X025627Y022176D01*
X025681Y022184D01*
X025736Y022188D01*
X025790Y022188D01*
X025845Y022184D01*
X025899Y022176D01*
X025952Y022164D01*
X026005Y022148D01*
X026056Y022128D01*
X026105Y022105D01*
X026153Y022078D01*
X026198Y022048D01*
X026241Y022015D01*
X026282Y021978D01*
X026320Y021939D01*
X026355Y021897D01*
X026387Y021853D01*
X026415Y021806D01*
X026440Y021757D01*
X026462Y021707D01*
X026479Y021655D01*
X026493Y021603D01*
X026503Y021549D01*
X026509Y021495D01*
X026511Y021440D01*
X026509Y021385D01*
X026503Y021331D01*
X026493Y021277D01*
X026479Y021225D01*
X026462Y021173D01*
X026440Y021123D01*
X026415Y021074D01*
X026387Y021027D01*
X026355Y020983D01*
X026320Y020941D01*
X026282Y020902D01*
X026241Y020865D01*
X026198Y020832D01*
X026153Y020802D01*
X026105Y020775D01*
X026056Y020752D01*
X026005Y020732D01*
X025952Y020716D01*
X025899Y020704D01*
X025845Y020696D01*
X025790Y020692D01*
X025736Y020692D01*
X025681Y020696D01*
X025627Y020704D01*
X025574Y020716D01*
X025521Y020732D01*
X025470Y020752D01*
X025421Y020775D01*
X025373Y020802D01*
X025328Y020832D01*
X025285Y020865D01*
X025244Y020902D01*
X025206Y020941D01*
X025171Y020983D01*
X025139Y021027D01*
X025111Y021074D01*
X025086Y021123D01*
X025064Y021173D01*
X025047Y021225D01*
X025033Y021277D01*
X025023Y021331D01*
X025017Y021385D01*
X025015Y021440D01*
X023270Y030866D02*
X023270Y031654D01*
X023270Y031260D02*
X022730Y031654D01*
X022730Y030866D01*
X023270Y031260D01*
X024125Y034058D02*
X024125Y035042D01*
X024125Y034058D02*
X019401Y034058D01*
X019401Y035042D01*
X019401Y037798D02*
X019401Y038782D01*
X024125Y038782D01*
X024125Y037798D01*
X021249Y041036D02*
X017237Y041036D01*
X017633Y045730D02*
X017773Y045730D01*
X017703Y045730D02*
X017703Y046150D01*
X017633Y046150D02*
X017773Y046150D01*
X017940Y046080D02*
X017940Y045800D01*
X018010Y045730D01*
X018150Y045730D01*
X018220Y045800D01*
X018400Y045730D02*
X018681Y046010D01*
X018681Y046080D01*
X018610Y046150D01*
X018470Y046150D01*
X018400Y046080D01*
X018220Y046080D02*
X018150Y046150D01*
X018010Y046150D01*
X017940Y046080D01*
X018400Y045730D02*
X018681Y045730D01*
X014755Y036300D02*
X014755Y035880D01*
X014615Y035880D02*
X014896Y035880D01*
X015055Y035700D02*
X014723Y035700D01*
X014723Y035680D02*
X014721Y035650D01*
X014716Y035620D01*
X014707Y035591D01*
X014694Y035564D01*
X014679Y035538D01*
X014660Y035514D01*
X014639Y035493D01*
X014615Y035474D01*
X014589Y035459D01*
X014562Y035446D01*
X014533Y035437D01*
X014503Y035432D01*
X014473Y035430D01*
X014443Y035432D01*
X014413Y035437D01*
X014384Y035446D01*
X014357Y035459D01*
X014331Y035474D01*
X014307Y035493D01*
X014286Y035514D01*
X014267Y035538D01*
X014252Y035564D01*
X014239Y035591D01*
X014230Y035620D01*
X014225Y035650D01*
X014223Y035680D01*
X014223Y035700D02*
X013827Y035700D01*
X013827Y035701D02*
X013807Y035696D01*
X013788Y035688D01*
X013770Y035677D01*
X013754Y035664D01*
X013741Y035648D01*
X013730Y035631D01*
X013722Y035612D01*
X013717Y035592D01*
X013715Y035571D01*
X013716Y035550D01*
X013717Y035550D02*
X013717Y032171D01*
X013716Y032170D02*
X013721Y032150D01*
X013729Y032131D01*
X013740Y032113D01*
X013753Y032097D01*
X013769Y032084D01*
X013786Y032073D01*
X013805Y032065D01*
X013825Y032060D01*
X013846Y032058D01*
X013867Y032059D01*
X013867Y032060D02*
X015099Y032060D01*
X015122Y032062D01*
X015145Y032067D01*
X015167Y032076D01*
X015187Y032089D01*
X015205Y032104D01*
X015220Y032122D01*
X015233Y032142D01*
X015242Y032164D01*
X015247Y032187D01*
X015249Y032210D01*
X015249Y035550D01*
X015250Y035550D02*
X015245Y035574D01*
X015237Y035597D01*
X015226Y035618D01*
X015212Y035638D01*
X015195Y035656D01*
X015176Y035671D01*
X015155Y035684D01*
X015133Y035693D01*
X015109Y035699D01*
X015085Y035701D01*
X015060Y035700D01*
X014615Y036160D02*
X014755Y036300D01*
X014435Y036230D02*
X014365Y036300D01*
X014225Y036300D01*
X014155Y036230D01*
X014155Y035950D01*
X014225Y035880D01*
X014365Y035880D01*
X014435Y035950D01*
X013988Y035880D02*
X013848Y035880D01*
X013918Y035880D02*
X013918Y036300D01*
X013848Y036300D02*
X013988Y036300D01*
X005335Y050970D02*
X005337Y051025D01*
X005343Y051079D01*
X005353Y051133D01*
X005367Y051185D01*
X005384Y051237D01*
X005406Y051287D01*
X005431Y051336D01*
X005459Y051383D01*
X005491Y051427D01*
X005526Y051469D01*
X005564Y051508D01*
X005605Y051545D01*
X005648Y051578D01*
X005693Y051608D01*
X005741Y051635D01*
X005790Y051658D01*
X005841Y051678D01*
X005894Y051694D01*
X005947Y051706D01*
X006001Y051714D01*
X006056Y051718D01*
X006110Y051718D01*
X006165Y051714D01*
X006219Y051706D01*
X006272Y051694D01*
X006325Y051678D01*
X006376Y051658D01*
X006425Y051635D01*
X006473Y051608D01*
X006518Y051578D01*
X006561Y051545D01*
X006602Y051508D01*
X006640Y051469D01*
X006675Y051427D01*
X006707Y051383D01*
X006735Y051336D01*
X006760Y051287D01*
X006782Y051237D01*
X006799Y051185D01*
X006813Y051133D01*
X006823Y051079D01*
X006829Y051025D01*
X006831Y050970D01*
X006829Y050915D01*
X006823Y050861D01*
X006813Y050807D01*
X006799Y050755D01*
X006782Y050703D01*
X006760Y050653D01*
X006735Y050604D01*
X006707Y050557D01*
X006675Y050513D01*
X006640Y050471D01*
X006602Y050432D01*
X006561Y050395D01*
X006518Y050362D01*
X006473Y050332D01*
X006425Y050305D01*
X006376Y050282D01*
X006325Y050262D01*
X006272Y050246D01*
X006219Y050234D01*
X006165Y050226D01*
X006110Y050222D01*
X006056Y050222D01*
X006001Y050226D01*
X005947Y050234D01*
X005894Y050246D01*
X005841Y050262D01*
X005790Y050282D01*
X005741Y050305D01*
X005693Y050332D01*
X005648Y050362D01*
X005605Y050395D01*
X005564Y050432D01*
X005526Y050471D01*
X005491Y050513D01*
X005459Y050557D01*
X005431Y050604D01*
X005406Y050653D01*
X005384Y050703D01*
X005367Y050755D01*
X005353Y050807D01*
X005343Y050861D01*
X005337Y050915D01*
X005335Y050970D01*
X005335Y021440D02*
X005337Y021495D01*
X005343Y021549D01*
X005353Y021603D01*
X005367Y021655D01*
X005384Y021707D01*
X005406Y021757D01*
X005431Y021806D01*
X005459Y021853D01*
X005491Y021897D01*
X005526Y021939D01*
X005564Y021978D01*
X005605Y022015D01*
X005648Y022048D01*
X005693Y022078D01*
X005741Y022105D01*
X005790Y022128D01*
X005841Y022148D01*
X005894Y022164D01*
X005947Y022176D01*
X006001Y022184D01*
X006056Y022188D01*
X006110Y022188D01*
X006165Y022184D01*
X006219Y022176D01*
X006272Y022164D01*
X006325Y022148D01*
X006376Y022128D01*
X006425Y022105D01*
X006473Y022078D01*
X006518Y022048D01*
X006561Y022015D01*
X006602Y021978D01*
X006640Y021939D01*
X006675Y021897D01*
X006707Y021853D01*
X006735Y021806D01*
X006760Y021757D01*
X006782Y021707D01*
X006799Y021655D01*
X006813Y021603D01*
X006823Y021549D01*
X006829Y021495D01*
X006831Y021440D01*
X006829Y021385D01*
X006823Y021331D01*
X006813Y021277D01*
X006799Y021225D01*
X006782Y021173D01*
X006760Y021123D01*
X006735Y021074D01*
X006707Y021027D01*
X006675Y020983D01*
X006640Y020941D01*
X006602Y020902D01*
X006561Y020865D01*
X006518Y020832D01*
X006473Y020802D01*
X006425Y020775D01*
X006376Y020752D01*
X006325Y020732D01*
X006272Y020716D01*
X006219Y020704D01*
X006165Y020696D01*
X006110Y020692D01*
X006056Y020692D01*
X006001Y020696D01*
X005947Y020704D01*
X005894Y020716D01*
X005841Y020732D01*
X005790Y020752D01*
X005741Y020775D01*
X005693Y020802D01*
X005648Y020832D01*
X005605Y020865D01*
X005564Y020902D01*
X005526Y020941D01*
X005491Y020983D01*
X005459Y021027D01*
X005431Y021074D01*
X005406Y021123D01*
X005384Y021173D01*
X005367Y021225D01*
X005353Y021277D01*
X005343Y021331D01*
X005337Y021385D01*
X005335Y021440D01*
X005335Y002540D02*
X005337Y002595D01*
X005343Y002649D01*
X005353Y002703D01*
X005367Y002755D01*
X005384Y002807D01*
X005406Y002857D01*
X005431Y002906D01*
X005459Y002953D01*
X005491Y002997D01*
X005526Y003039D01*
X005564Y003078D01*
X005605Y003115D01*
X005648Y003148D01*
X005693Y003178D01*
X005741Y003205D01*
X005790Y003228D01*
X005841Y003248D01*
X005894Y003264D01*
X005947Y003276D01*
X006001Y003284D01*
X006056Y003288D01*
X006110Y003288D01*
X006165Y003284D01*
X006219Y003276D01*
X006272Y003264D01*
X006325Y003248D01*
X006376Y003228D01*
X006425Y003205D01*
X006473Y003178D01*
X006518Y003148D01*
X006561Y003115D01*
X006602Y003078D01*
X006640Y003039D01*
X006675Y002997D01*
X006707Y002953D01*
X006735Y002906D01*
X006760Y002857D01*
X006782Y002807D01*
X006799Y002755D01*
X006813Y002703D01*
X006823Y002649D01*
X006829Y002595D01*
X006831Y002540D01*
X006829Y002485D01*
X006823Y002431D01*
X006813Y002377D01*
X006799Y002325D01*
X006782Y002273D01*
X006760Y002223D01*
X006735Y002174D01*
X006707Y002127D01*
X006675Y002083D01*
X006640Y002041D01*
X006602Y002002D01*
X006561Y001965D01*
X006518Y001932D01*
X006473Y001902D01*
X006425Y001875D01*
X006376Y001852D01*
X006325Y001832D01*
X006272Y001816D01*
X006219Y001804D01*
X006165Y001796D01*
X006110Y001792D01*
X006056Y001792D01*
X006001Y001796D01*
X005947Y001804D01*
X005894Y001816D01*
X005841Y001832D01*
X005790Y001852D01*
X005741Y001875D01*
X005693Y001902D01*
X005648Y001932D01*
X005605Y001965D01*
X005564Y002002D01*
X005526Y002041D01*
X005491Y002083D01*
X005459Y002127D01*
X005431Y002174D01*
X005406Y002223D01*
X005384Y002273D01*
X005367Y002325D01*
X005353Y002377D01*
X005343Y002431D01*
X005337Y002485D01*
X005335Y002540D01*
X025015Y002540D02*
X025017Y002595D01*
X025023Y002649D01*
X025033Y002703D01*
X025047Y002755D01*
X025064Y002807D01*
X025086Y002857D01*
X025111Y002906D01*
X025139Y002953D01*
X025171Y002997D01*
X025206Y003039D01*
X025244Y003078D01*
X025285Y003115D01*
X025328Y003148D01*
X025373Y003178D01*
X025421Y003205D01*
X025470Y003228D01*
X025521Y003248D01*
X025574Y003264D01*
X025627Y003276D01*
X025681Y003284D01*
X025736Y003288D01*
X025790Y003288D01*
X025845Y003284D01*
X025899Y003276D01*
X025952Y003264D01*
X026005Y003248D01*
X026056Y003228D01*
X026105Y003205D01*
X026153Y003178D01*
X026198Y003148D01*
X026241Y003115D01*
X026282Y003078D01*
X026320Y003039D01*
X026355Y002997D01*
X026387Y002953D01*
X026415Y002906D01*
X026440Y002857D01*
X026462Y002807D01*
X026479Y002755D01*
X026493Y002703D01*
X026503Y002649D01*
X026509Y002595D01*
X026511Y002540D01*
X026509Y002485D01*
X026503Y002431D01*
X026493Y002377D01*
X026479Y002325D01*
X026462Y002273D01*
X026440Y002223D01*
X026415Y002174D01*
X026387Y002127D01*
X026355Y002083D01*
X026320Y002041D01*
X026282Y002002D01*
X026241Y001965D01*
X026198Y001932D01*
X026153Y001902D01*
X026105Y001875D01*
X026056Y001852D01*
X026005Y001832D01*
X025952Y001816D01*
X025899Y001804D01*
X025845Y001796D01*
X025790Y001792D01*
X025736Y001792D01*
X025681Y001796D01*
X025627Y001804D01*
X025574Y001816D01*
X025521Y001832D01*
X025470Y001852D01*
X025421Y001875D01*
X025373Y001902D01*
X025328Y001932D01*
X025285Y001965D01*
X025244Y002002D01*
X025206Y002041D01*
X025171Y002083D01*
X025139Y002127D01*
X025111Y002174D01*
X025086Y002223D01*
X025064Y002273D01*
X025047Y002325D01*
X025033Y002377D01*
X025023Y002431D01*
X025017Y002485D01*
X025015Y002540D01*
X025015Y050970D02*
X025017Y051025D01*
X025023Y051079D01*
X025033Y051133D01*
X025047Y051185D01*
X025064Y051237D01*
X025086Y051287D01*
X025111Y051336D01*
X025139Y051383D01*
X025171Y051427D01*
X025206Y051469D01*
X025244Y051508D01*
X025285Y051545D01*
X025328Y051578D01*
X025373Y051608D01*
X025421Y051635D01*
X025470Y051658D01*
X025521Y051678D01*
X025574Y051694D01*
X025627Y051706D01*
X025681Y051714D01*
X025736Y051718D01*
X025790Y051718D01*
X025845Y051714D01*
X025899Y051706D01*
X025952Y051694D01*
X026005Y051678D01*
X026056Y051658D01*
X026105Y051635D01*
X026153Y051608D01*
X026198Y051578D01*
X026241Y051545D01*
X026282Y051508D01*
X026320Y051469D01*
X026355Y051427D01*
X026387Y051383D01*
X026415Y051336D01*
X026440Y051287D01*
X026462Y051237D01*
X026479Y051185D01*
X026493Y051133D01*
X026503Y051079D01*
X026509Y051025D01*
X026511Y050970D01*
X026509Y050915D01*
X026503Y050861D01*
X026493Y050807D01*
X026479Y050755D01*
X026462Y050703D01*
X026440Y050653D01*
X026415Y050604D01*
X026387Y050557D01*
X026355Y050513D01*
X026320Y050471D01*
X026282Y050432D01*
X026241Y050395D01*
X026198Y050362D01*
X026153Y050332D01*
X026105Y050305D01*
X026056Y050282D01*
X026005Y050262D01*
X025952Y050246D01*
X025899Y050234D01*
X025845Y050226D01*
X025790Y050222D01*
X025736Y050222D01*
X025681Y050226D01*
X025627Y050234D01*
X025574Y050246D01*
X025521Y050262D01*
X025470Y050282D01*
X025421Y050305D01*
X025373Y050332D01*
X025328Y050362D01*
X025285Y050395D01*
X025244Y050432D01*
X025206Y050471D01*
X025171Y050513D01*
X025139Y050557D01*
X025111Y050604D01*
X025086Y050653D01*
X025064Y050703D01*
X025047Y050755D01*
X025033Y050807D01*
X025023Y050861D01*
X025017Y050915D01*
X025015Y050970D01*
D16*
X025054Y050970D02*
X025056Y051023D01*
X025062Y051076D01*
X025072Y051128D01*
X025085Y051179D01*
X025103Y051229D01*
X025124Y051278D01*
X025149Y051325D01*
X025177Y051369D01*
X025209Y051412D01*
X025243Y051452D01*
X025281Y051490D01*
X025321Y051524D01*
X025364Y051556D01*
X025409Y051584D01*
X025455Y051609D01*
X025504Y051630D01*
X025554Y051648D01*
X025605Y051661D01*
X025657Y051671D01*
X025710Y051677D01*
X025763Y051679D01*
X025816Y051677D01*
X025869Y051671D01*
X025921Y051661D01*
X025972Y051648D01*
X026022Y051630D01*
X026071Y051609D01*
X026118Y051584D01*
X026162Y051556D01*
X026205Y051524D01*
X026245Y051490D01*
X026283Y051452D01*
X026317Y051412D01*
X026349Y051369D01*
X026377Y051324D01*
X026402Y051278D01*
X026423Y051229D01*
X026441Y051179D01*
X026454Y051128D01*
X026464Y051076D01*
X026470Y051023D01*
X026472Y050970D01*
X026470Y050917D01*
X026464Y050864D01*
X026454Y050812D01*
X026441Y050761D01*
X026423Y050711D01*
X026402Y050662D01*
X026377Y050615D01*
X026349Y050571D01*
X026317Y050528D01*
X026283Y050488D01*
X026245Y050450D01*
X026205Y050416D01*
X026162Y050384D01*
X026117Y050356D01*
X026071Y050331D01*
X026022Y050310D01*
X025972Y050292D01*
X025921Y050279D01*
X025869Y050269D01*
X025816Y050263D01*
X025763Y050261D01*
X025710Y050263D01*
X025657Y050269D01*
X025605Y050279D01*
X025554Y050292D01*
X025504Y050310D01*
X025455Y050331D01*
X025408Y050356D01*
X025364Y050384D01*
X025321Y050416D01*
X025281Y050450D01*
X025243Y050488D01*
X025209Y050528D01*
X025177Y050571D01*
X025149Y050616D01*
X025124Y050662D01*
X025103Y050711D01*
X025085Y050761D01*
X025072Y050812D01*
X025062Y050864D01*
X025056Y050917D01*
X025054Y050970D01*
X025054Y021440D02*
X025056Y021493D01*
X025062Y021546D01*
X025072Y021598D01*
X025085Y021649D01*
X025103Y021699D01*
X025124Y021748D01*
X025149Y021795D01*
X025177Y021839D01*
X025209Y021882D01*
X025243Y021922D01*
X025281Y021960D01*
X025321Y021994D01*
X025364Y022026D01*
X025409Y022054D01*
X025455Y022079D01*
X025504Y022100D01*
X025554Y022118D01*
X025605Y022131D01*
X025657Y022141D01*
X025710Y022147D01*
X025763Y022149D01*
X025816Y022147D01*
X025869Y022141D01*
X025921Y022131D01*
X025972Y022118D01*
X026022Y022100D01*
X026071Y022079D01*
X026118Y022054D01*
X026162Y022026D01*
X026205Y021994D01*
X026245Y021960D01*
X026283Y021922D01*
X026317Y021882D01*
X026349Y021839D01*
X026377Y021794D01*
X026402Y021748D01*
X026423Y021699D01*
X026441Y021649D01*
X026454Y021598D01*
X026464Y021546D01*
X026470Y021493D01*
X026472Y021440D01*
X026470Y021387D01*
X026464Y021334D01*
X026454Y021282D01*
X026441Y021231D01*
X026423Y021181D01*
X026402Y021132D01*
X026377Y021085D01*
X026349Y021041D01*
X026317Y020998D01*
X026283Y020958D01*
X026245Y020920D01*
X026205Y020886D01*
X026162Y020854D01*
X026117Y020826D01*
X026071Y020801D01*
X026022Y020780D01*
X025972Y020762D01*
X025921Y020749D01*
X025869Y020739D01*
X025816Y020733D01*
X025763Y020731D01*
X025710Y020733D01*
X025657Y020739D01*
X025605Y020749D01*
X025554Y020762D01*
X025504Y020780D01*
X025455Y020801D01*
X025408Y020826D01*
X025364Y020854D01*
X025321Y020886D01*
X025281Y020920D01*
X025243Y020958D01*
X025209Y020998D01*
X025177Y021041D01*
X025149Y021086D01*
X025124Y021132D01*
X025103Y021181D01*
X025085Y021231D01*
X025072Y021282D01*
X025062Y021334D01*
X025056Y021387D01*
X025054Y021440D01*
X025054Y002540D02*
X025056Y002593D01*
X025062Y002646D01*
X025072Y002698D01*
X025085Y002749D01*
X025103Y002799D01*
X025124Y002848D01*
X025149Y002895D01*
X025177Y002939D01*
X025209Y002982D01*
X025243Y003022D01*
X025281Y003060D01*
X025321Y003094D01*
X025364Y003126D01*
X025409Y003154D01*
X025455Y003179D01*
X025504Y003200D01*
X025554Y003218D01*
X025605Y003231D01*
X025657Y003241D01*
X025710Y003247D01*
X025763Y003249D01*
X025816Y003247D01*
X025869Y003241D01*
X025921Y003231D01*
X025972Y003218D01*
X026022Y003200D01*
X026071Y003179D01*
X026118Y003154D01*
X026162Y003126D01*
X026205Y003094D01*
X026245Y003060D01*
X026283Y003022D01*
X026317Y002982D01*
X026349Y002939D01*
X026377Y002894D01*
X026402Y002848D01*
X026423Y002799D01*
X026441Y002749D01*
X026454Y002698D01*
X026464Y002646D01*
X026470Y002593D01*
X026472Y002540D01*
X026470Y002487D01*
X026464Y002434D01*
X026454Y002382D01*
X026441Y002331D01*
X026423Y002281D01*
X026402Y002232D01*
X026377Y002185D01*
X026349Y002141D01*
X026317Y002098D01*
X026283Y002058D01*
X026245Y002020D01*
X026205Y001986D01*
X026162Y001954D01*
X026117Y001926D01*
X026071Y001901D01*
X026022Y001880D01*
X025972Y001862D01*
X025921Y001849D01*
X025869Y001839D01*
X025816Y001833D01*
X025763Y001831D01*
X025710Y001833D01*
X025657Y001839D01*
X025605Y001849D01*
X025554Y001862D01*
X025504Y001880D01*
X025455Y001901D01*
X025408Y001926D01*
X025364Y001954D01*
X025321Y001986D01*
X025281Y002020D01*
X025243Y002058D01*
X025209Y002098D01*
X025177Y002141D01*
X025149Y002186D01*
X025124Y002232D01*
X025103Y002281D01*
X025085Y002331D01*
X025072Y002382D01*
X025062Y002434D01*
X025056Y002487D01*
X025054Y002540D01*
X005374Y002540D02*
X005376Y002593D01*
X005382Y002646D01*
X005392Y002698D01*
X005405Y002749D01*
X005423Y002799D01*
X005444Y002848D01*
X005469Y002895D01*
X005497Y002939D01*
X005529Y002982D01*
X005563Y003022D01*
X005601Y003060D01*
X005641Y003094D01*
X005684Y003126D01*
X005729Y003154D01*
X005775Y003179D01*
X005824Y003200D01*
X005874Y003218D01*
X005925Y003231D01*
X005977Y003241D01*
X006030Y003247D01*
X006083Y003249D01*
X006136Y003247D01*
X006189Y003241D01*
X006241Y003231D01*
X006292Y003218D01*
X006342Y003200D01*
X006391Y003179D01*
X006438Y003154D01*
X006482Y003126D01*
X006525Y003094D01*
X006565Y003060D01*
X006603Y003022D01*
X006637Y002982D01*
X006669Y002939D01*
X006697Y002894D01*
X006722Y002848D01*
X006743Y002799D01*
X006761Y002749D01*
X006774Y002698D01*
X006784Y002646D01*
X006790Y002593D01*
X006792Y002540D01*
X006790Y002487D01*
X006784Y002434D01*
X006774Y002382D01*
X006761Y002331D01*
X006743Y002281D01*
X006722Y002232D01*
X006697Y002185D01*
X006669Y002141D01*
X006637Y002098D01*
X006603Y002058D01*
X006565Y002020D01*
X006525Y001986D01*
X006482Y001954D01*
X006437Y001926D01*
X006391Y001901D01*
X006342Y001880D01*
X006292Y001862D01*
X006241Y001849D01*
X006189Y001839D01*
X006136Y001833D01*
X006083Y001831D01*
X006030Y001833D01*
X005977Y001839D01*
X005925Y001849D01*
X005874Y001862D01*
X005824Y001880D01*
X005775Y001901D01*
X005728Y001926D01*
X005684Y001954D01*
X005641Y001986D01*
X005601Y002020D01*
X005563Y002058D01*
X005529Y002098D01*
X005497Y002141D01*
X005469Y002186D01*
X005444Y002232D01*
X005423Y002281D01*
X005405Y002331D01*
X005392Y002382D01*
X005382Y002434D01*
X005376Y002487D01*
X005374Y002540D01*
X005374Y021440D02*
X005376Y021493D01*
X005382Y021546D01*
X005392Y021598D01*
X005405Y021649D01*
X005423Y021699D01*
X005444Y021748D01*
X005469Y021795D01*
X005497Y021839D01*
X005529Y021882D01*
X005563Y021922D01*
X005601Y021960D01*
X005641Y021994D01*
X005684Y022026D01*
X005729Y022054D01*
X005775Y022079D01*
X005824Y022100D01*
X005874Y022118D01*
X005925Y022131D01*
X005977Y022141D01*
X006030Y022147D01*
X006083Y022149D01*
X006136Y022147D01*
X006189Y022141D01*
X006241Y022131D01*
X006292Y022118D01*
X006342Y022100D01*
X006391Y022079D01*
X006438Y022054D01*
X006482Y022026D01*
X006525Y021994D01*
X006565Y021960D01*
X006603Y021922D01*
X006637Y021882D01*
X006669Y021839D01*
X006697Y021794D01*
X006722Y021748D01*
X006743Y021699D01*
X006761Y021649D01*
X006774Y021598D01*
X006784Y021546D01*
X006790Y021493D01*
X006792Y021440D01*
X006790Y021387D01*
X006784Y021334D01*
X006774Y021282D01*
X006761Y021231D01*
X006743Y021181D01*
X006722Y021132D01*
X006697Y021085D01*
X006669Y021041D01*
X006637Y020998D01*
X006603Y020958D01*
X006565Y020920D01*
X006525Y020886D01*
X006482Y020854D01*
X006437Y020826D01*
X006391Y020801D01*
X006342Y020780D01*
X006292Y020762D01*
X006241Y020749D01*
X006189Y020739D01*
X006136Y020733D01*
X006083Y020731D01*
X006030Y020733D01*
X005977Y020739D01*
X005925Y020749D01*
X005874Y020762D01*
X005824Y020780D01*
X005775Y020801D01*
X005728Y020826D01*
X005684Y020854D01*
X005641Y020886D01*
X005601Y020920D01*
X005563Y020958D01*
X005529Y020998D01*
X005497Y021041D01*
X005469Y021086D01*
X005444Y021132D01*
X005423Y021181D01*
X005405Y021231D01*
X005392Y021282D01*
X005382Y021334D01*
X005376Y021387D01*
X005374Y021440D01*
X002183Y030956D02*
X002185Y030990D01*
X002191Y031024D01*
X002201Y031057D01*
X002214Y031088D01*
X002232Y031118D01*
X002252Y031146D01*
X002276Y031171D01*
X002302Y031193D01*
X002330Y031211D01*
X002361Y031227D01*
X002393Y031239D01*
X002427Y031247D01*
X002461Y031251D01*
X002495Y031251D01*
X002529Y031247D01*
X002563Y031239D01*
X002595Y031227D01*
X002625Y031211D01*
X002654Y031193D01*
X002680Y031171D01*
X002704Y031146D01*
X002724Y031118D01*
X002742Y031088D01*
X002755Y031057D01*
X002765Y031024D01*
X002771Y030990D01*
X002773Y030956D01*
X002771Y030922D01*
X002765Y030888D01*
X002755Y030855D01*
X002742Y030824D01*
X002724Y030794D01*
X002704Y030766D01*
X002680Y030741D01*
X002654Y030719D01*
X002626Y030701D01*
X002595Y030685D01*
X002563Y030673D01*
X002529Y030665D01*
X002495Y030661D01*
X002461Y030661D01*
X002427Y030665D01*
X002393Y030673D01*
X002361Y030685D01*
X002330Y030701D01*
X002302Y030719D01*
X002276Y030741D01*
X002252Y030766D01*
X002232Y030794D01*
X002214Y030824D01*
X002201Y030855D01*
X002191Y030888D01*
X002185Y030922D01*
X002183Y030956D01*
X002183Y040484D02*
X002185Y040518D01*
X002191Y040552D01*
X002201Y040585D01*
X002214Y040616D01*
X002232Y040646D01*
X002252Y040674D01*
X002276Y040699D01*
X002302Y040721D01*
X002330Y040739D01*
X002361Y040755D01*
X002393Y040767D01*
X002427Y040775D01*
X002461Y040779D01*
X002495Y040779D01*
X002529Y040775D01*
X002563Y040767D01*
X002595Y040755D01*
X002625Y040739D01*
X002654Y040721D01*
X002680Y040699D01*
X002704Y040674D01*
X002724Y040646D01*
X002742Y040616D01*
X002755Y040585D01*
X002765Y040552D01*
X002771Y040518D01*
X002773Y040484D01*
X002771Y040450D01*
X002765Y040416D01*
X002755Y040383D01*
X002742Y040352D01*
X002724Y040322D01*
X002704Y040294D01*
X002680Y040269D01*
X002654Y040247D01*
X002626Y040229D01*
X002595Y040213D01*
X002563Y040201D01*
X002529Y040193D01*
X002495Y040189D01*
X002461Y040189D01*
X002427Y040193D01*
X002393Y040201D01*
X002361Y040213D01*
X002330Y040229D01*
X002302Y040247D01*
X002276Y040269D01*
X002252Y040294D01*
X002232Y040322D01*
X002214Y040352D01*
X002201Y040383D01*
X002191Y040416D01*
X002185Y040450D01*
X002183Y040484D01*
X005374Y050970D02*
X005376Y051023D01*
X005382Y051076D01*
X005392Y051128D01*
X005405Y051179D01*
X005423Y051229D01*
X005444Y051278D01*
X005469Y051325D01*
X005497Y051369D01*
X005529Y051412D01*
X005563Y051452D01*
X005601Y051490D01*
X005641Y051524D01*
X005684Y051556D01*
X005729Y051584D01*
X005775Y051609D01*
X005824Y051630D01*
X005874Y051648D01*
X005925Y051661D01*
X005977Y051671D01*
X006030Y051677D01*
X006083Y051679D01*
X006136Y051677D01*
X006189Y051671D01*
X006241Y051661D01*
X006292Y051648D01*
X006342Y051630D01*
X006391Y051609D01*
X006438Y051584D01*
X006482Y051556D01*
X006525Y051524D01*
X006565Y051490D01*
X006603Y051452D01*
X006637Y051412D01*
X006669Y051369D01*
X006697Y051324D01*
X006722Y051278D01*
X006743Y051229D01*
X006761Y051179D01*
X006774Y051128D01*
X006784Y051076D01*
X006790Y051023D01*
X006792Y050970D01*
X006790Y050917D01*
X006784Y050864D01*
X006774Y050812D01*
X006761Y050761D01*
X006743Y050711D01*
X006722Y050662D01*
X006697Y050615D01*
X006669Y050571D01*
X006637Y050528D01*
X006603Y050488D01*
X006565Y050450D01*
X006525Y050416D01*
X006482Y050384D01*
X006437Y050356D01*
X006391Y050331D01*
X006342Y050310D01*
X006292Y050292D01*
X006241Y050279D01*
X006189Y050269D01*
X006136Y050263D01*
X006083Y050261D01*
X006030Y050263D01*
X005977Y050269D01*
X005925Y050279D01*
X005874Y050292D01*
X005824Y050310D01*
X005775Y050331D01*
X005728Y050356D01*
X005684Y050384D01*
X005641Y050416D01*
X005601Y050450D01*
X005563Y050488D01*
X005529Y050528D01*
X005497Y050571D01*
X005469Y050616D01*
X005444Y050662D01*
X005423Y050711D01*
X005405Y050761D01*
X005392Y050812D01*
X005382Y050864D01*
X005376Y050917D01*
X005374Y050970D01*
D17*
X017903Y040740D03*
X018573Y040740D03*
X019243Y040740D03*
X019913Y040740D03*
X020583Y040740D03*
D18*
X022093Y032010D02*
X023873Y032010D01*
X023873Y030510D02*
X022093Y030510D01*
M02*
