%
M48
M72
T01C0.0200
T02C0.0236
T03C0.0240
T04C0.0320
T05C0.0360
T06C0.0394
T07C0.0400
T08C0.0591
T09C0.1102
T10C0.1417
%
T01
X2395Y28820
X4063Y45940
X17193Y30290
T02
X17798Y42700
X17798Y43200
X17798Y43700
X17798Y44200
X17798Y44700
X17798Y45200
X18298Y45200
X18298Y44700
X18298Y44700
X18298Y44200
X18298Y43700
X18298Y43200
X18298Y42700
X18798Y44200
X18798Y44700
X18798Y45200
X19298Y45200
X19798Y45200
X19798Y44700
X19798Y44200
X19298Y44200
X19298Y44700
X20298Y44700
X20298Y45200
X20298Y44200
X20298Y43700
X20298Y43200
X20298Y42700
X20798Y42700
X20798Y43200
X20798Y43700
X20798Y44200
X20798Y44700
X20798Y45200
T03
X19113Y38840
X17113Y40790
X14023Y34490
X14023Y32960
X14613Y31350
X14013Y29960
X10493Y36980
X11473Y37980
X11613Y48860
X18903Y32460
X10933Y16450
X9933Y16450
X8933Y16450
X7933Y16450
X6933Y16450
X6933Y18940
X9973Y19240
T04
X18913Y31260
X20313Y31260
X15273Y37560
X13873Y37560
T05
X13923Y28320
X13923Y27320
X12923Y27320
X12923Y28320
X11923Y28320
X11923Y27320
X10923Y27320
X10923Y28320
X9923Y28320
X9923Y27320
X14923Y27320
X14923Y28320
X15923Y28320
X15923Y27320
X16923Y27320
X16923Y28320
X17923Y28320
X17923Y27320
X18923Y27320
X18923Y28320
X19923Y28320
X19923Y27320
X20923Y27320
X20923Y28320
X21923Y28320
X21923Y27320
T06
X17340Y11197
X17340Y10314
X17340Y9432
X11763Y9412
X11763Y11217
T07
X11933Y4920
X10933Y4920
X9933Y4920
X8933Y4920
X7933Y4920
X6933Y4920
X6351Y25495
X5351Y25495
X6371Y47030
X7371Y47030
X8371Y47030
X9371Y47030
X10371Y47030
X11371Y47030
X12371Y47030
X13371Y47030
X14371Y47030
X15371Y47030
X16371Y47030
X17371Y47030
X18371Y47030
X19371Y47030
X20371Y47030
X21371Y47030
X22371Y47030
X23371Y47030
X24371Y47030
X25371Y47030
X25391Y25495
X26391Y25495
T08
X2478Y30956
X2478Y40484
T09
X14456Y12539
X14456Y8090
T10
X6083Y2540
X6083Y21440
X6083Y50970
X25763Y50970
X25763Y21440
X25763Y2540
M30
